<svg width="10" height="10" viewBox="0 0 10 10" fill="none" xmlns="http://www.w3.org/2000/svg">
<path d="M9.25595 1.20988H8.4375V0.691047C8.4375 0.309395 8.10438 0 7.69345 0H7.66369C7.25277 0 6.91964 0.309395 6.91964 0.691047V1.20988H3.08036V0.691047C3.08036 0.309395 2.74723 0 2.33631 0H2.30655C1.89563 0 1.5625 0.309395 1.5625 0.691047V1.20988H0.744048C0.333125 1.20988 0 1.51928 0 1.90093V9.30895C0 9.69066 0.333125 10 0.744048 10H9.25595C9.66688 10 10 9.69066 10 9.30895V1.90093C10 1.51928 9.66685 1.20988 9.25595 1.20988ZM8.75 8.90815H1.25V3.29685H8.75V8.90815Z" fill="#BFC0C4"/>
<path d="M2.26929 5.83618H3.56387C3.62962 5.83618 3.68292 5.78668 3.68292 5.72562V4.52326C3.68292 4.4622 3.62962 4.41269 3.56387 4.41269H2.26929C2.20354 4.41269 2.15024 4.4622 2.15024 4.52326V5.72562C2.15024 5.78668 2.20354 5.83618 2.26929 5.83618Z" fill="#BFC0C4"/>
<path d="M4.35283 5.83618H5.64741C5.71315 5.83618 5.76646 5.78668 5.76646 5.72562V4.52326C5.76646 4.4622 5.71315 4.41269 5.64741 4.41269H4.35283C4.28708 4.41269 4.23378 4.4622 4.23378 4.52326V5.72562C4.23378 5.78668 4.28708 5.83618 4.35283 5.83618Z" fill="#BFC0C4"/>
<path d="M6.43636 5.83618H7.73096C7.7967 5.83618 7.85 5.78668 7.85 5.72562V4.52326C7.85 4.4622 7.7967 4.41269 7.73096 4.41269H6.43636C6.37062 4.41269 6.31732 4.4622 6.31732 4.52326V5.72562C6.31732 5.78668 6.37062 5.83618 6.43636 5.83618Z" fill="#BFC0C4"/>
<path d="M2.26929 7.77101H3.56387C3.62962 7.77101 3.68292 7.72151 3.68292 7.66044V6.45807C3.68292 6.39701 3.62962 6.3475 3.56387 6.3475H2.26929C2.20354 6.3475 2.15024 6.39701 2.15024 6.45807V7.66044C2.15024 7.72151 2.20354 7.77101 2.26929 7.77101Z" fill="#BFC0C4"/>
<path d="M4.35283 7.77101H5.64741C5.71315 7.77101 5.76646 7.72151 5.76646 7.66044V6.45807C5.76646 6.39701 5.71315 6.3475 5.64741 6.3475H4.35283C4.28708 6.3475 4.23378 6.39701 4.23378 6.45807V7.66044C4.23378 7.72151 4.28708 7.77101 4.35283 7.77101Z" fill="#BFC0C4"/>
<path d="M6.43636 7.77101H7.73096C7.7967 7.77101 7.85 7.72151 7.85 7.66044V6.45807C7.85 6.39701 7.7967 6.3475 7.73096 6.3475H6.43636C6.37062 6.3475 6.31732 6.39701 6.31732 6.45807V7.66044C6.31732 7.72151 6.37062 7.77101 6.43636 7.77101Z" fill="#BFC0C4"/>
</svg>
