<svg width="25" height="465" fill="none" xmlns="http://www.w3.org/2000/svg"><path d="M20.36 454.304h-8.164v-8.165a.59.59 0 00-.594-.593c-5.155 0-9.352 4.196-9.352 9.352 0 5.155 4.197 9.352 9.352 9.352 5.156 0 9.352-4.197 9.352-9.352a.597.597 0 00-.593-.594zm-8.758 8.758c-4.5 0-8.164-3.664-8.164-8.164 0-4.302 3.343-7.839 7.57-8.143v8.143c0 .33.264.594.594.594h8.143c-.304 4.227-3.84 7.57-8.143 7.57z" fill="#BFC0C4"/><path d="M24.246 451.571a9.366 9.366 0 00-2.34-6.158 9.36 9.36 0 00-7.012-3.163.591.591 0 00-.594.594v8.758c0 .33.264.594.593.594h8.759c.33 0 .594-.264.594-.594v-.031zm-8.759-.558v-7.549a8.161 8.161 0 015.525 2.741 8.156 8.156 0 012.024 4.808h-7.549z" fill="#BFC0C4"/><path fill-rule="evenodd" clip-rule="evenodd" d="M14.05 442.844a.84.84 0 01.843-.844 9.607 9.607 0 017.2 3.247 9.619 9.619 0 012.403 6.323v.032a.842.842 0 01-.844.844h-8.759a.841.841 0 01-.843-.844v-8.758zm.843-.344a.341.341 0 00-.343.344v8.758c0 .192.152.344.343.344h8.759a.341.341 0 00.344-.344v-.03a9.118 9.118 0 00-2.278-5.994 9.11 9.11 0 00-6.825-3.078zm.344.695l.268.02a8.412 8.412 0 015.695 2.824 8.406 8.406 0 012.085 4.955l.02.269h-8.068v-8.068zm.5.543v7.025h7.025a7.915 7.915 0 00-7.025-7.025zM2 454.898c0-5.294 4.309-9.602 9.602-9.602a.84.84 0 01.844.843v7.915h7.915c.463 0 .843.38.843.844 0 5.293-4.308 9.602-9.602 9.602C6.31 464.5 2 460.191 2 454.898zm9.602-9.102c-5.017 0-9.102 4.084-9.102 9.102 0 5.017 4.085 9.102 9.102 9.102 5.018 0 9.102-4.085 9.102-9.102a.347.347 0 00-.343-.344h-8.415v-8.415a.341.341 0 00-.344-.343zm-.344.691v8.411c0 .192.152.344.344.344h8.411l-.019.268c-.313 4.357-3.957 7.802-8.392 7.802-4.638 0-8.414-3.776-8.414-8.414 0-4.434 3.445-8.079 7.803-8.392l.267-.019zm-.5.541c-3.97.421-7.07 3.791-7.07 7.87 0 4.362 3.552 7.914 7.914 7.914 4.08 0 7.449-3.1 7.87-7.07h-7.87a.842.842 0 01-.844-.844v-7.87z" fill="#BFC0C4"/><circle cx="12" cy="267" r="10.15" stroke="#BFC0C4" stroke-width="1.7"/><path d="M9.156 272.762a.366.366 0 01-.258-.099.437.437 0 01-.092-.28v-2.107h-1.17a.366.366 0 01-.26-.099.437.437 0 01-.09-.28v-.378c0-.11.03-.198.091-.264a.342.342 0 01.258-.115h1.171v-.938h-1.17a.366.366 0 01-.26-.099.437.437 0 01-.09-.28v-.56c0-.109.03-.197.091-.263a.338.338 0 01.258-.115h1.171v-5.252c0-.121.03-.214.092-.28a.342.342 0 01.258-.115h3.863c1.146 0 2.048.302 2.707.906.659.603.988 1.476.988 2.617 0 1.12-.33 1.976-.988 2.568-.65.582-1.551.873-2.707.873h-2.692v.938h2.935c.102 0 .183.039.243.115a.343.343 0 01.107.264v.378c0 .11-.036.203-.107.28a.315.315 0 01-.243.099h-2.935v2.107c0 .11-.035.203-.106.28a.366.366 0 01-.259.099h-.806zm3.787-5.877c.74 0 1.298-.181 1.673-.544.385-.362.578-.888.578-1.58 0-.691-.188-1.218-.563-1.58-.375-.373-.938-.56-1.688-.56h-2.631v4.264h2.63z" fill="#BFC0C4"/><path d="M21.874 326.691l-1.544-.262a8.707 8.707 0 00-.62-1.499l.91-1.273a1.355 1.355 0 00-.148-1.751l-1.37-1.369a1.35 1.35 0 00-1.746-.147l-1.277.91a8.64 8.64 0 00-1.554-.639l-.257-1.526A1.358 1.358 0 0012.926 318h-1.935c-.666 0-1.231.478-1.342 1.135l-.266 1.563a8.54 8.54 0 00-1.494.629l-1.264-.91a1.352 1.352 0 00-.79-.252 1.34 1.34 0 00-.96.399l-1.375 1.37a1.36 1.36 0 00-.147 1.751l.92 1.291a8.542 8.542 0 00-.612 1.503l-1.526.258A1.357 1.357 0 001 328.079v1.934c0 .667.478 1.232 1.135 1.342l1.563.267a8.5 8.5 0 00.63 1.494l-.906 1.259a1.355 1.355 0 00.147 1.751l1.37 1.369a1.347 1.347 0 001.746.147l1.291-.919c.465.244.952.441 1.453.598l.257 1.544c.11.657.676 1.135 1.342 1.135h1.94c.666 0 1.231-.478 1.341-1.135l.262-1.544a8.714 8.714 0 001.499-.621l1.273.91a1.35 1.35 0 001.751-.147l1.37-1.369a1.36 1.36 0 00.146-1.751l-.91-1.278c.253-.483.464-.984.62-1.498l1.545-.258A1.357 1.357 0 0023 329.967v-1.934a1.34 1.34 0 00-1.126-1.342zm-.106 3.276a.12.12 0 01-.1.12l-1.931.322a.615.615 0 00-.496.455 7.362 7.362 0 01-.8 1.925.622.622 0 00.028.676l1.135 1.599a.125.125 0 01-.014.156l-1.37 1.37a.118.118 0 01-.156.014l-1.595-1.135a.62.62 0 00-.675-.028 7.385 7.385 0 01-1.926.8.609.609 0 00-.455.496l-.326 1.93a.119.119 0 01-.12.101h-1.934a.119.119 0 01-.12-.101l-.322-1.93a.615.615 0 00-.455-.496 7.641 7.641 0 01-1.884-.772.628.628 0 00-.67.032l-1.61 1.144a.135.135 0 01-.068.023.124.124 0 01-.088-.037l-1.37-1.369a.126.126 0 01-.013-.157l1.13-1.585a.629.629 0 00.028-.68 7.303 7.303 0 01-.809-1.921.628.628 0 00-.496-.455l-1.944-.331a.12.12 0 01-.101-.12v-1.934a.12.12 0 01.101-.12l1.916-.322a.62.62 0 00.501-.459c.17-.676.432-1.328.786-1.93a.614.614 0 00-.032-.671l-1.144-1.609a.125.125 0 01.013-.156l1.37-1.37a.118.118 0 01.156-.014l1.586 1.131a.63.63 0 00.68.028 7.25 7.25 0 011.921-.809.631.631 0 00.455-.497l.33-1.944a.12.12 0 01.12-.101h1.935c.06 0 .11.042.12.101l.321 1.917a.624.624 0 00.46.501 7.44 7.44 0 011.972.809.62.62 0 00.675-.028l1.586-1.14a.135.135 0 01.069-.023c.018 0 .055.005.087.037l1.37 1.37a.124.124 0 01.013.156l-1.135 1.595a.62.62 0 00-.027.675 7.35 7.35 0 01.8 1.926.61.61 0 00.496.455l1.93.326a.12.12 0 01.1.12v1.934h-.004z" fill="#BFC0C4" stroke="#BFC0C4" stroke-width=".5"/><path d="M12.002 324.249a4.75 4.75 0 00-4.747 4.748 4.75 4.75 0 004.747 4.747 4.75 4.75 0 004.748-4.747 4.75 4.75 0 00-4.748-4.748zm0 8.254a3.508 3.508 0 01-3.507-3.506 3.51 3.51 0 013.507-3.507 3.51 3.51 0 013.507 3.507 3.508 3.508 0 01-3.507 3.506z" fill="#BFC0C4" stroke="#BFC0C4" stroke-width=".5"/><path d="M22.942 3.205c0-1.086-1.122-1.895-3.43-2.472C17.621.26 15.12 0 12.47 0 9.82 0 7.32.26 5.43.733 3.122 1.31 2 2.119 2 3.205c0 .402.154.766.465 1.094l7.126 8.644v8.274a.783.783 0 001.131.702l4.185-2.075a.783.783 0 00.435-.7l.008-6.2 7.128-8.645c.31-.328.464-.692.464-1.094zM6.164 2.17c1.726-.389 3.966-.603 6.307-.603s4.581.214 6.307.603c1.906.428 2.442.89 2.57 1.036-.128.147-.664.608-2.57 1.037-1.726.388-3.966.602-6.307.602S7.89 4.63 6.164 4.242c-1.906-.43-2.442-.89-2.57-1.037.128-.147.664-.608 2.57-1.036zm7.8 9.995a.783.783 0 00-.18.497l-.007 5.995-2.62 1.299v-7.293a.783.783 0 00-.178-.498l-5.3-6.427c1.859.434 4.256.673 6.792.673 2.536 0 4.933-.239 6.791-.673l-5.299 6.427zM19.922 194H3.302c-.718 0-1.302.584-1.302 1.302v19.396c0 .718.584 1.302 1.302 1.302h16.62c.718 0 1.302-.584 1.302-1.302v-19.396c0-.718-.584-1.302-1.302-1.302zm-16.88 1.302a.26.26 0 01.26-.26h16.62a.26.26 0 01.26.26v4.516H3.043v-4.516zm5.019 19.656H3.302a.26.26 0 01-.26-.26v-6.269H8.06v6.529zm0-7.571H3.04v-6.527h5.02v6.527zm6.06 7.571H9.104v-6.529h5.019v6.529zm0-7.571H9.104v-6.527h5.019v6.527zm6.062 7.311a.26.26 0 01-.26.26h-4.76V200.86h5.02v13.838z" fill="#BFC0C4"/><path d="M6.84 203.603h-.768v-.767a.52.52 0 10-1.042 0v.767h-.767a.52.52 0 100 1.042h.767v.767a.521.521 0 001.042 0v-.767h.767a.521.521 0 000-1.042zm6.086 0h-2.628a.52.52 0 100 1.042h2.628a.521.521 0 000-1.042zm-6.638 8.092l.629-.629a.521.521 0 00-.737-.737l-.629.629-.629-.629a.522.522 0 00-.736.737l.628.629-.628.629a.52.52 0 10.736.736l.63-.629.628.629a.519.519 0 00.737 0 .52.52 0 000-.736l-.629-.629zm6.69-1.366a.522.522 0 00-.737 0l-1.995 1.995a.52.52 0 10.737.736l1.995-1.994a.521.521 0 000-.737zm-2.363.813a.444.444 0 100-.889.444.444 0 000 .889zm1.995 1.994a.444.444 0 100-.889.444.444 0 000 .889zm6.38-6.657h-2.664a.52.52 0 100 1.042h2.663a.52.52 0 100-1.042zm0 1.818h-2.664a.522.522 0 000 1.042h2.663a.52.52 0 100-1.042z" fill="#BFC0C4"/><path d="M19.922 194H3.302c-.718 0-1.302.584-1.302 1.302v19.396c0 .718.584 1.302 1.302 1.302h16.62c.718 0 1.302-.584 1.302-1.302v-19.396c0-.718-.584-1.302-1.302-1.302zm-16.88 1.302a.26.26 0 01.26-.26h16.62a.26.26 0 01.26.26v4.516H3.043v-4.516zm5.019 19.656H3.302a.26.26 0 01-.26-.26v-6.269H8.06v6.529zm0-7.571H3.04v-6.527h5.02v6.527zm6.06 7.571H9.104v-6.529h5.019v6.529zm0-7.571H9.104v-6.527h5.019v6.527zm6.062 7.311a.26.26 0 01-.26.26h-4.76V200.86h5.02v13.838z" stroke="#BFC0C4" stroke-width=".2"/><path d="M6.84 203.603h-.768v-.767a.52.52 0 10-1.042 0v.767h-.767a.52.52 0 100 1.042h.767v.767a.521.521 0 001.042 0v-.767h.767a.521.521 0 000-1.042zm6.086 0h-2.628a.52.52 0 100 1.042h2.628a.521.521 0 000-1.042zm-6.638 8.092l.629-.629a.521.521 0 00-.737-.737l-.629.629-.629-.629a.522.522 0 00-.736.737l.628.629-.628.629a.52.52 0 10.736.736l.63-.629.628.629a.519.519 0 00.737 0 .52.52 0 000-.736l-.629-.629zm6.69-1.366a.522.522 0 00-.737 0l-1.995 1.995a.52.52 0 10.737.736l1.995-1.994a.521.521 0 000-.737zm-2.363.813a.444.444 0 100-.889.444.444 0 000 .889zm1.995 1.994a.444.444 0 100-.889.444.444 0 000 .889zm6.38-6.657h-2.664a.52.52 0 100 1.042h2.663a.52.52 0 100-1.042zm0 1.818h-2.664a.522.522 0 000 1.042h2.663a.52.52 0 100-1.042z" stroke="#BFC0C4" stroke-width=".2"/><path d="M14 130H6c-1.103 0-2 .897-2 2v14.4c0 1.103.897 2 2 2h7.2v-.8H6c-.662 0-1.2-.538-1.2-1.2V132c0-.662.538-1.2 1.2-1.2h8c.662 0 1.2.538 1.2 1.2v11.6h.8V132c0-1.103-.897-2-2-2z" fill="#BFC0C4"/><path d="M19.836 140.654l-3.924-4.904-.625.5 3.924 4.904c.51.636.79 1.435.789 2.25v9.796h-5.852a3.752 3.752 0 01-3.748-3.748V148h-.8v1.452A4.553 4.553 0 0014.148 154H20.4a.4.4 0 00.4-.4v-10.196c0-.995-.341-1.972-.964-2.75z" fill="#BFC0C4"/><path d="M10.798 139.433c.281.008.543.125.735.329l5.376 5.712.582-.548-5.376-5.713c-.34-.359-.8-.565-1.294-.579a1.814 1.814 0 00-1.36.54 1.847 1.847 0 00-.106 2.505l3.445 4.068v1.237a5.351 5.351 0 003.46 4.991l.28-.749a4.55 4.55 0 01-2.94-4.242V145.6a.404.404 0 00-.095-.259l-3.539-4.178c-.354-.422-.328-1.035.08-1.443.204-.193.47-.288.752-.287z" fill="#BFC0C4"/><path d="M13.6 130.8h-.8v10h.8v-10zm-2 12.4h-.8v4.8h.8v-4.8zm0-12.8h-.8v8.8h.8v-8.8zm-2.8 12.8H6.4a.4.4 0 00-.4.4v2.4c0 .221.18.4.4.4h2.4a.4.4 0 00.4-.4v-2.4a.4.4 0 00-.4-.4zm-.4 2.4H6.8V144h1.6v1.6z" fill="#BFC0C4"/><path d="M14 130H6c-1.103 0-2 .897-2 2v14.4c0 1.103.897 2 2 2h7.2v-.8H6c-.662 0-1.2-.538-1.2-1.2V132c0-.662.538-1.2 1.2-1.2h8c.662 0 1.2.538 1.2 1.2v11.6h.8V132c0-1.103-.897-2-2-2z" stroke="#BFC0C4" stroke-width=".5"/><path d="M19.836 140.654l-3.924-4.904-.625.5 3.924 4.904c.51.636.79 1.435.789 2.25v9.796h-5.852a3.752 3.752 0 01-3.748-3.748V148h-.8v1.452A4.553 4.553 0 0014.148 154H20.4a.4.4 0 00.4-.4v-10.196c0-.995-.341-1.972-.964-2.75z" stroke="#BFC0C4" stroke-width=".5"/><path d="M10.798 139.433c.281.008.543.125.735.329l5.376 5.712.582-.548-5.376-5.713c-.34-.359-.8-.565-1.294-.579a1.814 1.814 0 00-1.36.54 1.847 1.847 0 00-.106 2.505l3.445 4.068v1.237a5.351 5.351 0 003.46 4.991l.28-.749a4.55 4.55 0 01-2.94-4.242V145.6a.404.404 0 00-.095-.259l-3.539-4.178c-.354-.422-.328-1.035.08-1.443.204-.193.47-.288.752-.287z" stroke="#BFC0C4" stroke-width=".5"/><path d="M13.6 130.8h-.8v10h.8v-10zm-2 12.4h-.8v4.8h.8v-4.8zm0-12.8h-.8v8.8h.8v-8.8zm-2.8 12.8H6.4a.4.4 0 00-.4.4v2.4c0 .221.18.4.4.4h2.4a.4.4 0 00.4-.4v-2.4a.4.4 0 00-.4-.4zm-.4 2.4H6.8V144h1.6v1.6z" stroke="#BFC0C4" stroke-width=".5"/><path fill-rule="evenodd" clip-rule="evenodd" d="M5.246 380a.795.795 0 00-.794.795c0 .265.004.53.011.793H1.795a.795.795 0 00-.795.794c0 2.913.761 5.668 2.15 7.756 1.36 2.044 3.18 3.243 5.165 3.38a6.79 6.79 0 001.315 1.11v2.631h-.932a2.524 2.524 0 00-2.52 2.521v.938a.794.794 0 00.104 1.582h11.736a.795.795 0 00.104-1.582v-.938c0-1.39-1.13-2.521-2.52-2.521h-.931v-2.631a6.79 6.79 0 001.315-1.11c1.984-.137 3.804-1.336 5.164-3.38 1.39-2.088 2.15-4.843 2.15-7.756a.795.795 0 00-.794-.794h-2.669c.007-.263.011-.528.011-.793a.795.795 0 00-.794-.795H5.246zm2.733 10.202c-1.154-2.308-1.832-5.341-1.927-8.613h12.196c-.095 3.272-.773 6.305-1.927 8.613-.389.778-.813 1.436-1.26 1.969a.824.824 0 00-.091.106c-.45.515-.922.902-1.404 1.158a2.975 2.975 0 01-1.416.372 2.972 2.972 0 01-1.416-.372c-.482-.256-.954-.643-1.404-1.158a.745.745 0 00-.09-.105c-.448-.534-.872-1.192-1.26-1.97zm-3.506-.944c-1.088-1.636-1.741-3.77-1.863-6.081h1.941c.245 2.903.934 5.591 2.007 7.736.1.202.204.397.31.586-.88-.439-1.699-1.195-2.395-2.241zm13.27 1.655c1.072-2.145 1.761-4.833 2.006-7.736h1.941c-.122 2.311-.775 4.445-1.863 6.081-.696 1.046-1.516 1.802-2.395 2.241.106-.189.21-.384.31-.586zm-6.524 6.346v-1.964a4.344 4.344 0 001.863 0v1.964h-1.863zm-3.452 2.521c0-.514.418-.932.931-.932h6.904c.513 0 .931.418.931.932v.931H7.767v-.931z" fill="#BFC0C4"/><path d="M16.409 82H7.59c-.326 0-.591.32-.591.717 0 .395.265.716.591.716h8.818c.326 0 .591-.32.591-.716 0-.396-.265-.717-.591-.717zm0 2.996H7.59c-.326 0-.591.321-.591.717 0 .396.265.717.591.717h8.818c.326 0 .591-.321.591-.717 0-.396-.265-.717-.591-.717zm-1.518-10.583c-.012 0-1.1.045-1.394-1.132.397-.312.73-.746.969-1.265a.535.535 0 00.475-.202c.498-.641.758-1.474.73-2.344-.058-1.804-1.313-3.227-2.86-3.244h-.11l-.003.001a2.713 2.713 0 00-1.178-.226c-.87.028-1.67.46-2.25 1.215-.556.725-.844 1.667-.813 2.654.006.167.019.32.04.466.058.42.173.823.344 1.198a.535.535 0 00.612.297c.242.6.608 1.099 1.05 1.447-.288 1.175-1.382 1.135-1.394 1.136-1.17.038-2.109 1-2.109 2.179v2.166c0 .295.24.535.535.535h8.93c.296 0 .535-.24.535-.535v-2.166c0-1.179-.94-2.141-2.109-2.18zm-5.328-4.177a3.127 3.127 0 01-.037-.4c-.023-.741.187-1.44.593-1.968.381-.497.891-.78 1.436-.797.018-.001.445-.035.805.178a.48.48 0 00.254.055l.18-.008c.958.006 1.77.997 1.808 2.208.005.139-.001.276-.016.41a3.176 3.176 0 00-1.506-1.341.535.535 0 00-.709.307 2.26 2.26 0 01-.149.324c-.14.251-.428.4-.75.389a2.862 2.862 0 00-1.103.178c-.291.11-.562.266-.806.465zm.746.776c.136-.1.284-.174.436-.24.276-.118.65-.111.69-.11.69.024 1.318-.299 1.668-.848.273.21.499.49.656.825-.166 1.2-.913 2.113-1.76 2.113-.757 0-1.436-.715-1.69-1.74zm1.175 2.75a2.234 2.234 0 001.032 0 2.46 2.46 0 001.009 1.326A1.626 1.626 0 0112 76.156c-.693 0-1.296-.44-1.525-1.069a2.46 2.46 0 001.01-1.325zM8.07 78.224v-1.631c0-.613.498-1.112 1.111-1.112.013 0 .208-.01.291-.022A2.699 2.699 0 0012 77.226a2.699 2.699 0 002.528-1.767c.083.011.278.022.29.022.614 0 1.112.5 1.112 1.112v1.63H8.07z" fill="#29006C"/><path d="M20.936 62H3.064C1.926 62 1 62.964 1 64.15v23.7C1 89.036 1.926 90 3.064 90h17.872C22.074 90 23 89.036 23 87.85v-23.7c0-1.186-.926-2.15-2.064-2.15zm.688 25.85c0 .395-.308.717-.688.717H3.064c-.38 0-.688-.322-.688-.717v-23.7c0-.395.308-.717.688-.717h17.872c.38 0 .688.322.688.717v23.7z" fill="#29006C"/></svg>