<svg width="22" height="28" fill="none" xmlns="http://www.w3.org/2000/svg"><path d="M15.409 20H6.59c-.326 0-.591.32-.591.717 0 .395.265.716.591.716h8.818c.326 0 .591-.32.591-.716 0-.396-.265-.717-.591-.717zm0 2.996H6.59c-.326 0-.591.321-.591.717 0 .396.265.716.591.716h8.818c.326 0 .591-.32.591-.716 0-.396-.265-.717-.591-.717zm-1.518-10.582c-.012-.001-1.1.044-1.394-1.133.397-.312.73-.746.969-1.265a.535.535 0 00.475-.202c.498-.641.758-1.474.73-2.344-.058-1.804-1.313-3.227-2.86-3.244h-.11l-.003.001a2.714 2.714 0 00-1.178-.226c-.87.028-1.67.46-2.25 1.215-.556.725-.844 1.667-.813 2.654.006.167.019.32.04.466.058.42.173.823.344 1.198a.535.535 0 00.612.297c.242.6.608 1.099 1.05 1.447-.288 1.175-1.382 1.135-1.394 1.136-1.17.038-2.109 1-2.109 2.179v2.166c0 .295.24.535.535.535h8.93c.296 0 .535-.24.535-.535v-2.166c0-1.179-.94-2.141-2.109-2.18zM8.563 8.236a3.127 3.127 0 01-.037-.4c-.023-.741.187-1.44.593-1.968.381-.497.891-.78 1.436-.797.018-.001.445-.035.805.178a.48.48 0 00.254.055l.18-.008c.958.006 1.77.997 1.808 2.208.005.139-.001.276-.016.41a3.176 3.176 0 00-1.506-1.341.535.535 0 00-.709.307 2.26 2.26 0 01-.149.324c-.14.251-.428.4-.75.389a2.863 2.863 0 00-1.103.178c-.291.11-.562.266-.806.465zm.746.776c.135-.1.284-.174.436-.24.276-.118.65-.111.69-.11.69.024 1.318-.299 1.668-.848.273.21.499.49.656.825-.166 1.2-.913 2.113-1.76 2.113-.757 0-1.436-.715-1.69-1.74zm1.175 2.75a2.234 2.234 0 001.032 0 2.46 2.46 0 001.009 1.325A1.626 1.626 0 0111 14.157c-.693 0-1.296-.44-1.525-1.069a2.46 2.46 0 001.01-1.325zM7.07 16.224v-1.631c0-.613.498-1.111 1.111-1.111.013 0 .208-.012.291-.023A2.699 2.699 0 0011 15.226a2.699 2.699 0 002.528-1.767c.083.011.278.023.29.023.614 0 1.112.498 1.112 1.11v1.632H7.07z" fill="#29006C"/><path d="M19.936 0H2.064C.926 0 0 .964 0 2.15v23.7C0 27.036.926 28 2.064 28h17.872C21.074 28 22 27.036 22 25.85V2.15C22 .964 21.074 0 19.936 0zm.688 25.85c0 .395-.308.717-.688.717H2.064c-.38 0-.688-.322-.688-.717V2.15c0-.395.308-.717.688-.717h17.872c.38 0 .688.322.688.717v23.7z" fill="#29006C"/></svg>