<svg width="21" height="24" fill="none" xmlns="http://www.w3.org/2000/svg"><path d="M18.922 1H2.302C1.584 1 1 1.584 1 2.302v19.396C1 22.416 1.584 23 2.302 23h16.62c.718 0 1.302-.584 1.302-1.302V2.302c0-.718-.584-1.302-1.302-1.302zM2.042 2.302a.26.26 0 01.26-.26h16.62a.26.26 0 01.26.26v4.516H2.043V2.302zM7.06 21.958H2.302a.26.26 0 01-.26-.26v-6.27H7.06v6.53zm0-7.571H2.04V7.86h5.02v6.527zm6.06 7.571H8.104v-6.53h5.019v6.53zm0-7.571H8.104V7.86h5.019v6.527zm6.062 7.31a.26.26 0 01-.26.261h-4.76V7.86h5.02v13.838z" fill="#BFC0C4"/><path d="M5.84 10.603h-.768v-.767a.52.52 0 10-1.042 0v.767h-.767a.52.52 0 100 1.042h.767v.767a.521.521 0 101.042 0v-.767h.767a.521.521 0 000-1.042zm6.086 0H9.298a.52.52 0 100 1.042h2.628a.521.521 0 000-1.042zm-6.638 8.092l.629-.63a.521.521 0 00-.737-.736l-.629.629-.629-.629a.521.521 0 00-.736.737l.628.629-.628.629a.521.521 0 00.736.736l.63-.628.628.628a.52.52 0 00.737 0 .521.521 0 000-.736l-.629-.63zm6.69-1.365a.521.521 0 00-.737 0l-1.995 1.994a.521.521 0 00.737.736l1.995-1.994a.521.521 0 000-.737zm-2.363.812a.444.444 0 100-.889.444.444 0 000 .89zm1.995 1.994a.444.444 0 100-.888.444.444 0 000 .888zm6.38-6.656h-2.664a.521.521 0 100 1.041h2.663a.521.521 0 000-1.042zm0 1.817h-2.664a.521.521 0 000 1.042h2.663a.521.521 0 000-1.042z" fill="#BFC0C4"/><path d="M18.922 1H2.302C1.584 1 1 1.584 1 2.302v19.396C1 22.416 1.584 23 2.302 23h16.62c.718 0 1.302-.584 1.302-1.302V2.302c0-.718-.584-1.302-1.302-1.302zM2.042 2.302a.26.26 0 01.26-.26h16.62a.26.26 0 01.26.26v4.516H2.043V2.302zM7.06 21.958H2.302a.26.26 0 01-.26-.26v-6.27H7.06v6.53zm0-7.571H2.04V7.86h5.02v6.527zm6.06 7.571H8.104v-6.53h5.019v6.53zm0-7.571H8.104V7.86h5.019v6.527zm6.062 7.31a.26.26 0 01-.26.261h-4.76V7.86h5.02v13.838z" stroke="#BFC0C4" stroke-width=".2"/><path d="M5.84 10.603h-.768v-.767a.52.52 0 10-1.042 0v.767h-.767a.52.52 0 100 1.042h.767v.767a.521.521 0 101.042 0v-.767h.767a.521.521 0 000-1.042zm6.086 0H9.298a.52.52 0 100 1.042h2.628a.521.521 0 000-1.042zm-6.638 8.092l.629-.63a.521.521 0 00-.737-.736l-.629.629-.629-.629a.521.521 0 00-.736.737l.628.629-.628.629a.521.521 0 00.736.736l.63-.628.628.628a.52.52 0 00.737 0 .521.521 0 000-.736l-.629-.63zm6.69-1.365a.521.521 0 00-.737 0l-1.995 1.994a.521.521 0 00.737.736l1.995-1.994a.521.521 0 000-.737zm-2.363.812a.444.444 0 100-.889.444.444 0 000 .89zm1.995 1.994a.444.444 0 100-.888.444.444 0 000 .888zm6.38-6.656h-2.664a.521.521 0 100 1.041h2.663a.521.521 0 000-1.042zm0 1.817h-2.664a.521.521 0 000 1.042h2.663a.521.521 0 000-1.042z" stroke="#BFC0C4" stroke-width=".2"/></svg>