<svg width="19" height="26" fill="none" xmlns="http://www.w3.org/2000/svg"><path d="M11 1H3c-1.103 0-2 .897-2 2v14.4c0 1.103.897 2 2 2h7.2v-.8H3c-.662 0-1.2-.538-1.2-1.2V3c0-.662.538-1.2 1.2-1.2h8c.662 0 1.2.538 1.2 1.2v11.6h.8V3c0-1.103-.897-2-2-2z" fill="#BFC0C4"/><path d="M16.836 11.654L12.912 6.75l-.625.5 3.924 4.904c.51.636.79 1.435.789 2.25V24.2h-5.852A3.752 3.752 0 017.4 20.452V19h-.8v1.452A4.553 4.553 0 0011.148 25H17.4a.4.4 0 00.4-.4V14.404c0-.995-.341-1.972-.964-2.75z" fill="#BFC0C4"/><path d="M7.798 10.433c.281.008.542.125.735.33l5.376 5.711.582-.548-5.376-5.713a1.84 1.84 0 00-1.294-.58c-.5-.016-.965.166-1.32.502l-.04.039a1.847 1.847 0 00-.106 2.505L9.8 16.746v1.237a5.35 5.35 0 003.46 4.99l.28-.748a4.549 4.549 0 01-2.94-4.242V16.6a.402.402 0 00-.095-.259l-3.539-4.179c-.354-.421-.328-1.034.08-1.442a1.07 1.07 0 01.752-.287z" fill="#BFC0C4"/><path d="M10.6 1.8h-.8v10h.8v-10zm-2 12.4h-.8V19h.8v-4.8zm0-12.8h-.8v8.8h.8V1.4zM5.8 14.2H3.4a.4.4 0 00-.4.4V17c0 .221.18.4.4.4h2.4a.4.4 0 00.4-.4v-2.4a.4.4 0 00-.4-.4zm-.4 2.4H3.8V15h1.6v1.6z" fill="#BFC0C4"/><path d="M11 1H3c-1.103 0-2 .897-2 2v14.4c0 1.103.897 2 2 2h7.2v-.8H3c-.662 0-1.2-.538-1.2-1.2V3c0-.662.538-1.2 1.2-1.2h8c.662 0 1.2.538 1.2 1.2v11.6h.8V3c0-1.103-.897-2-2-2z" stroke="#BFC0C4" stroke-width=".5"/><path d="M16.836 11.654L12.912 6.75l-.625.5 3.924 4.904c.51.636.79 1.435.789 2.25V24.2h-5.852A3.752 3.752 0 017.4 20.452V19h-.8v1.452A4.553 4.553 0 0011.148 25H17.4a.4.4 0 00.4-.4V14.404c0-.995-.341-1.972-.964-2.75z" stroke="#BFC0C4" stroke-width=".5"/><path d="M7.798 10.433c.281.008.542.125.735.33l5.376 5.711.582-.548-5.376-5.713a1.84 1.84 0 00-1.294-.58c-.5-.016-.965.166-1.32.502l-.04.039a1.847 1.847 0 00-.106 2.505L9.8 16.746v1.237a5.35 5.35 0 003.46 4.99l.28-.748a4.549 4.549 0 01-2.94-4.242V16.6a.402.402 0 00-.095-.259l-3.539-4.179c-.354-.421-.328-1.034.08-1.442a1.07 1.07 0 01.752-.287z" stroke="#BFC0C4" stroke-width=".5"/><path d="M10.6 1.8h-.8v10h.8v-10zm-2 12.4h-.8V19h.8v-4.8zm0-12.8h-.8v8.8h.8V1.4zM5.8 14.2H3.4a.4.4 0 00-.4.4V17c0 .221.18.4.4.4h2.4a.4.4 0 00.4-.4v-2.4a.4.4 0 00-.4-.4zm-.4 2.4H3.8V15h1.6v1.6z" stroke="#BFC0C4" stroke-width=".5"/></svg>