<svg display="none" xmlns="http://www.w3.org/2000/svg">
 <symbol id="menu__icon1" viewBox="0 0 21 22" >
  <g>
  <path d="M20.942 3.20509C20.942 2.11856 19.8198 1.3099 17.5112 0.732745C15.6211 0.260225 13.1209 0 10.471 0C7.82127 0 5.32094 0.260225 3.43086 0.732745C1.12225 1.3099 0 2.11856 0 3.20509C0 3.60713 0.15413 3.97105 0.464688 4.29936L7.59112 12.9433V21.2168C7.59112 21.4878 7.73115 21.7395 7.96141 21.8823C8.08745 21.9605 8.23062 22 8.3743 22C8.49314 22 8.61218 21.973 8.72214 21.9186L12.9069 19.8444C13.1732 19.7124 13.3419 19.441 13.3423 19.1437L13.3503 12.9438L20.4777 4.29883C20.7881 3.97063 20.942 3.60702 20.942 3.20509ZM4.16381 2.16858C5.88963 1.78022 8.12953 1.56636 10.471 1.56636C12.8125 1.56636 15.0525 1.78022 16.7782 2.16858C18.6839 2.59745 19.2196 3.05838 19.3477 3.20509C19.2195 3.35181 18.6839 3.81274 16.7782 4.24161C15.0525 4.62996 12.8124 4.84382 10.471 4.84382C8.12964 4.84382 5.88963 4.62996 4.16381 4.24171C2.25817 3.81284 1.72237 3.35191 1.59425 3.2052C1.72237 3.05838 2.25817 2.59745 4.16381 2.16858ZM11.9634 12.164C11.848 12.304 11.7847 12.4796 11.7845 12.6611L11.7767 18.6564L9.15759 19.9546V12.6622C9.15759 12.4804 9.09441 12.3042 8.97871 12.164L3.67991 5.73686C5.53804 6.17147 7.93541 6.41029 10.471 6.41029C13.0068 6.41029 15.404 6.17147 17.2622 5.73686L11.9634 12.164Z" fill="#BFC0C4"/>
  </g>
  
   <symbol id="menu__icon2" viewBox="0 0 22 28" >
  <g>
<path d="M15.4089 20H6.59108C6.26463 20 6 20.3209 6 20.7166C6 21.1124 6.26463 21.4332 6.59108 21.4332H15.4089C15.7354 21.4332 16 21.1124 16 20.7166C16 20.3209 15.7354 20 15.4089 20Z" fill="#29006C"/>
<path d="M15.4089 22.9962H6.59108C6.26463 22.9962 6 23.3171 6 23.7129C6 24.1086 6.26463 24.4295 6.59108 24.4295H15.4089C15.7354 24.4295 16 24.1086 16 23.7129C16 23.3171 15.7354 22.9962 15.4089 22.9962Z" fill="#29006C"/>
<path d="M13.891 12.4135C13.879 12.4127 12.7912 12.458 12.4974 11.2813C12.8944 10.9688 13.2275 10.5347 13.4655 10.0161C13.4831 10.0179 13.5008 10.0201 13.5182 10.0201C13.6803 10.02 13.8372 9.94622 13.9403 9.81375C14.4394 9.17271 14.699 8.34037 14.6712 7.47004C14.6134 5.66563 13.3581 4.24316 11.8111 4.22643C11.7688 4.22473 11.7312 4.22582 11.7007 4.22692L11.6985 4.22697C11.3232 4.06432 10.9278 3.98811 10.5203 4.0015C9.64929 4.02933 8.85008 4.46081 8.27011 5.21649C7.71437 5.94052 7.42564 6.88264 7.45719 7.86959C7.46255 8.03656 7.47578 8.19052 7.49699 8.33638C7.55456 8.7566 7.67047 9.15942 7.84148 9.53355C7.92365 9.71337 8.09839 9.83326 8.29587 9.84507C8.34961 9.84852 8.40237 9.843 8.4531 9.8308C8.69514 10.4307 9.06084 10.9299 9.50315 11.2785C9.21519 12.4533 8.12102 12.4129 8.10905 12.4136C6.93966 12.4519 6 13.4144 6 14.5929V16.7587C6 17.0541 6.23947 17.2936 6.53492 17.2936H15.4651C15.7605 17.2936 16 17.0541 16 16.7587V14.5929C16.0001 13.4143 15.0603 12.4518 13.891 12.4135ZM8.56349 8.23573C8.56103 8.21938 8.55868 8.20293 8.55638 8.18647C8.54042 8.07647 8.53063 7.96149 8.52658 7.83514C8.50286 7.09477 8.71318 6.39611 9.11885 5.86775C9.50003 5.37105 10.0101 5.08801 10.5547 5.07057C10.5727 5.06997 11.0001 5.03613 11.3597 5.24864C11.435 5.29314 11.5272 5.30643 11.6142 5.3043C11.6252 5.30402 11.7855 5.29593 11.7936 5.29599C12.752 5.30227 13.5634 6.29283 13.6021 7.5041C13.6065 7.64286 13.601 7.77998 13.5859 7.91409C13.2319 7.30646 12.706 6.83595 12.0802 6.57281C11.9458 6.51633 11.794 6.51715 11.6601 6.57516C11.5263 6.63322 11.4219 6.7435 11.3713 6.88034C11.33 6.99198 11.2798 7.10078 11.2223 7.20384C11.0818 7.45501 10.7945 7.60311 10.4724 7.593C10.4083 7.59081 10.3436 7.5907 10.2799 7.59273C9.96644 7.60279 9.66077 7.66254 9.3692 7.77118C9.07796 7.88118 8.80727 8.03732 8.56349 8.23573ZM9.30895 9.01214C9.44448 8.91198 9.59341 8.83789 9.74502 8.77294C10.0214 8.65441 10.395 8.66087 10.4354 8.66229C11.1244 8.68569 11.7534 8.36328 12.1034 7.81404C12.3764 8.02316 12.6018 8.30484 12.759 8.63861C12.5933 9.83906 11.8462 10.7523 10.9985 10.7523C10.2422 10.7523 9.56334 10.0369 9.30895 9.01214ZM10.4844 11.7618C10.6518 11.8013 10.8236 11.8221 10.9985 11.8221C11.175 11.8221 11.3479 11.8011 11.5159 11.762C11.6882 12.3124 12.0503 12.7796 12.5248 13.0875C12.2966 13.7155 11.6928 14.1557 11.0001 14.1557C10.3073 14.1557 9.70358 13.7155 9.47532 13.0874C9.94988 12.7795 10.312 12.3123 10.4844 11.7618ZM7.06989 16.2237V14.5928C7.06989 13.98 7.56845 13.4815 8.18127 13.4815C8.19352 13.4815 8.38865 13.4703 8.47224 13.459C8.85309 14.4979 9.85311 15.2256 11 15.2256C12.1469 15.2256 13.147 14.4979 13.5278 13.459C13.6115 13.4703 13.8065 13.4815 13.8187 13.4815C14.4316 13.4815 14.9301 13.9801 14.9301 14.5928V16.2237H7.06989Z" fill="#29006C"/>
<path d="M19.9363 0H2.06369C0.925786 0 0 0.964403 0 2.14977V25.8502C0 27.0356 0.925786 28 2.06369 28H19.9363C21.0742 28 22 27.0356 22 25.8502V2.14977C22 0.964403 21.0742 0 19.9363 0ZM20.6242 25.8502C20.6242 26.2453 20.3156 26.5668 19.9363 26.5668H2.06369C1.68439 26.5668 1.37577 26.2453 1.37577 25.8502V2.1497C1.37577 1.75458 1.68439 1.43309 2.06369 1.43309H19.9363C20.3156 1.43309 20.6242 1.75458 20.6242 2.1497V25.8502Z" fill="#29006C"/>
  </g>
 </symbol>

    <symbol id="menu__icon2" viewBox="0 0 22 28" >
  <g>
<path d="M15.4089 20H6.59108C6.26463 20 6 20.3209 6 20.7166C6 21.1124 6.26463 21.4332 6.59108 21.4332H15.4089C15.7354 21.4332 16 21.1124 16 20.7166C16 20.3209 15.7354 20 15.4089 20Z" fill="#29006C"/>
<path d="M15.4089 22.9962H6.59108C6.26463 22.9962 6 23.3171 6 23.7129C6 24.1086 6.26463 24.4295 6.59108 24.4295H15.4089C15.7354 24.4295 16 24.1086 16 23.7129C16 23.3171 15.7354 22.9962 15.4089 22.9962Z" fill="#29006C"/>
<path d="M13.891 12.4135C13.879 12.4127 12.7912 12.458 12.4974 11.2813C12.8944 10.9688 13.2275 10.5347 13.4655 10.0161C13.4831 10.0179 13.5008 10.0201 13.5182 10.0201C13.6803 10.02 13.8372 9.94622 13.9403 9.81375C14.4394 9.17271 14.699 8.34037 14.6712 7.47004C14.6134 5.66563 13.3581 4.24316 11.8111 4.22643C11.7688 4.22473 11.7312 4.22582 11.7007 4.22692L11.6985 4.22697C11.3232 4.06432 10.9278 3.98811 10.5203 4.0015C9.64929 4.02933 8.85008 4.46081 8.27011 5.21649C7.71437 5.94052 7.42564 6.88264 7.45719 7.86959C7.46255 8.03656 7.47578 8.19052 7.49699 8.33638C7.55456 8.7566 7.67047 9.15942 7.84148 9.53355C7.92365 9.71337 8.09839 9.83326 8.29587 9.84507C8.34961 9.84852 8.40237 9.843 8.4531 9.8308C8.69514 10.4307 9.06084 10.9299 9.50315 11.2785C9.21519 12.4533 8.12102 12.4129 8.10905 12.4136C6.93966 12.4519 6 13.4144 6 14.5929V16.7587C6 17.0541 6.23947 17.2936 6.53492 17.2936H15.4651C15.7605 17.2936 16 17.0541 16 16.7587V14.5929C16.0001 13.4143 15.0603 12.4518 13.891 12.4135ZM8.56349 8.23573C8.56103 8.21938 8.55868 8.20293 8.55638 8.18647C8.54042 8.07647 8.53063 7.96149 8.52658 7.83514C8.50286 7.09477 8.71318 6.39611 9.11885 5.86775C9.50003 5.37105 10.0101 5.08801 10.5547 5.07057C10.5727 5.06997 11.0001 5.03613 11.3597 5.24864C11.435 5.29314 11.5272 5.30643 11.6142 5.3043C11.6252 5.30402 11.7855 5.29593 11.7936 5.29599C12.752 5.30227 13.5634 6.29283 13.6021 7.5041C13.6065 7.64286 13.601 7.77998 13.5859 7.91409C13.2319 7.30646 12.706 6.83595 12.0802 6.57281C11.9458 6.51633 11.794 6.51715 11.6601 6.57516C11.5263 6.63322 11.4219 6.7435 11.3713 6.88034C11.33 6.99198 11.2798 7.10078 11.2223 7.20384C11.0818 7.45501 10.7945 7.60311 10.4724 7.593C10.4083 7.59081 10.3436 7.5907 10.2799 7.59273C9.96644 7.60279 9.66077 7.66254 9.3692 7.77118C9.07796 7.88118 8.80727 8.03732 8.56349 8.23573ZM9.30895 9.01214C9.44448 8.91198 9.59341 8.83789 9.74502 8.77294C10.0214 8.65441 10.395 8.66087 10.4354 8.66229C11.1244 8.68569 11.7534 8.36328 12.1034 7.81404C12.3764 8.02316 12.6018 8.30484 12.759 8.63861C12.5933 9.83906 11.8462 10.7523 10.9985 10.7523C10.2422 10.7523 9.56334 10.0369 9.30895 9.01214ZM10.4844 11.7618C10.6518 11.8013 10.8236 11.8221 10.9985 11.8221C11.175 11.8221 11.3479 11.8011 11.5159 11.762C11.6882 12.3124 12.0503 12.7796 12.5248 13.0875C12.2966 13.7155 11.6928 14.1557 11.0001 14.1557C10.3073 14.1557 9.70358 13.7155 9.47532 13.0874C9.94988 12.7795 10.312 12.3123 10.4844 11.7618ZM7.06989 16.2237V14.5928C7.06989 13.98 7.56845 13.4815 8.18127 13.4815C8.19352 13.4815 8.38865 13.4703 8.47224 13.459C8.85309 14.4979 9.85311 15.2256 11 15.2256C12.1469 15.2256 13.147 14.4979 13.5278 13.459C13.6115 13.4703 13.8065 13.4815 13.8187 13.4815C14.4316 13.4815 14.9301 13.9801 14.9301 14.5928V16.2237H7.06989Z" fill="#29006C"/>
<path d="M19.9363 0H2.06369C0.925786 0 0 0.964403 0 2.14977V25.8502C0 27.0356 0.925786 28 2.06369 28H19.9363C21.0742 28 22 27.0356 22 25.8502V2.14977C22 0.964403 21.0742 0 19.9363 0ZM20.6242 25.8502C20.6242 26.2453 20.3156 26.5668 19.9363 26.5668H2.06369C1.68439 26.5668 1.37577 26.2453 1.37577 25.8502V2.1497C1.37577 1.75458 1.68439 1.43309 2.06369 1.43309H19.9363C20.3156 1.43309 20.6242 1.75458 20.6242 2.1497V25.8502Z" fill="#29006C"/>
  </g>
 </symbol>
 
    <symbol id="menu__icon3" viewBox="0 0 19 26" >
  <g>
<path d="M11 1H3.00002C1.89719 1 1 1.89719 1 3.00002V17.4C1 18.5028 1.89719 19.4001 3.00002 19.4001H10.2V18.6001H3.00002C2.33842 18.6001 1.80002 18.0616 1.80002 17.4V3.00002C1.80002 2.33842 2.33842 1.80002 3.00002 1.80002H11C11.6616 1.80002 12.2 2.33842 12.2 3.00002V14.6001H13V3.00002C13 1.89719 12.1028 1 11 1Z" fill="#BFC0C4"/>
<path d="M16.8364 11.6544L12.9124 6.75035L12.2872 7.25037L16.2112 12.154C16.7204 12.79 17.0004 13.5892 17 14.404V24.2H11.148C9.08165 24.2 7.40006 22.5188 7.40006 20.452V19H6.60004V20.452C6.60004 22.9596 8.64046 25 11.148 25H17.4C17.6213 25 17.8 24.8212 17.8 24.6V14.4044C17.8005 13.4092 17.4585 12.4324 16.8364 11.6544Z" fill="#BFC0C4"/>
<path d="M7.79844 10.4333C8.07922 10.4413 8.34046 10.5581 8.53283 10.7621L13.9085 16.4741L14.4913 15.9257L9.11483 10.2133C8.77522 9.85367 8.31561 9.64771 7.82122 9.63369C7.32162 9.61691 6.85644 9.79888 6.50121 10.1345C6.49681 10.1389 6.46479 10.1693 6.46081 10.1737C5.77723 10.8593 5.7312 11.9353 6.35482 12.6785L9.80006 16.7465V17.9841C9.79963 20.1945 11.1897 22.1997 13.2597 22.9749L13.5405 22.2257C11.7812 21.5669 10.5997 19.8625 10.6 17.9841V16.6001C10.6 16.5057 10.5664 16.4137 10.5052 16.3413L6.96645 12.1625C6.61245 11.7409 6.63847 11.1285 7.04647 10.7201C7.25042 10.5273 7.51681 10.4317 7.79844 10.4333Z" fill="#BFC0C4"/>
<path d="M10.6 1.80013H9.80002V11.8001H10.6V1.80013Z" fill="#BFC0C4"/>
<path d="M8.60003 14.1999H7.80001V18.9999H8.60003V14.1999Z" fill="#BFC0C4"/>
<path d="M8.60003 1.40003H7.80001V10.2H8.60003V1.40003Z" fill="#BFC0C4"/>
<path d="M5.80002 14.1999H3.40001C3.17923 14.1999 3.00003 14.3787 3.00003 14.5999V16.9999C3.00003 17.2211 3.17923 17.3999 3.40001 17.3999H5.80002C6.02081 17.3999 6.20001 17.2211 6.20001 16.9999V14.5999C6.20001 14.3787 6.02081 14.1999 5.80002 14.1999ZM5.40004 16.5999H3.80005V14.9999H5.40004V16.5999Z" fill="#BFC0C4"/>
<path d="M11 1H3.00002C1.89719 1 1 1.89719 1 3.00002V17.4C1 18.5028 1.89719 19.4001 3.00002 19.4001H10.2V18.6001H3.00002C2.33842 18.6001 1.80002 18.0616 1.80002 17.4V3.00002C1.80002 2.33842 2.33842 1.80002 3.00002 1.80002H11C11.6616 1.80002 12.2 2.33842 12.2 3.00002V14.6001H13V3.00002C13 1.89719 12.1028 1 11 1Z" stroke="#BFC0C4" stroke-width="0.5"/>
<path d="M16.8364 11.6544L12.9124 6.75035L12.2872 7.25037L16.2112 12.154C16.7204 12.79 17.0004 13.5892 17 14.404V24.2H11.148C9.08165 24.2 7.40006 22.5188 7.40006 20.452V19H6.60004V20.452C6.60004 22.9596 8.64046 25 11.148 25H17.4C17.6213 25 17.8 24.8212 17.8 24.6V14.4044C17.8005 13.4092 17.4585 12.4324 16.8364 11.6544Z" stroke="#BFC0C4" stroke-width="0.5"/>
<path d="M7.79844 10.4333C8.07922 10.4413 8.34046 10.5581 8.53283 10.7621L13.9085 16.4741L14.4913 15.9257L9.11483 10.2133C8.77522 9.85367 8.31561 9.64771 7.82122 9.63369C7.32162 9.61691 6.85644 9.79888 6.50121 10.1345C6.49681 10.1389 6.46479 10.1693 6.46081 10.1737C5.77723 10.8593 5.7312 11.9353 6.35482 12.6785L9.80006 16.7465V17.9841C9.79963 20.1945 11.1897 22.1997 13.2597 22.9749L13.5405 22.2257C11.7812 21.5669 10.5997 19.8625 10.6 17.9841V16.6001C10.6 16.5057 10.5664 16.4137 10.5052 16.3413L6.96645 12.1625C6.61245 11.7409 6.63847 11.1285 7.04647 10.7201C7.25042 10.5273 7.51681 10.4317 7.79844 10.4333Z" stroke="#BFC0C4" stroke-width="0.5"/>
<path d="M10.6 1.80013H9.80002V11.8001H10.6V1.80013Z" stroke="#BFC0C4" stroke-width="0.5"/>
<path d="M8.60003 14.1999H7.80001V18.9999H8.60003V14.1999Z" stroke="#BFC0C4" stroke-width="0.5"/>
<path d="M8.60003 1.40003H7.80001V10.2H8.60003V1.40003Z" stroke="#BFC0C4" stroke-width="0.5"/>
<path d="M5.80002 14.1999H3.40001C3.17923 14.1999 3.00003 14.3787 3.00003 14.5999V16.9999C3.00003 17.2211 3.17923 17.3999 3.40001 17.3999H5.80002C6.02081 17.3999 6.20001 17.2211 6.20001 16.9999V14.5999C6.20001 14.3787 6.02081 14.1999 5.80002 14.1999ZM5.40004 16.5999H3.80005V14.9999H5.40004V16.5999Z" stroke="#BFC0C4" stroke-width="0.5"/>
  </g>
 </symbol>

     <symbol id="menu__icon4" viewBox="0 0 21 24" >
  <g>
<path d="M18.9221 1H2.30234C1.5842 1 1 1.58425 1 2.30234V21.6976C1 22.4158 1.58425 23 2.30234 23H18.9221C19.6402 23 20.2244 22.4157 20.2244 21.6976V2.30234C20.2244 1.58425 19.6402 1 18.9221 1ZM2.04186 2.30234C2.04186 2.15874 2.1587 2.04186 2.30234 2.04186H18.9221C19.0657 2.04186 19.1825 2.1587 19.1825 2.30234V6.81836H2.04186V2.30234ZM7.06083 21.9581H2.30234C2.15874 21.9581 2.04186 21.8412 2.04186 21.6976V15.4287H7.06083V21.9581ZM7.06083 14.3869H2.04186V7.86026H7.06083V14.3869ZM13.1217 21.9581H8.10269V15.4287H13.1217V21.9581ZM13.1217 14.3869H8.10269V7.86026H13.1217V14.3869ZM19.1825 21.6976C19.1825 21.8412 19.0656 21.9581 18.9221 21.9581H14.1635V7.86026H19.1825V21.6976Z" fill="#BFC0C4"/>
<path d="M5.83924 10.6027H5.07225V9.83566C5.07225 9.54795 4.83902 9.31471 4.5513 9.31471C4.26358 9.31471 4.03035 9.54795 4.03035 9.83566V10.6027H3.26335C2.97563 10.6027 2.7424 10.8359 2.7424 11.1236C2.7424 11.4113 2.97563 11.6446 3.26335 11.6446H4.03035V12.4116C4.03035 12.6993 4.26358 12.9326 4.5513 12.9326C4.83902 12.9326 5.07225 12.6993 5.07225 12.4116V11.6446H5.83924C6.12696 11.6446 6.3602 11.4113 6.3602 11.1236C6.3602 10.8359 6.12696 10.6027 5.83924 10.6027Z" fill="#BFC0C4"/>
<path d="M11.9259 10.6027H9.29844C9.01072 10.6027 8.77749 10.8359 8.77749 11.1236C8.77749 11.4113 9.01072 11.6446 9.29844 11.6446H11.9259C12.2135 11.6446 12.4468 11.4113 12.4468 11.1236C12.4468 10.8359 12.2135 10.6027 11.9259 10.6027Z" fill="#BFC0C4"/>
<path d="M5.28802 18.6948L5.91687 18.0659C6.12028 17.8625 6.12028 17.5327 5.91687 17.3292C5.71345 17.1258 5.38358 17.1258 5.18008 17.3292L4.55123 17.958L3.92239 17.3292C3.71897 17.1258 3.3891 17.1258 3.1856 17.3292C2.98219 17.5326 2.98219 17.8624 3.1856 18.0659L3.81449 18.6948L3.18564 19.3236C2.98223 19.5271 2.98223 19.8569 3.18564 20.0603C3.28739 20.1621 3.42068 20.2129 3.55401 20.2129C3.6873 20.2129 3.82068 20.1621 3.92239 20.0603L4.55123 19.4315L5.18008 20.0603C5.28183 20.1621 5.41512 20.2129 5.54845 20.2129C5.68179 20.2129 5.81512 20.1621 5.91682 20.0603C6.12024 19.8569 6.12024 19.5271 5.91682 19.3236L5.28802 18.6948Z" fill="#BFC0C4"/>
<path d="M11.9776 17.3292C11.7741 17.1258 11.4444 17.1258 11.2408 17.3292L9.24637 19.3236C9.04299 19.5271 9.04299 19.8569 9.24641 20.0604C9.34816 20.1621 9.48145 20.213 9.61478 20.213C9.74811 20.213 9.88145 20.1621 9.98315 20.0604L11.9776 18.066C12.181 17.8625 12.181 17.5327 11.9776 17.3292Z" fill="#BFC0C4"/>
<path d="M9.61468 18.1421C9.8601 18.1421 10.0591 17.9431 10.0591 17.6977C10.0591 17.4523 9.8601 17.2533 9.61468 17.2533C9.36925 17.2533 9.1703 17.4523 9.1703 17.6977C9.1703 17.9431 9.36925 18.1421 9.61468 18.1421Z" fill="#BFC0C4"/>
<path d="M11.6094 20.1362C11.8548 20.1362 12.0537 19.9373 12.0537 19.6919C12.0537 19.4465 11.8548 19.2476 11.6094 19.2476C11.364 19.2476 11.1651 19.4465 11.1651 19.6919C11.1651 19.9373 11.364 20.1362 11.6094 20.1362Z" fill="#BFC0C4"/>
<path d="M17.9892 13.4791H15.3264C15.0387 13.4791 14.8054 13.7123 14.8054 14.0001C14.8054 14.2877 15.0387 14.521 15.3264 14.521H17.9892C18.2769 14.521 18.5102 14.2877 18.5102 14.0001C18.5102 13.7123 18.2769 13.4791 17.9892 13.4791Z" fill="#BFC0C4"/>
<path d="M17.9892 15.2974H15.3264C15.0387 15.2974 14.8054 15.5307 14.8054 15.8183C14.8054 16.106 15.0387 16.3393 15.3264 16.3393H17.9892C18.2769 16.3393 18.5102 16.106 18.5102 15.8183C18.5102 15.5307 18.2769 15.2974 17.9892 15.2974Z" fill="#BFC0C4"/>
<path d="M18.9221 1H2.30234C1.5842 1 1 1.58425 1 2.30234V21.6976C1 22.4158 1.58425 23 2.30234 23H18.9221C19.6402 23 20.2244 22.4157 20.2244 21.6976V2.30234C20.2244 1.58425 19.6402 1 18.9221 1ZM2.04186 2.30234C2.04186 2.15874 2.1587 2.04186 2.30234 2.04186H18.9221C19.0657 2.04186 19.1825 2.1587 19.1825 2.30234V6.81836H2.04186V2.30234ZM7.06083 21.9581H2.30234C2.15874 21.9581 2.04186 21.8412 2.04186 21.6976V15.4287H7.06083V21.9581ZM7.06083 14.3869H2.04186V7.86026H7.06083V14.3869ZM13.1217 21.9581H8.10269V15.4287H13.1217V21.9581ZM13.1217 14.3869H8.10269V7.86026H13.1217V14.3869ZM19.1825 21.6976C19.1825 21.8412 19.0656 21.9581 18.9221 21.9581H14.1635V7.86026H19.1825V21.6976Z" stroke="#BFC0C4" stroke-width="0.2"/>
<path d="M5.83924 10.6027H5.07225V9.83566C5.07225 9.54795 4.83902 9.31471 4.5513 9.31471C4.26358 9.31471 4.03035 9.54795 4.03035 9.83566V10.6027H3.26335C2.97563 10.6027 2.7424 10.8359 2.7424 11.1236C2.7424 11.4113 2.97563 11.6446 3.26335 11.6446H4.03035V12.4116C4.03035 12.6993 4.26358 12.9326 4.5513 12.9326C4.83902 12.9326 5.07225 12.6993 5.07225 12.4116V11.6446H5.83924C6.12696 11.6446 6.3602 11.4113 6.3602 11.1236C6.3602 10.8359 6.12696 10.6027 5.83924 10.6027Z" stroke="#BFC0C4" stroke-width="0.2"/>
<path d="M11.9259 10.6027H9.29844C9.01072 10.6027 8.77749 10.8359 8.77749 11.1236C8.77749 11.4113 9.01072 11.6446 9.29844 11.6446H11.9259C12.2135 11.6446 12.4468 11.4113 12.4468 11.1236C12.4468 10.8359 12.2135 10.6027 11.9259 10.6027Z" stroke="#BFC0C4" stroke-width="0.2"/>
<path d="M5.28802 18.6948L5.91687 18.0659C6.12028 17.8625 6.12028 17.5327 5.91687 17.3292C5.71345 17.1258 5.38358 17.1258 5.18008 17.3292L4.55123 17.958L3.92239 17.3292C3.71897 17.1258 3.3891 17.1258 3.1856 17.3292C2.98219 17.5326 2.98219 17.8624 3.1856 18.0659L3.81449 18.6948L3.18564 19.3236C2.98223 19.5271 2.98223 19.8569 3.18564 20.0603C3.28739 20.1621 3.42068 20.2129 3.55401 20.2129C3.6873 20.2129 3.82068 20.1621 3.92239 20.0603L4.55123 19.4315L5.18008 20.0603C5.28183 20.1621 5.41512 20.2129 5.54845 20.2129C5.68179 20.2129 5.81512 20.1621 5.91682 20.0603C6.12024 19.8569 6.12024 19.5271 5.91682 19.3236L5.28802 18.6948Z" stroke="#BFC0C4" stroke-width="0.2"/>
<path d="M11.9776 17.3292C11.7741 17.1258 11.4444 17.1258 11.2408 17.3292L9.24637 19.3236C9.04299 19.5271 9.04299 19.8569 9.24641 20.0604C9.34816 20.1621 9.48145 20.213 9.61478 20.213C9.74811 20.213 9.88145 20.1621 9.98315 20.0604L11.9776 18.066C12.181 17.8625 12.181 17.5327 11.9776 17.3292Z" stroke="#BFC0C4" stroke-width="0.2"/>
<path d="M9.61468 18.1421C9.8601 18.1421 10.0591 17.9431 10.0591 17.6977C10.0591 17.4523 9.8601 17.2533 9.61468 17.2533C9.36925 17.2533 9.1703 17.4523 9.1703 17.6977C9.1703 17.9431 9.36925 18.1421 9.61468 18.1421Z" stroke="#BFC0C4" stroke-width="0.2"/>
<path d="M11.6094 20.1362C11.8548 20.1362 12.0537 19.9373 12.0537 19.6919C12.0537 19.4465 11.8548 19.2476 11.6094 19.2476C11.364 19.2476 11.1651 19.4465 11.1651 19.6919C11.1651 19.9373 11.364 20.1362 11.6094 20.1362Z" stroke="#BFC0C4" stroke-width="0.2"/>
<path d="M17.9892 13.4791H15.3264C15.0387 13.4791 14.8054 13.7123 14.8054 14.0001C14.8054 14.2877 15.0387 14.521 15.3264 14.521H17.9892C18.2769 14.521 18.5102 14.2877 18.5102 14.0001C18.5102 13.7123 18.2769 13.4791 17.9892 13.4791Z" stroke="#BFC0C4" stroke-width="0.2"/>
<path d="M17.9892 15.2974H15.3264C15.0387 15.2974 14.8054 15.5307 14.8054 15.8183C14.8054 16.106 15.0387 16.3393 15.3264 16.3393H17.9892C18.2769 16.3393 18.5102 16.106 18.5102 15.8183C18.5102 15.5307 18.2769 15.2974 17.9892 15.2974Z" stroke="#BFC0C4" stroke-width="0.2"/>
  </g>
 </symbol>

     <symbol id="menu__icon5" viewBox="0 0 22 22" >
  <g>
<circle cx="11" cy="11" r="10.15" stroke="#BFC0C4" stroke-width="1.7"/>
<path d="M8.15621 16.7619C8.05483 16.7619 7.96865 16.729 7.89769 16.6631C7.83686 16.5863 7.80644 16.493 7.80644 16.3833V14.2761H6.63548C6.53409 14.2761 6.44792 14.2431 6.37695 14.1773C6.31612 14.1005 6.28571 14.0072 6.28571 13.8974V13.5188C6.28571 13.409 6.31612 13.3212 6.37695 13.2554C6.44792 13.1786 6.53409 13.1401 6.63548 13.1401H7.80644V12.2018H6.63548C6.53409 12.2018 6.44792 12.1688 6.37695 12.103C6.31612 12.0262 6.28571 11.9329 6.28571 11.8231V11.2634C6.28571 11.1537 6.31612 11.0659 6.37695 11C6.44792 10.9232 6.53409 10.8848 6.63548 10.8848H7.80644V5.6332C7.80644 5.51247 7.83686 5.41919 7.89769 5.35334C7.96865 5.27651 8.05483 5.2381 8.15621 5.2381H12.0189C13.1645 5.2381 14.0668 5.53991 14.7258 6.14354C15.3848 6.74717 15.7143 7.61969 15.7143 8.76109C15.7143 9.88055 15.3848 10.7366 14.7258 11.3293C14.0769 11.9109 13.1746 12.2018 12.0189 12.2018H9.32718V13.1401H12.2622C12.3636 13.1401 12.4447 13.1786 12.5055 13.2554C12.5765 13.3212 12.612 13.409 12.612 13.5188V13.8974C12.612 14.0072 12.5765 14.1005 12.5055 14.1773C12.4447 14.2431 12.3636 14.2761 12.2622 14.2761H9.32718V16.3833C9.32718 16.493 9.2917 16.5863 9.22073 16.6631C9.14976 16.729 9.06359 16.7619 8.9622 16.7619H8.15621ZM11.9428 10.8848C12.6829 10.8848 13.2405 10.7037 13.6157 10.3415C14.0009 9.97932 14.1935 9.45252 14.1935 8.76109C14.1935 8.06966 14.006 7.54286 13.6309 7.18068C13.2558 6.80753 12.6931 6.62096 11.9428 6.62096H9.31197V10.8848H11.9428Z" fill="#BFC0C4"/>
  </g>
 </symbol>
 
     <symbol id="menu__icon6" viewBox="0 0 24 24" >
  <g>
<circle cx="11" cy="11" r="10.15" stroke="#BFC0C4" stroke-width="1.7"/>
<path d="M21.874 9.69062L20.3299 9.42866C20.169 8.90934 19.9622 8.4084 19.7094 7.93044L20.6194 6.65741C21.0054 6.1151 20.9457 5.37518 20.4723 4.90641L19.1028 3.53687C18.8454 3.27951 18.5053 3.13704 18.1423 3.13704C17.8573 3.13704 17.5862 3.22436 17.3564 3.38981L16.0788 4.29977C15.5824 4.03781 15.0631 3.82181 14.5254 3.66096L14.268 2.13516C14.1577 1.47796 13.5924 1 12.9261 1H10.9912C10.3248 1 9.75956 1.47796 9.64926 2.13516L9.3827 3.69772C8.86798 3.85858 8.36704 4.06998 7.88908 4.32735L6.62524 3.41738C6.39545 3.25193 6.1197 3.16461 5.83476 3.16461C5.47169 3.16461 5.12701 3.30708 4.87424 3.56445L3.5001 4.93399C3.03134 5.40276 2.96699 6.14268 3.35304 6.68498L4.2722 7.97639C4.01943 8.45895 3.81721 8.95989 3.66096 9.47921L2.13516 9.73658C1.47796 9.84688 1 10.4122 1 11.0785V13.0134C1 13.6798 1.47796 14.245 2.13516 14.3553L3.69772 14.6219C3.85858 15.1366 4.06998 15.6376 4.32735 16.1155L3.42198 17.3748C3.03593 17.9171 3.09568 18.657 3.56904 19.1258L4.93858 20.4953C5.19595 20.7527 5.53604 20.8951 5.8991 20.8951C6.18404 20.8951 6.45519 20.8078 6.68498 20.6424L7.9764 19.7232C8.44057 19.9668 8.92772 20.1644 9.42866 20.3207L9.68603 21.8648C9.79632 22.522 10.3616 23 11.028 23H12.9674C13.6338 23 14.1991 22.522 14.3094 21.8648L14.5713 20.3207C15.0907 20.1598 15.5916 19.953 16.0696 19.7002L17.3426 20.6102C17.5724 20.7756 17.8481 20.863 18.1331 20.863C18.4961 20.863 18.8362 20.7205 19.0936 20.4631L20.4631 19.0936C20.9319 18.6248 20.9962 17.8849 20.6102 17.3426L19.7002 16.065C19.953 15.5824 20.1644 15.0815 20.3207 14.5667L21.8648 14.3094C22.522 14.1991 23 13.6338 23 12.9674V11.0326C23.0092 10.3662 22.5312 9.80092 21.874 9.69062ZM21.7683 12.9674C21.7683 13.0272 21.727 13.0777 21.6672 13.0869L19.737 13.4086C19.4934 13.45 19.3004 13.6292 19.2407 13.8636C19.066 14.5392 18.7995 15.1872 18.441 15.7892C18.3169 16.0006 18.3261 16.2626 18.4686 16.4648L19.6037 18.0641C19.6359 18.1101 19.6313 18.179 19.5899 18.2204L18.2204 19.5899C18.1882 19.6221 18.156 19.6267 18.1331 19.6267C18.1055 19.6267 18.0825 19.6175 18.0641 19.6037L16.4694 18.4686C16.2718 18.3261 16.0052 18.3169 15.7938 18.441C15.1918 18.7995 14.5438 19.066 13.8682 19.2407C13.6292 19.3004 13.45 19.498 13.4132 19.737L13.0869 21.6672C13.0777 21.727 13.0272 21.7683 12.9674 21.7683H11.0326C10.9728 21.7683 10.9223 21.727 10.9131 21.6672L10.5914 19.737C10.55 19.4934 10.3708 19.3004 10.1364 19.2407C9.47922 19.0706 8.845 18.8086 8.25214 18.4686C8.15563 18.4134 8.04533 18.3858 7.93963 18.3858C7.81554 18.3858 7.68686 18.4226 7.58116 18.5007L5.97263 19.6451C5.94966 19.6589 5.92668 19.6681 5.9037 19.6681C5.88531 19.6681 5.84855 19.6635 5.81638 19.6313L4.44684 18.2618C4.40547 18.2204 4.40088 18.156 4.43305 18.1055L5.56361 16.5199C5.70608 16.3177 5.71527 16.0512 5.59119 15.8398C5.23271 15.2423 4.95697 14.5943 4.78233 13.9187C4.71799 13.6844 4.52496 13.5051 4.28598 13.4638L2.34197 13.1329C2.28222 13.1237 2.24086 13.0731 2.24086 13.0134V11.0785C2.24086 11.0188 2.28222 10.9682 2.34197 10.9591L4.25841 10.6374C4.50199 10.596 4.6996 10.4168 4.75935 10.1778C4.92939 9.50219 5.19135 8.84959 5.54523 8.24755C5.66931 8.03614 5.65553 7.77418 5.51306 7.57656L4.36871 5.96804C4.33654 5.92208 4.34113 5.85314 4.38249 5.81178L5.75204 4.44224C5.78421 4.41007 5.81638 4.40547 5.83936 4.40547C5.86693 4.40547 5.88991 4.41466 5.90829 4.42845L7.49384 5.55901C7.69605 5.70148 7.96261 5.71068 8.17401 5.58659C8.77147 5.22812 9.41947 4.95237 10.095 4.77773C10.3294 4.71339 10.5087 4.52037 10.55 4.28139L10.8809 2.33737C10.8901 2.27763 10.9407 2.23626 11.0004 2.23626H12.9352C12.995 2.23626 13.0455 2.27763 13.0547 2.33737L13.3764 4.25381C13.4178 4.49739 13.597 4.69501 13.836 4.75475C14.53 4.92939 15.1918 5.20054 15.8076 5.56361C16.019 5.6877 16.281 5.6785 16.4832 5.53604L18.0687 4.39628C18.0917 4.38249 18.1147 4.3733 18.1377 4.3733C18.156 4.3733 18.1928 4.3779 18.225 4.41007L19.5945 5.77961C19.6359 5.82097 19.6405 5.88531 19.6083 5.93587L18.4732 7.5306C18.3307 7.72822 18.3215 7.99478 18.4456 8.20618C18.8041 8.80823 19.0706 9.45624 19.2452 10.1318C19.305 10.3708 19.5026 10.55 19.7416 10.5868L21.6718 10.9131C21.7316 10.9223 21.7729 10.9728 21.7729 11.0326V12.9674H21.7683Z" fill="#BFC0C4" stroke="#BFC0C4" stroke-width="0.5"/>
<path d="M12.002 7.24925C9.38242 7.24925 7.25458 9.3771 7.25458 11.9967C7.25458 14.6163 9.38242 16.7441 12.002 16.7441C14.6216 16.7441 16.7495 14.6163 16.7495 11.9967C16.7495 9.3771 14.6216 7.24925 12.002 7.24925ZM12.002 15.5033C10.0672 15.5033 8.49544 13.9315 8.49544 11.9967C8.49544 10.0619 10.0672 8.49011 12.002 8.49011C13.9368 8.49011 15.5086 10.0619 15.5086 11.9967C15.5086 13.9315 13.9368 15.5033 12.002 15.5033Z" fill="#BFC0C4" stroke="#BFC0C4" stroke-width="0.5"/>
  </g>
 </symbol>

      <symbol id="menu__icon7" viewBox="0 0 24 24" >
  <g>
<circle cx="11" cy="11" r="10.15" stroke="#BFC0C4" stroke-width="1.7"/>
<path fill-rule="evenodd" clip-rule="evenodd" d="M4.24633 0C3.80767 0 3.45179 0.355662 3.45179 0.794536C3.45179 1.06021 3.4558 1.32471 3.46313 1.58784H0.794536C0.355688 1.58784 0 1.94353 0 2.38238C0 5.29488 0.760956 8.04962 2.15041 10.1378C3.51025 12.1817 5.33017 13.3808 7.31456 13.5183C7.73097 13.9647 8.17069 14.336 8.62957 14.6276V17.2591H7.69829C6.30824 17.2591 5.17777 18.3898 5.17777 19.7797V20.7177C4.78815 20.7687 4.48742 21.1021 4.48742 21.5055C4.48742 21.9443 4.8431 22.3 5.28195 22.3H17.0182C17.4571 22.3 17.8128 21.9443 17.8128 21.5055C17.8128 21.1021 17.512 20.7687 17.1224 20.7177V19.7797C17.1224 18.3898 15.9919 17.2591 14.6019 17.2591H13.6706V14.6276C14.1295 14.3362 14.5694 13.9647 14.9858 13.5183C16.97 13.3808 18.7899 12.1817 20.1499 10.1378C21.5394 8.04962 22.3002 5.29487 22.3002 2.38238C22.3002 1.94353 21.9445 1.58784 21.5056 1.58784H18.837C18.8444 1.32471 18.8484 1.06021 18.8484 0.794536C18.8484 0.355662 18.4925 0 18.0538 0H4.24633ZM6.97911 10.2025C5.82483 7.89406 5.14694 4.86108 5.05238 1.58907H17.2478C17.1531 4.86109 16.4752 7.89423 15.3211 10.2025C14.9323 10.98 14.5083 11.6381 14.0602 12.1714C14.027 12.2038 13.9966 12.2392 13.9695 12.2772C13.5198 12.7919 13.0484 13.1793 12.5665 13.4354C12.5341 13.4491 12.5037 13.4649 12.4754 13.4815C12.04 13.6973 11.5962 13.8073 11.1501 13.8073C10.7042 13.8073 10.2607 13.6973 9.82546 13.482C9.79637 13.4647 9.76583 13.449 9.73362 13.4352C9.25158 13.1792 8.78023 12.7916 8.3304 12.2769C8.30344 12.2392 8.27339 12.204 8.24027 12.1715C7.79197 11.6382 7.36792 10.9801 6.97911 10.2025ZM3.47339 9.25758C2.38519 7.6223 1.73199 5.48761 1.60997 3.17691H3.55148C3.7956 6.08046 4.48513 8.76793 5.55784 10.9132C5.65858 11.1147 5.76204 11.3098 5.868 11.4985C4.98891 11.0603 4.1695 10.3039 3.47339 9.25758ZM16.7423 10.9132C17.815 8.76793 18.5044 6.08045 18.7487 3.17691H20.6902C20.5682 5.48761 19.915 7.62231 18.8268 9.2576C18.1307 10.3039 17.3113 11.0603 16.4322 11.4985C16.5381 11.3098 16.6416 11.1147 16.7423 10.9132ZM10.2186 17.2591V15.295C10.5245 15.3618 10.8354 15.3964 11.1501 15.3964C11.4648 15.3964 11.7756 15.3618 12.0815 15.295V17.2591H10.2186ZM6.76685 19.7797C6.76685 19.2663 7.18478 18.8482 7.69829 18.8482H14.6019C15.1154 18.8482 15.5333 19.2663 15.5333 19.7797V20.7111H6.76685V19.7797Z" fill="#BFC0C4"/>
  </g>
 </symbol>

 
      <symbol id="menu__icon8" viewBox="0 0 23 23" >
  <g>
<path d="M18.3606 12.3039H10.1961V4.13937C10.1961 3.80944 9.93217 3.5455 9.60225 3.5455C4.44663 3.5455 0.25 7.74214 0.25 12.8978C0.25 18.0534 4.44663 22.25 9.60225 22.25C14.7579 22.25 18.9545 18.0534 18.9545 12.8978C18.9545 12.5722 18.6862 12.3039 18.3606 12.3039ZM9.60225 21.0623C5.10208 21.0623 1.43773 17.3979 1.43773 12.8978C1.43773 8.59554 4.78096 5.05875 9.00838 4.75522V12.8978C9.00838 13.2277 9.27232 13.4916 9.60225 13.4916H17.7448C17.4412 17.719 13.9045 21.0623 9.60225 21.0623Z" fill="#BFC0C4"/>
<path d="M22.2458 9.57146C22.237 7.30158 21.4056 5.11528 19.9055 3.41287C18.1283 1.40253 15.5769 0.25 12.8935 0.25C12.5636 0.25 12.2997 0.513939 12.2997 0.843863V9.60225C12.2997 9.93217 12.5636 10.1961 12.8935 10.1961H21.6519C21.9818 10.1961 22.2458 9.93217 22.2458 9.60225C22.2458 9.59345 22.2458 9.58465 22.2458 9.57146ZM13.4874 9.01278V1.46412C15.6077 1.61809 17.596 2.59906 19.0125 4.20469C20.2002 5.54638 20.9041 7.23559 21.0361 9.01278H13.4874Z" fill="#BFC0C4"/>
<path fill-rule="evenodd" clip-rule="evenodd" d="M12.0497 0.843863C12.0497 0.375868 12.4255 0 12.8935 0C15.6487 0 18.2683 1.1834 20.0928 3.24729C21.6329 4.99507 22.4867 7.24004 22.4958 9.57049L22.4958 9.57153V9.60158C22.4958 10.0696 22.1199 10.4461 21.6519 10.4461H12.8935C12.4255 10.4461 12.0497 10.0702 12.0497 9.60225V0.843863ZM12.8935 0.5C12.7017 0.5 12.5497 0.652011 12.5497 0.843863V9.60225C12.5497 9.7941 12.7017 9.94611 12.8935 9.94611H21.6519C21.8438 9.94611 21.9958 9.7941 21.9958 9.60225V9.57343L21.9958 9.57242C21.9871 7.36329 21.1779 5.23506 19.7179 3.57815C17.9881 1.62156 15.505 0.5 12.8935 0.5ZM13.2374 1.19531L13.5055 1.21478C15.691 1.37347 17.7402 2.38452 19.2 4.0393C20.4243 5.4224 21.1494 7.16336 21.2854 8.99427L21.3053 9.26278H13.2374V1.19531ZM13.7374 1.73755V8.76278H20.7623C20.5864 7.13834 19.9164 5.60292 18.8253 4.3704C17.5121 2.8818 15.6915 1.94678 13.7374 1.73755ZM0 12.8978C0 7.60407 4.30856 3.2955 9.60225 3.2955C10.0702 3.2955 10.4461 3.67137 10.4461 4.13937V12.0539H18.3606C18.8242 12.0539 19.2045 12.4342 19.2045 12.8978C19.2045 18.1914 14.8959 22.5 9.60225 22.5C4.30856 22.5 0 18.1914 0 12.8978ZM9.60225 3.7955C4.58471 3.7955 0.5 7.88021 0.5 12.8978C0.5 17.9153 4.58471 22 9.60225 22C14.6198 22 18.7045 17.9153 18.7045 12.8978C18.7045 12.7103 18.5481 12.5539 18.3606 12.5539H9.94611V4.13937C9.94611 3.94751 9.7941 3.7955 9.60225 3.7955ZM9.25838 4.48663V12.8978C9.25838 13.0896 9.4104 13.2416 9.60225 13.2416H18.0134L17.9941 13.5095C17.6813 17.8668 14.0365 21.3123 9.60225 21.3123C4.96401 21.3123 1.18773 17.536 1.18773 12.8978C1.18773 8.46352 4.63316 4.81872 8.99048 4.50587L9.25838 4.48663ZM8.75838 5.02839C4.78837 5.4493 1.68773 8.81887 1.68773 12.8978C1.68773 17.2598 5.24015 20.8123 9.60225 20.8123C13.6811 20.8123 17.0507 17.7116 17.4716 13.7416H9.60225C9.13425 13.7416 8.75838 13.3657 8.75838 12.8978V5.02839Z" fill="#BFC0C4"/>
  </g>
 </symbol>

       <symbol id="menu__icon9" viewBox="0 0 18 23" >
  <g>
<path d="M18.3606 12.3039H10.1961V4.13937C10.1961 3.80944 9.93217 3.5455 9.60225 3.5455C4.44663 3.5455 0.25 7.74214 0.25 12.8978C0.25 18.0534 4.44663 22.25 9.60225 22.25C14.7579 22.25 18.9545 18.0534 18.9545 12.8978C18.9545 12.5722 18.6862 12.3039 18.3606 12.3039ZM9.60225 21.0623C5.10208 21.0623 1.43773 17.3979 1.43773 12.8978C1.43773 8.59554 4.78096 5.05875 9.00838 4.75522V12.8978C9.00838 13.2277 9.27232 13.4916 9.60225 13.4916H17.7448C17.4412 17.719 13.9045 21.0623 9.60225 21.0623Z" fill="#BFC0C4"/>
<path d="M22.2458 9.57146C22.237 7.30158 21.4056 5.11528 19.9055 3.41287C18.1283 1.40253 15.5769 0.25 12.8935 0.25C12.5636 0.25 12.2997 0.513939 12.2997 0.843863V9.60225C12.2997 9.93217 12.5636 10.1961 12.8935 10.1961H21.6519C21.9818 10.1961 22.2458 9.93217 22.2458 9.60225C22.2458 9.59345 22.2458 9.58465 22.2458 9.57146ZM13.4874 9.01278V1.46412C15.6077 1.61809 17.596 2.59906 19.0125 4.20469C20.2002 5.54638 20.9041 7.23559 21.0361 9.01278H13.4874Z" fill="#BFC0C4"/>
<path fill-rule="evenodd" clip-rule="evenodd" d="M12.0497 0.843863C12.0497 0.375868 12.4255 0 12.8935 0C15.6487 0 18.2683 1.1834 20.0928 3.24729C21.6329 4.99507 22.4867 7.24004 22.4958 9.57049L22.4958 9.57153V9.60158C22.4958 10.0696 22.1199 10.4461 21.6519 10.4461H12.8935C12.4255 10.4461 12.0497 10.0702 12.0497 9.60225V0.843863ZM12.8935 0.5C12.7017 0.5 12.5497 0.652011 12.5497 0.843863V9.60225C12.5497 9.7941 12.7017 9.94611 12.8935 9.94611H21.6519C21.8438 9.94611 21.9958 9.7941 21.9958 9.60225V9.57343L21.9958 9.57242C21.9871 7.36329 21.1779 5.23506 19.7179 3.57815C17.9881 1.62156 15.505 0.5 12.8935 0.5ZM13.2374 1.19531L13.5055 1.21478C15.691 1.37347 17.7402 2.38452 19.2 4.0393C20.4243 5.4224 21.1494 7.16336 21.2854 8.99427L21.3053 9.26278H13.2374V1.19531ZM13.7374 1.73755V8.76278H20.7623C20.5864 7.13834 19.9164 5.60292 18.8253 4.3704C17.5121 2.8818 15.6915 1.94678 13.7374 1.73755ZM0 12.8978C0 7.60407 4.30856 3.2955 9.60225 3.2955C10.0702 3.2955 10.4461 3.67137 10.4461 4.13937V12.0539H18.3606C18.8242 12.0539 19.2045 12.4342 19.2045 12.8978C19.2045 18.1914 14.8959 22.5 9.60225 22.5C4.30856 22.5 0 18.1914 0 12.8978ZM9.60225 3.7955C4.58471 3.7955 0.5 7.88021 0.5 12.8978C0.5 17.9153 4.58471 22 9.60225 22C14.6198 22 18.7045 17.9153 18.7045 12.8978C18.7045 12.7103 18.5481 12.5539 18.3606 12.5539H9.94611V4.13937C9.94611 3.94751 9.7941 3.7955 9.60225 3.7955ZM9.25838 4.48663V12.8978C9.25838 13.0896 9.4104 13.2416 9.60225 13.2416H18.0134L17.9941 13.5095C17.6813 17.8668 14.0365 21.3123 9.60225 21.3123C4.96401 21.3123 1.18773 17.536 1.18773 12.8978C1.18773 8.46352 4.63316 4.81872 8.99048 4.50587L9.25838 4.48663ZM8.75838 5.02839C4.78837 5.4493 1.68773 8.81887 1.68773 12.8978C1.68773 17.2598 5.24015 20.8123 9.60225 20.8123C13.6811 20.8123 17.0507 17.7116 17.4716 13.7416H9.60225C9.13425 13.7416 8.75838 13.3657 8.75838 12.8978V5.02839Z" fill="#BFC0C4"/>
  </g>
 </symbol>

        <symbol id="menu__icon10" viewBox="0 0 22 22" >
  <g>
<path d="M11.0365 20.0997H19.2592C19.7635 20.0997 20.1728 19.6904 20.1728 19.1861V2.74089C20.1728 2.23657 19.7634 1.82729 19.2592 1.82729H11.0365C10.5313 1.82729 10.1229 1.41891 10.1229 0.913687C10.1229 0.408461 10.5313 0 11.0365 0H19.2592C20.7703 0 22 1.22977 22 2.74089V19.1861C22 20.6972 20.7703 21.9269 19.2592 21.9269H11.0365C10.5313 21.9269 10.1229 21.5185 10.1229 21.0133C10.1229 20.5081 10.5313 20.0997 11.0365 20.0997Z" fill="#BFC0C4"/>
<path d="M0.27225 10.313L5.82708 4.83124C6.18522 4.47675 6.76444 4.48135 7.11893 4.84039C7.47343 5.19944 7.46977 5.77776 7.10978 6.13225L3.14011 10.0498H13.7774C14.2826 10.0498 14.691 10.4582 14.691 10.9634C14.691 11.4687 14.2826 11.8771 13.7774 11.8771H3.14011L7.10978 15.7947C7.46973 16.1492 7.47248 16.7275 7.11893 17.0865C6.93988 17.2674 6.70416 17.3588 6.46843 17.3588C6.23636 17.3588 6.00432 17.2711 5.82708 17.0956L0.27225 11.6139C0.0986562 11.4422 0 11.2082 0 10.9634C0 10.7186 0.0977539 10.4857 0.27225 10.313Z" fill="#BFC0C4"/>
  </g>
 </symbol>


 
</svg>