<svg display="none" xmlns="http://www.w3.org/2000/svg">
 <symbol id="menu__icon1" viewBox="0 0 21 22" >
  <g>
  <path d="M20.942 3.20509C20.942 2.11856 19.8198 1.3099 17.5112 0.732745C15.6211 0.260225 13.1209 0 10.471 0C7.82127 0 5.32094 0.260225 3.43086 0.732745C1.12225 1.3099 0 2.11856 0 3.20509C0 3.60713 0.15413 3.97105 0.464688 4.29936L7.59112 12.9433V21.2168C7.59112 21.4878 7.73115 21.7395 7.96141 21.8823C8.08745 21.9605 8.23062 22 8.3743 22C8.49314 22 8.61218 21.973 8.72214 21.9186L12.9069 19.8444C13.1732 19.7124 13.3419 19.441 13.3423 19.1437L13.3503 12.9438L20.4777 4.29883C20.7881 3.97063 20.942 3.60702 20.942 3.20509ZM4.16381 2.16858C5.88963 1.78022 8.12953 1.56636 10.471 1.56636C12.8125 1.56636 15.0525 1.78022 16.7782 2.16858C18.6839 2.59745 19.2196 3.05838 19.3477 3.20509C19.2195 3.35181 18.6839 3.81274 16.7782 4.24161C15.0525 4.62996 12.8124 4.84382 10.471 4.84382C8.12964 4.84382 5.88963 4.62996 4.16381 4.24171C2.25817 3.81284 1.72237 3.35191 1.59425 3.2052C1.72237 3.05838 2.25817 2.59745 4.16381 2.16858ZM11.9634 12.164C11.848 12.304 11.7847 12.4796 11.7845 12.6611L11.7767 18.6564L9.15759 19.9546V12.6622C9.15759 12.4804 9.09441 12.3042 8.97871 12.164L3.67991 5.73686C5.53804 6.17147 7.93541 6.41029 10.471 6.41029C13.0068 6.41029 15.404 6.17147 17.2622 5.73686L11.9634 12.164Z" fill="currentFill"/>
  </g>
  
   <symbol id="menu__icon2" viewBox="0 0 22 28" >
  <g>
<path d="M15.4089 20H6.59108C6.26463 20 6 20.3209 6 20.7166C6 21.1124 6.26463 21.4332 6.59108 21.4332H15.4089C15.7354 21.4332 16 21.1124 16 20.7166C16 20.3209 15.7354 20 15.4089 20Z" fill="currentFill"/>
<path d="M15.4089 22.9962H6.59108C6.26463 22.9962 6 23.3171 6 23.7129C6 24.1086 6.26463 24.4295 6.59108 24.4295H15.4089C15.7354 24.4295 16 24.1086 16 23.7129C16 23.3171 15.7354 22.9962 15.4089 22.9962Z" fill="currentFill"/>
<path d="M13.891 12.4135C13.879 12.4127 12.7912 12.458 12.4974 11.2813C12.8944 10.9688 13.2275 10.5347 13.4655 10.0161C13.4831 10.0179 13.5008 10.0201 13.5182 10.0201C13.6803 10.02 13.8372 9.94622 13.9403 9.81375C14.4394 9.17271 14.699 8.34037 14.6712 7.47004C14.6134 5.66563 13.3581 4.24316 11.8111 4.22643C11.7688 4.22473 11.7312 4.22582 11.7007 4.22692L11.6985 4.22697C11.3232 4.06432 10.9278 3.98811 10.5203 4.0015C9.64929 4.02933 8.85008 4.46081 8.27011 5.21649C7.71437 5.94052 7.42564 6.88264 7.45719 7.86959C7.46255 8.03656 7.47578 8.19052 7.49699 8.33638C7.55456 8.7566 7.67047 9.15942 7.84148 9.53355C7.92365 9.71337 8.09839 9.83326 8.29587 9.84507C8.34961 9.84852 8.40237 9.843 8.4531 9.8308C8.69514 10.4307 9.06084 10.9299 9.50315 11.2785C9.21519 12.4533 8.12102 12.4129 8.10905 12.4136C6.93966 12.4519 6 13.4144 6 14.5929V16.7587C6 17.0541 6.23947 17.2936 6.53492 17.2936H15.4651C15.7605 17.2936 16 17.0541 16 16.7587V14.5929C16.0001 13.4143 15.0603 12.4518 13.891 12.4135ZM8.56349 8.23573C8.56103 8.21938 8.55868 8.20293 8.55638 8.18647C8.54042 8.07647 8.53063 7.96149 8.52658 7.83514C8.50286 7.09477 8.71318 6.39611 9.11885 5.86775C9.50003 5.37105 10.0101 5.08801 10.5547 5.07057C10.5727 5.06997 11.0001 5.03613 11.3597 5.24864C11.435 5.29314 11.5272 5.30643 11.6142 5.3043C11.6252 5.30402 11.7855 5.29593 11.7936 5.29599C12.752 5.30227 13.5634 6.29283 13.6021 7.5041C13.6065 7.64286 13.601 7.77998 13.5859 7.91409C13.2319 7.30646 12.706 6.83595 12.0802 6.57281C11.9458 6.51633 11.794 6.51715 11.6601 6.57516C11.5263 6.63322 11.4219 6.7435 11.3713 6.88034C11.33 6.99198 11.2798 7.10078 11.2223 7.20384C11.0818 7.45501 10.7945 7.60311 10.4724 7.593C10.4083 7.59081 10.3436 7.5907 10.2799 7.59273C9.96644 7.60279 9.66077 7.66254 9.3692 7.77118C9.07796 7.88118 8.80727 8.03732 8.56349 8.23573ZM9.30895 9.01214C9.44448 8.91198 9.59341 8.83789 9.74502 8.77294C10.0214 8.65441 10.395 8.66087 10.4354 8.66229C11.1244 8.68569 11.7534 8.36328 12.1034 7.81404C12.3764 8.02316 12.6018 8.30484 12.759 8.63861C12.5933 9.83906 11.8462 10.7523 10.9985 10.7523C10.2422 10.7523 9.56334 10.0369 9.30895 9.01214ZM10.4844 11.7618C10.6518 11.8013 10.8236 11.8221 10.9985 11.8221C11.175 11.8221 11.3479 11.8011 11.5159 11.762C11.6882 12.3124 12.0503 12.7796 12.5248 13.0875C12.2966 13.7155 11.6928 14.1557 11.0001 14.1557C10.3073 14.1557 9.70358 13.7155 9.47532 13.0874C9.94988 12.7795 10.312 12.3123 10.4844 11.7618ZM7.06989 16.2237V14.5928C7.06989 13.98 7.56845 13.4815 8.18127 13.4815C8.19352 13.4815 8.38865 13.4703 8.47224 13.459C8.85309 14.4979 9.85311 15.2256 11 15.2256C12.1469 15.2256 13.147 14.4979 13.5278 13.459C13.6115 13.4703 13.8065 13.4815 13.8187 13.4815C14.4316 13.4815 14.9301 13.9801 14.9301 14.5928V16.2237H7.06989Z" fill="currentFill"/>
<path d="M19.9363 0H2.06369C0.925786 0 0 0.964403 0 2.14977V25.8502C0 27.0356 0.925786 28 2.06369 28H19.9363C21.0742 28 22 27.0356 22 25.8502V2.14977C22 0.964403 21.0742 0 19.9363 0ZM20.6242 25.8502C20.6242 26.2453 20.3156 26.5668 19.9363 26.5668H2.06369C1.68439 26.5668 1.37577 26.2453 1.37577 25.8502V2.1497C1.37577 1.75458 1.68439 1.43309 2.06369 1.43309H19.9363C20.3156 1.43309 20.6242 1.75458 20.6242 2.1497V25.8502Z" fill="currentFill"/>
  </g>
 </symbol>

    <symbol id="menu__icon2" viewBox="0 0 22 28" >
  <g>
<path d="M15.4089 20H6.59108C6.26463 20 6 20.3209 6 20.7166C6 21.1124 6.26463 21.4332 6.59108 21.4332H15.4089C15.7354 21.4332 16 21.1124 16 20.7166C16 20.3209 15.7354 20 15.4089 20Z" fill="currentFill"/>
<path d="M15.4089 22.9962H6.59108C6.26463 22.9962 6 23.3171 6 23.7129C6 24.1086 6.26463 24.4295 6.59108 24.4295H15.4089C15.7354 24.4295 16 24.1086 16 23.7129C16 23.3171 15.7354 22.9962 15.4089 22.9962Z" fill="currentFill"/>
<path d="M13.891 12.4135C13.879 12.4127 12.7912 12.458 12.4974 11.2813C12.8944 10.9688 13.2275 10.5347 13.4655 10.0161C13.4831 10.0179 13.5008 10.0201 13.5182 10.0201C13.6803 10.02 13.8372 9.94622 13.9403 9.81375C14.4394 9.17271 14.699 8.34037 14.6712 7.47004C14.6134 5.66563 13.3581 4.24316 11.8111 4.22643C11.7688 4.22473 11.7312 4.22582 11.7007 4.22692L11.6985 4.22697C11.3232 4.06432 10.9278 3.98811 10.5203 4.0015C9.64929 4.02933 8.85008 4.46081 8.27011 5.21649C7.71437 5.94052 7.42564 6.88264 7.45719 7.86959C7.46255 8.03656 7.47578 8.19052 7.49699 8.33638C7.55456 8.7566 7.67047 9.15942 7.84148 9.53355C7.92365 9.71337 8.09839 9.83326 8.29587 9.84507C8.34961 9.84852 8.40237 9.843 8.4531 9.8308C8.69514 10.4307 9.06084 10.9299 9.50315 11.2785C9.21519 12.4533 8.12102 12.4129 8.10905 12.4136C6.93966 12.4519 6 13.4144 6 14.5929V16.7587C6 17.0541 6.23947 17.2936 6.53492 17.2936H15.4651C15.7605 17.2936 16 17.0541 16 16.7587V14.5929C16.0001 13.4143 15.0603 12.4518 13.891 12.4135ZM8.56349 8.23573C8.56103 8.21938 8.55868 8.20293 8.55638 8.18647C8.54042 8.07647 8.53063 7.96149 8.52658 7.83514C8.50286 7.09477 8.71318 6.39611 9.11885 5.86775C9.50003 5.37105 10.0101 5.08801 10.5547 5.07057C10.5727 5.06997 11.0001 5.03613 11.3597 5.24864C11.435 5.29314 11.5272 5.30643 11.6142 5.3043C11.6252 5.30402 11.7855 5.29593 11.7936 5.29599C12.752 5.30227 13.5634 6.29283 13.6021 7.5041C13.6065 7.64286 13.601 7.77998 13.5859 7.91409C13.2319 7.30646 12.706 6.83595 12.0802 6.57281C11.9458 6.51633 11.794 6.51715 11.6601 6.57516C11.5263 6.63322 11.4219 6.7435 11.3713 6.88034C11.33 6.99198 11.2798 7.10078 11.2223 7.20384C11.0818 7.45501 10.7945 7.60311 10.4724 7.593C10.4083 7.59081 10.3436 7.5907 10.2799 7.59273C9.96644 7.60279 9.66077 7.66254 9.3692 7.77118C9.07796 7.88118 8.80727 8.03732 8.56349 8.23573ZM9.30895 9.01214C9.44448 8.91198 9.59341 8.83789 9.74502 8.77294C10.0214 8.65441 10.395 8.66087 10.4354 8.66229C11.1244 8.68569 11.7534 8.36328 12.1034 7.81404C12.3764 8.02316 12.6018 8.30484 12.759 8.63861C12.5933 9.83906 11.8462 10.7523 10.9985 10.7523C10.2422 10.7523 9.56334 10.0369 9.30895 9.01214ZM10.4844 11.7618C10.6518 11.8013 10.8236 11.8221 10.9985 11.8221C11.175 11.8221 11.3479 11.8011 11.5159 11.762C11.6882 12.3124 12.0503 12.7796 12.5248 13.0875C12.2966 13.7155 11.6928 14.1557 11.0001 14.1557C10.3073 14.1557 9.70358 13.7155 9.47532 13.0874C9.94988 12.7795 10.312 12.3123 10.4844 11.7618ZM7.06989 16.2237V14.5928C7.06989 13.98 7.56845 13.4815 8.18127 13.4815C8.19352 13.4815 8.38865 13.4703 8.47224 13.459C8.85309 14.4979 9.85311 15.2256 11 15.2256C12.1469 15.2256 13.147 14.4979 13.5278 13.459C13.6115 13.4703 13.8065 13.4815 13.8187 13.4815C14.4316 13.4815 14.9301 13.9801 14.9301 14.5928V16.2237H7.06989Z" fill="currentFill"/>
<path d="M19.9363 0H2.06369C0.925786 0 0 0.964403 0 2.14977V25.8502C0 27.0356 0.925786 28 2.06369 28H19.9363C21.0742 28 22 27.0356 22 25.8502V2.14977C22 0.964403 21.0742 0 19.9363 0ZM20.6242 25.8502C20.6242 26.2453 20.3156 26.5668 19.9363 26.5668H2.06369C1.68439 26.5668 1.37577 26.2453 1.37577 25.8502V2.1497C1.37577 1.75458 1.68439 1.43309 2.06369 1.43309H19.9363C20.3156 1.43309 20.6242 1.75458 20.6242 2.1497V25.8502Z" fill="currentFill"/>
  </g>
 </symbol>
 
    <symbol id="menu__icon3" viewBox="0 0 19 26" >
  <g>
<path d="M11 1H3.00002C1.89719 1 1 1.89719 1 3.00002V17.4C1 18.5028 1.89719 19.4001 3.00002 19.4001H10.2V18.6001H3.00002C2.33842 18.6001 1.80002 18.0616 1.80002 17.4V3.00002C1.80002 2.33842 2.33842 1.80002 3.00002 1.80002H11C11.6616 1.80002 12.2 2.33842 12.2 3.00002V14.6001H13V3.00002C13 1.89719 12.1028 1 11 1Z" fill="currentFill"/>
<path d="M16.8364 11.6544L12.9124 6.75035L12.2872 7.25037L16.2112 12.154C16.7204 12.79 17.0004 13.5892 17 14.404V24.2H11.148C9.08165 24.2 7.40006 22.5188 7.40006 20.452V19H6.60004V20.452C6.60004 22.9596 8.64046 25 11.148 25H17.4C17.6213 25 17.8 24.8212 17.8 24.6V14.4044C17.8005 13.4092 17.4585 12.4324 16.8364 11.6544Z" fill="currentFill"/>
<path d="M7.79844 10.4333C8.07922 10.4413 8.34046 10.5581 8.53283 10.7621L13.9085 16.4741L14.4913 15.9257L9.11483 10.2133C8.77522 9.85367 8.31561 9.64771 7.82122 9.63369C7.32162 9.61691 6.85644 9.79888 6.50121 10.1345C6.49681 10.1389 6.46479 10.1693 6.46081 10.1737C5.77723 10.8593 5.7312 11.9353 6.35482 12.6785L9.80006 16.7465V17.9841C9.79963 20.1945 11.1897 22.1997 13.2597 22.9749L13.5405 22.2257C11.7812 21.5669 10.5997 19.8625 10.6 17.9841V16.6001C10.6 16.5057 10.5664 16.4137 10.5052 16.3413L6.96645 12.1625C6.61245 11.7409 6.63847 11.1285 7.04647 10.7201C7.25042 10.5273 7.51681 10.4317 7.79844 10.4333Z" fill="currentFill"/>
<path d="M10.6 1.80013H9.80002V11.8001H10.6V1.80013Z" fill="currentFill"/>
<path d="M8.60003 14.1999H7.80001V18.9999H8.60003V14.1999Z" fill="currentFill"/>
<path d="M8.60003 1.40003H7.80001V10.2H8.60003V1.40003Z" fill="currentFill"/>
<path d="M5.80002 14.1999H3.40001C3.17923 14.1999 3.00003 14.3787 3.00003 14.5999V16.9999C3.00003 17.2211 3.17923 17.3999 3.40001 17.3999H5.80002C6.02081 17.3999 6.20001 17.2211 6.20001 16.9999V14.5999C6.20001 14.3787 6.02081 14.1999 5.80002 14.1999ZM5.40004 16.5999H3.80005V14.9999H5.40004V16.5999Z" fill="currentFill"/>
<path d="M11 1H3.00002C1.89719 1 1 1.89719 1 3.00002V17.4C1 18.5028 1.89719 19.4001 3.00002 19.4001H10.2V18.6001H3.00002C2.33842 18.6001 1.80002 18.0616 1.80002 17.4V3.00002C1.80002 2.33842 2.33842 1.80002 3.00002 1.80002H11C11.6616 1.80002 12.2 2.33842 12.2 3.00002V14.6001H13V3.00002C13 1.89719 12.1028 1 11 1Z" fill="currentFill"/>
<path d="M16.8364 11.6544L12.9124 6.75035L12.2872 7.25037L16.2112 12.154C16.7204 12.79 17.0004 13.5892 17 14.404V24.2H11.148C9.08165 24.2 7.40006 22.5188 7.40006 20.452V19H6.60004V20.452C6.60004 22.9596 8.64046 25 11.148 25H17.4C17.6213 25 17.8 24.8212 17.8 24.6V14.4044C17.8005 13.4092 17.4585 12.4324 16.8364 11.6544Z" fill="currentFill"/>
<path d="M7.79844 10.4333C8.07922 10.4413 8.34046 10.5581 8.53283 10.7621L13.9085 16.4741L14.4913 15.9257L9.11483 10.2133C8.77522 9.85367 8.31561 9.64771 7.82122 9.63369C7.32162 9.61691 6.85644 9.79888 6.50121 10.1345C6.49681 10.1389 6.46479 10.1693 6.46081 10.1737C5.77723 10.8593 5.7312 11.9353 6.35482 12.6785L9.80006 16.7465V17.9841C9.79963 20.1945 11.1897 22.1997 13.2597 22.9749L13.5405 22.2257C11.7812 21.5669 10.5997 19.8625 10.6 17.9841V16.6001C10.6 16.5057 10.5664 16.4137 10.5052 16.3413L6.96645 12.1625C6.61245 11.7409 6.63847 11.1285 7.04647 10.7201C7.25042 10.5273 7.51681 10.4317 7.79844 10.4333Z" fill="currentFill"/>
<path d="M10.6 1.80013H9.80002V11.8001H10.6V1.80013Z" fill="currentFill"/>
<path d="M8.60003 14.1999H7.80001V18.9999H8.60003V14.1999Z" fill="currentFill"/>
<path d="M8.60003 1.40003H7.80001V10.2H8.60003V1.40003Z" fill="currentFill"/>
<path d="M5.80002 14.1999H3.40001C3.17923 14.1999 3.00003 14.3787 3.00003 14.5999V16.9999C3.00003 17.2211 3.17923 17.3999 3.40001 17.3999H5.80002C6.02081 17.3999 6.20001 17.2211 6.20001 16.9999V14.5999C6.20001 14.3787 6.02081 14.1999 5.80002 14.1999ZM5.40004 16.5999H3.80005V14.9999H5.40004V16.5999Z" fill="currentFill"/>
  </g>
 </symbol>

     <symbol id="menu__icon4" viewBox="0 0 21 24" >
  <g>
<path d="M18.9221 1H2.30234C1.5842 1 1 1.58425 1 2.30234V21.6976C1 22.4158 1.58425 23 2.30234 23H18.9221C19.6402 23 20.2244 22.4157 20.2244 21.6976V2.30234C20.2244 1.58425 19.6402 1 18.9221 1ZM2.04186 2.30234C2.04186 2.15874 2.1587 2.04186 2.30234 2.04186H18.9221C19.0657 2.04186 19.1825 2.1587 19.1825 2.30234V6.81836H2.04186V2.30234ZM7.06083 21.9581H2.30234C2.15874 21.9581 2.04186 21.8412 2.04186 21.6976V15.4287H7.06083V21.9581ZM7.06083 14.3869H2.04186V7.86026H7.06083V14.3869ZM13.1217 21.9581H8.10269V15.4287H13.1217V21.9581ZM13.1217 14.3869H8.10269V7.86026H13.1217V14.3869ZM19.1825 21.6976C19.1825 21.8412 19.0656 21.9581 18.9221 21.9581H14.1635V7.86026H19.1825V21.6976Z" fill="currentFill"/>
<path d="M5.83924 10.6027H5.07225V9.83566C5.07225 9.54795 4.83902 9.31471 4.5513 9.31471C4.26358 9.31471 4.03035 9.54795 4.03035 9.83566V10.6027H3.26335C2.97563 10.6027 2.7424 10.8359 2.7424 11.1236C2.7424 11.4113 2.97563 11.6446 3.26335 11.6446H4.03035V12.4116C4.03035 12.6993 4.26358 12.9326 4.5513 12.9326C4.83902 12.9326 5.07225 12.6993 5.07225 12.4116V11.6446H5.83924C6.12696 11.6446 6.3602 11.4113 6.3602 11.1236C6.3602 10.8359 6.12696 10.6027 5.83924 10.6027Z" fill="currentFill"/>
<path d="M11.9259 10.6027H9.29844C9.01072 10.6027 8.77749 10.8359 8.77749 11.1236C8.77749 11.4113 9.01072 11.6446 9.29844 11.6446H11.9259C12.2135 11.6446 12.4468 11.4113 12.4468 11.1236C12.4468 10.8359 12.2135 10.6027 11.9259 10.6027Z" fill="currentFill"/>
<path d="M5.28802 18.6948L5.91687 18.0659C6.12028 17.8625 6.12028 17.5327 5.91687 17.3292C5.71345 17.1258 5.38358 17.1258 5.18008 17.3292L4.55123 17.958L3.92239 17.3292C3.71897 17.1258 3.3891 17.1258 3.1856 17.3292C2.98219 17.5326 2.98219 17.8624 3.1856 18.0659L3.81449 18.6948L3.18564 19.3236C2.98223 19.5271 2.98223 19.8569 3.18564 20.0603C3.28739 20.1621 3.42068 20.2129 3.55401 20.2129C3.6873 20.2129 3.82068 20.1621 3.92239 20.0603L4.55123 19.4315L5.18008 20.0603C5.28183 20.1621 5.41512 20.2129 5.54845 20.2129C5.68179 20.2129 5.81512 20.1621 5.91682 20.0603C6.12024 19.8569 6.12024 19.5271 5.91682 19.3236L5.28802 18.6948Z" fill="currentFill"/>
<path d="M11.9776 17.3292C11.7741 17.1258 11.4444 17.1258 11.2408 17.3292L9.24637 19.3236C9.04299 19.5271 9.04299 19.8569 9.24641 20.0604C9.34816 20.1621 9.48145 20.213 9.61478 20.213C9.74811 20.213 9.88145 20.1621 9.98315 20.0604L11.9776 18.066C12.181 17.8625 12.181 17.5327 11.9776 17.3292Z" fill="currentFill"/>
<path d="M9.61468 18.1421C9.8601 18.1421 10.0591 17.9431 10.0591 17.6977C10.0591 17.4523 9.8601 17.2533 9.61468 17.2533C9.36925 17.2533 9.1703 17.4523 9.1703 17.6977C9.1703 17.9431 9.36925 18.1421 9.61468 18.1421Z" fill="currentFill"/>
<path d="M11.6094 20.1362C11.8548 20.1362 12.0537 19.9373 12.0537 19.6919C12.0537 19.4465 11.8548 19.2476 11.6094 19.2476C11.364 19.2476 11.1651 19.4465 11.1651 19.6919C11.1651 19.9373 11.364 20.1362 11.6094 20.1362Z" fill="currentFill"/>
<path d="M17.9892 13.4791H15.3264C15.0387 13.4791 14.8054 13.7123 14.8054 14.0001C14.8054 14.2877 15.0387 14.521 15.3264 14.521H17.9892C18.2769 14.521 18.5102 14.2877 18.5102 14.0001C18.5102 13.7123 18.2769 13.4791 17.9892 13.4791Z" fill="currentFill"/>
<path d="M17.9892 15.2974H15.3264C15.0387 15.2974 14.8054 15.5307 14.8054 15.8183C14.8054 16.106 15.0387 16.3393 15.3264 16.3393H17.9892C18.2769 16.3393 18.5102 16.106 18.5102 15.8183C18.5102 15.5307 18.2769 15.2974 17.9892 15.2974Z" fill="currentFill"/>
<path d="M18.9221 1H2.30234C1.5842 1 1 1.58425 1 2.30234V21.6976C1 22.4158 1.58425 23 2.30234 23H18.9221C19.6402 23 20.2244 22.4157 20.2244 21.6976V2.30234C20.2244 1.58425 19.6402 1 18.9221 1ZM2.04186 2.30234C2.04186 2.15874 2.1587 2.04186 2.30234 2.04186H18.9221C19.0657 2.04186 19.1825 2.1587 19.1825 2.30234V6.81836H2.04186V2.30234ZM7.06083 21.9581H2.30234C2.15874 21.9581 2.04186 21.8412 2.04186 21.6976V15.4287H7.06083V21.9581ZM7.06083 14.3869H2.04186V7.86026H7.06083V14.3869ZM13.1217 21.9581H8.10269V15.4287H13.1217V21.9581ZM13.1217 14.3869H8.10269V7.86026H13.1217V14.3869ZM19.1825 21.6976C19.1825 21.8412 19.0656 21.9581 18.9221 21.9581H14.1635V7.86026H19.1825V21.6976Z" fill="currentFill"/>
<path d="M5.83924 10.6027H5.07225V9.83566C5.07225 9.54795 4.83902 9.31471 4.5513 9.31471C4.26358 9.31471 4.03035 9.54795 4.03035 9.83566V10.6027H3.26335C2.97563 10.6027 2.7424 10.8359 2.7424 11.1236C2.7424 11.4113 2.97563 11.6446 3.26335 11.6446H4.03035V12.4116C4.03035 12.6993 4.26358 12.9326 4.5513 12.9326C4.83902 12.9326 5.07225 12.6993 5.07225 12.4116V11.6446H5.83924C6.12696 11.6446 6.3602 11.4113 6.3602 11.1236C6.3602 10.8359 6.12696 10.6027 5.83924 10.6027Z" fill="currentFill"/>
<path d="M11.9259 10.6027H9.29844C9.01072 10.6027 8.77749 10.8359 8.77749 11.1236C8.77749 11.4113 9.01072 11.6446 9.29844 11.6446H11.9259C12.2135 11.6446 12.4468 11.4113 12.4468 11.1236C12.4468 10.8359 12.2135 10.6027 11.9259 10.6027Z" fill="currentFill"/>
<path d="M5.28802 18.6948L5.91687 18.0659C6.12028 17.8625 6.12028 17.5327 5.91687 17.3292C5.71345 17.1258 5.38358 17.1258 5.18008 17.3292L4.55123 17.958L3.92239 17.3292C3.71897 17.1258 3.3891 17.1258 3.1856 17.3292C2.98219 17.5326 2.98219 17.8624 3.1856 18.0659L3.81449 18.6948L3.18564 19.3236C2.98223 19.5271 2.98223 19.8569 3.18564 20.0603C3.28739 20.1621 3.42068 20.2129 3.55401 20.2129C3.6873 20.2129 3.82068 20.1621 3.92239 20.0603L4.55123 19.4315L5.18008 20.0603C5.28183 20.1621 5.41512 20.2129 5.54845 20.2129C5.68179 20.2129 5.81512 20.1621 5.91682 20.0603C6.12024 19.8569 6.12024 19.5271 5.91682 19.3236L5.28802 18.6948Z" fill="currentFill"/>
<path d="M11.9776 17.3292C11.7741 17.1258 11.4444 17.1258 11.2408 17.3292L9.24637 19.3236C9.04299 19.5271 9.04299 19.8569 9.24641 20.0604C9.34816 20.1621 9.48145 20.213 9.61478 20.213C9.74811 20.213 9.88145 20.1621 9.98315 20.0604L11.9776 18.066C12.181 17.8625 12.181 17.5327 11.9776 17.3292Z" fill="currentFill"/>
<path d="M9.61468 18.1421C9.8601 18.1421 10.0591 17.9431 10.0591 17.6977C10.0591 17.4523 9.8601 17.2533 9.61468 17.2533C9.36925 17.2533 9.1703 17.4523 9.1703 17.6977C9.1703 17.9431 9.36925 18.1421 9.61468 18.1421Z" fill="currentFill"/>
<path d="M11.6094 20.1362C11.8548 20.1362 12.0537 19.9373 12.0537 19.6919C12.0537 19.4465 11.8548 19.2476 11.6094 19.2476C11.364 19.2476 11.1651 19.4465 11.1651 19.6919C11.1651 19.9373 11.364 20.1362 11.6094 20.1362Z" fill="currentFill"/>
<path d="M17.9892 13.4791H15.3264C15.0387 13.4791 14.8054 13.7123 14.8054 14.0001C14.8054 14.2877 15.0387 14.521 15.3264 14.521H17.9892C18.2769 14.521 18.5102 14.2877 18.5102 14.0001C18.5102 13.7123 18.2769 13.4791 17.9892 13.4791Z" fill="currentFill"/>
<path d="M17.9892 15.2974H15.3264C15.0387 15.2974 14.8054 15.5307 14.8054 15.8183C14.8054 16.106 15.0387 16.3393 15.3264 16.3393H17.9892C18.2769 16.3393 18.5102 16.106 18.5102 15.8183C18.5102 15.5307 18.2769 15.2974 17.9892 15.2974Z" fill="currentFill"/>
  </g>
 </symbol>

     <symbol id="menu__icon5" viewBox="0 0 22 22" >
  <g>
<circle cx="11" cy="11" r="10.15" fill="transparent" stroke="currentFill"/>
<path d="M8.15621 16.7619C8.05483 16.7619 7.96865 16.729 7.89769 16.6631C7.83686 16.5863 7.80644 16.493 7.80644 16.3833V14.2761H6.63548C6.53409 14.2761 6.44792 14.2431 6.37695 14.1773C6.31612 14.1005 6.28571 14.0072 6.28571 13.8974V13.5188C6.28571 13.409 6.31612 13.3212 6.37695 13.2554C6.44792 13.1786 6.53409 13.1401 6.63548 13.1401H7.80644V12.2018H6.63548C6.53409 12.2018 6.44792 12.1688 6.37695 12.103C6.31612 12.0262 6.28571 11.9329 6.28571 11.8231V11.2634C6.28571 11.1537 6.31612 11.0659 6.37695 11C6.44792 10.9232 6.53409 10.8848 6.63548 10.8848H7.80644V5.6332C7.80644 5.51247 7.83686 5.41919 7.89769 5.35334C7.96865 5.27651 8.05483 5.2381 8.15621 5.2381H12.0189C13.1645 5.2381 14.0668 5.53991 14.7258 6.14354C15.3848 6.74717 15.7143 7.61969 15.7143 8.76109C15.7143 9.88055 15.3848 10.7366 14.7258 11.3293C14.0769 11.9109 13.1746 12.2018 12.0189 12.2018H9.32718V13.1401H12.2622C12.3636 13.1401 12.4447 13.1786 12.5055 13.2554C12.5765 13.3212 12.612 13.409 12.612 13.5188V13.8974C12.612 14.0072 12.5765 14.1005 12.5055 14.1773C12.4447 14.2431 12.3636 14.2761 12.2622 14.2761H9.32718V16.3833C9.32718 16.493 9.2917 16.5863 9.22073 16.6631C9.14976 16.729 9.06359 16.7619 8.9622 16.7619H8.15621ZM11.9428 10.8848C12.6829 10.8848 13.2405 10.7037 13.6157 10.3415C14.0009 9.97932 14.1935 9.45252 14.1935 8.76109C14.1935 8.06966 14.006 7.54286 13.6309 7.18068C13.2558 6.80753 12.6931 6.62096 11.9428 6.62096H9.31197V10.8848H11.9428Z" fill="currentFill" stroke-width="0"/>
  </g>
 </symbol>
 
     <symbol id="menu__icon6" viewBox="0 0 24 24" >
  <g>
<path d="M21.874 9.69062L20.3299 9.42866C20.169 8.90934 19.9622 8.4084 19.7094 7.93044L20.6194 6.65741C21.0054 6.1151 20.9457 5.37518 20.4723 4.90641L19.1028 3.53687C18.8454 3.27951 18.5053 3.13704 18.1423 3.13704C17.8573 3.13704 17.5862 3.22436 17.3564 3.38981L16.0788 4.29977C15.5824 4.03781 15.0631 3.82181 14.5254 3.66096L14.268 2.13516C14.1577 1.47796 13.5924 1 12.9261 1H10.9912C10.3248 1 9.75956 1.47796 9.64926 2.13516L9.3827 3.69772C8.86798 3.85858 8.36704 4.06998 7.88908 4.32735L6.62524 3.41738C6.39545 3.25193 6.1197 3.16461 5.83476 3.16461C5.47169 3.16461 5.12701 3.30708 4.87424 3.56445L3.5001 4.93399C3.03134 5.40276 2.96699 6.14268 3.35304 6.68498L4.2722 7.97639C4.01943 8.45895 3.81721 8.95989 3.66096 9.47921L2.13516 9.73658C1.47796 9.84688 1 10.4122 1 11.0785V13.0134C1 13.6798 1.47796 14.245 2.13516 14.3553L3.69772 14.6219C3.85858 15.1366 4.06998 15.6376 4.32735 16.1155L3.42198 17.3748C3.03593 17.9171 3.09568 18.657 3.56904 19.1258L4.93858 20.4953C5.19595 20.7527 5.53604 20.8951 5.8991 20.8951C6.18404 20.8951 6.45519 20.8078 6.68498 20.6424L7.9764 19.7232C8.44057 19.9668 8.92772 20.1644 9.42866 20.3207L9.68603 21.8648C9.79632 22.522 10.3616 23 11.028 23H12.9674C13.6338 23 14.1991 22.522 14.3094 21.8648L14.5713 20.3207C15.0907 20.1598 15.5916 19.953 16.0696 19.7002L17.3426 20.6102C17.5724 20.7756 17.8481 20.863 18.1331 20.863C18.4961 20.863 18.8362 20.7205 19.0936 20.4631L20.4631 19.0936C20.9319 18.6248 20.9962 17.8849 20.6102 17.3426L19.7002 16.065C19.953 15.5824 20.1644 15.0815 20.3207 14.5667L21.8648 14.3094C22.522 14.1991 23 13.6338 23 12.9674V11.0326C23.0092 10.3662 22.5312 9.80092 21.874 9.69062ZM21.7683 12.9674C21.7683 13.0272 21.727 13.0777 21.6672 13.0869L19.737 13.4086C19.4934 13.45 19.3004 13.6292 19.2407 13.8636C19.066 14.5392 18.7995 15.1872 18.441 15.7892C18.3169 16.0006 18.3261 16.2626 18.4686 16.4648L19.6037 18.0641C19.6359 18.1101 19.6313 18.179 19.5899 18.2204L18.2204 19.5899C18.1882 19.6221 18.156 19.6267 18.1331 19.6267C18.1055 19.6267 18.0825 19.6175 18.0641 19.6037L16.4694 18.4686C16.2718 18.3261 16.0052 18.3169 15.7938 18.441C15.1918 18.7995 14.5438 19.066 13.8682 19.2407C13.6292 19.3004 13.45 19.498 13.4132 19.737L13.0869 21.6672C13.0777 21.727 13.0272 21.7683 12.9674 21.7683H11.0326C10.9728 21.7683 10.9223 21.727 10.9131 21.6672L10.5914 19.737C10.55 19.4934 10.3708 19.3004 10.1364 19.2407C9.47922 19.0706 8.845 18.8086 8.25214 18.4686C8.15563 18.4134 8.04533 18.3858 7.93963 18.3858C7.81554 18.3858 7.68686 18.4226 7.58116 18.5007L5.97263 19.6451C5.94966 19.6589 5.92668 19.6681 5.9037 19.6681C5.88531 19.6681 5.84855 19.6635 5.81638 19.6313L4.44684 18.2618C4.40547 18.2204 4.40088 18.156 4.43305 18.1055L5.56361 16.5199C5.70608 16.3177 5.71527 16.0512 5.59119 15.8398C5.23271 15.2423 4.95697 14.5943 4.78233 13.9187C4.71799 13.6844 4.52496 13.5051 4.28598 13.4638L2.34197 13.1329C2.28222 13.1237 2.24086 13.0731 2.24086 13.0134V11.0785C2.24086 11.0188 2.28222 10.9682 2.34197 10.9591L4.25841 10.6374C4.50199 10.596 4.6996 10.4168 4.75935 10.1778C4.92939 9.50219 5.19135 8.84959 5.54523 8.24755C5.66931 8.03614 5.65553 7.77418 5.51306 7.57656L4.36871 5.96804C4.33654 5.92208 4.34113 5.85314 4.38249 5.81178L5.75204 4.44224C5.78421 4.41007 5.81638 4.40547 5.83936 4.40547C5.86693 4.40547 5.88991 4.41466 5.90829 4.42845L7.49384 5.55901C7.69605 5.70148 7.96261 5.71068 8.17401 5.58659C8.77147 5.22812 9.41947 4.95237 10.095 4.77773C10.3294 4.71339 10.5087 4.52037 10.55 4.28139L10.8809 2.33737C10.8901 2.27763 10.9407 2.23626 11.0004 2.23626H12.9352C12.995 2.23626 13.0455 2.27763 13.0547 2.33737L13.3764 4.25381C13.4178 4.49739 13.597 4.69501 13.836 4.75475C14.53 4.92939 15.1918 5.20054 15.8076 5.56361C16.019 5.6877 16.281 5.6785 16.4832 5.53604L18.0687 4.39628C18.0917 4.38249 18.1147 4.3733 18.1377 4.3733C18.156 4.3733 18.1928 4.3779 18.225 4.41007L19.5945 5.77961C19.6359 5.82097 19.6405 5.88531 19.6083 5.93587L18.4732 7.5306C18.3307 7.72822 18.3215 7.99478 18.4456 8.20618C18.8041 8.80823 19.0706 9.45624 19.2452 10.1318C19.305 10.3708 19.5026 10.55 19.7416 10.5868L21.6718 10.9131C21.7316 10.9223 21.7729 10.9728 21.7729 11.0326V12.9674H21.7683Z" fill="currentFill"/>
<path d="M12.002 7.24925C9.38242 7.24925 7.25458 9.3771 7.25458 11.9967C7.25458 14.6163 9.38242 16.7441 12.002 16.7441C14.6216 16.7441 16.7495 14.6163 16.7495 11.9967C16.7495 9.3771 14.6216 7.24925 12.002 7.24925ZM12.002 15.5033C10.0672 15.5033 8.49544 13.9315 8.49544 11.9967C8.49544 10.0619 10.0672 8.49011 12.002 8.49011C13.9368 8.49011 15.5086 10.0619 15.5086 11.9967C15.5086 13.9315 13.9368 15.5033 12.002 15.5033Z" fill="currentFill"/>
  </g>
 </symbol>

      <symbol id="menu__icon7" viewBox="0 0 24 24" >
  <g>
<path fill-rule="evenodd" clip-rule="evenodd" d="M4.24633 0C3.80767 0 3.45179 0.355662 3.45179 0.794536C3.45179 1.06021 3.4558 1.32471 3.46313 1.58784H0.794536C0.355688 1.58784 0 1.94353 0 2.38238C0 5.29488 0.760956 8.04962 2.15041 10.1378C3.51025 12.1817 5.33017 13.3808 7.31456 13.5183C7.73097 13.9647 8.17069 14.336 8.62957 14.6276V17.2591H7.69829C6.30824 17.2591 5.17777 18.3898 5.17777 19.7797V20.7177C4.78815 20.7687 4.48742 21.1021 4.48742 21.5055C4.48742 21.9443 4.8431 22.3 5.28195 22.3H17.0182C17.4571 22.3 17.8128 21.9443 17.8128 21.5055C17.8128 21.1021 17.512 20.7687 17.1224 20.7177V19.7797C17.1224 18.3898 15.9919 17.2591 14.6019 17.2591H13.6706V14.6276C14.1295 14.3362 14.5694 13.9647 14.9858 13.5183C16.97 13.3808 18.7899 12.1817 20.1499 10.1378C21.5394 8.04962 22.3002 5.29487 22.3002 2.38238C22.3002 1.94353 21.9445 1.58784 21.5056 1.58784H18.837C18.8444 1.32471 18.8484 1.06021 18.8484 0.794536C18.8484 0.355662 18.4925 0 18.0538 0H4.24633ZM6.97911 10.2025C5.82483 7.89406 5.14694 4.86108 5.05238 1.58907H17.2478C17.1531 4.86109 16.4752 7.89423 15.3211 10.2025C14.9323 10.98 14.5083 11.6381 14.0602 12.1714C14.027 12.2038 13.9966 12.2392 13.9695 12.2772C13.5198 12.7919 13.0484 13.1793 12.5665 13.4354C12.5341 13.4491 12.5037 13.4649 12.4754 13.4815C12.04 13.6973 11.5962 13.8073 11.1501 13.8073C10.7042 13.8073 10.2607 13.6973 9.82546 13.482C9.79637 13.4647 9.76583 13.449 9.73362 13.4352C9.25158 13.1792 8.78023 12.7916 8.3304 12.2769C8.30344 12.2392 8.27339 12.204 8.24027 12.1715C7.79197 11.6382 7.36792 10.9801 6.97911 10.2025ZM3.47339 9.25758C2.38519 7.6223 1.73199 5.48761 1.60997 3.17691H3.55148C3.7956 6.08046 4.48513 8.76793 5.55784 10.9132C5.65858 11.1147 5.76204 11.3098 5.868 11.4985C4.98891 11.0603 4.1695 10.3039 3.47339 9.25758ZM16.7423 10.9132C17.815 8.76793 18.5044 6.08045 18.7487 3.17691H20.6902C20.5682 5.48761 19.915 7.62231 18.8268 9.2576C18.1307 10.3039 17.3113 11.0603 16.4322 11.4985C16.5381 11.3098 16.6416 11.1147 16.7423 10.9132ZM10.2186 17.2591V15.295C10.5245 15.3618 10.8354 15.3964 11.1501 15.3964C11.4648 15.3964 11.7756 15.3618 12.0815 15.295V17.2591H10.2186ZM6.76685 19.7797C6.76685 19.2663 7.18478 18.8482 7.69829 18.8482H14.6019C15.1154 18.8482 15.5333 19.2663 15.5333 19.7797V20.7111H6.76685V19.7797Z" fill="currentFill"/>
  </g>
 </symbol>

 
      <symbol id="menu__icon8" viewBox="0 0 23 23" >
  <g>
<path d="M18.3606 12.3039H10.1961V4.13937C10.1961 3.80944 9.93217 3.5455 9.60225 3.5455C4.44663 3.5455 0.25 7.74214 0.25 12.8978C0.25 18.0534 4.44663 22.25 9.60225 22.25C14.7579 22.25 18.9545 18.0534 18.9545 12.8978C18.9545 12.5722 18.6862 12.3039 18.3606 12.3039ZM9.60225 21.0623C5.10208 21.0623 1.43773 17.3979 1.43773 12.8978C1.43773 8.59554 4.78096 5.05875 9.00838 4.75522V12.8978C9.00838 13.2277 9.27232 13.4916 9.60225 13.4916H17.7448C17.4412 17.719 13.9045 21.0623 9.60225 21.0623Z" fill="currentFill"/>
<path d="M22.2458 9.57146C22.237 7.30158 21.4056 5.11528 19.9055 3.41287C18.1283 1.40253 15.5769 0.25 12.8935 0.25C12.5636 0.25 12.2997 0.513939 12.2997 0.843863V9.60225C12.2997 9.93217 12.5636 10.1961 12.8935 10.1961H21.6519C21.9818 10.1961 22.2458 9.93217 22.2458 9.60225C22.2458 9.59345 22.2458 9.58465 22.2458 9.57146ZM13.4874 9.01278V1.46412C15.6077 1.61809 17.596 2.59906 19.0125 4.20469C20.2002 5.54638 20.9041 7.23559 21.0361 9.01278H13.4874Z" fill="currentFill"/>
<path fill-rule="evenodd" clip-rule="evenodd" d="M12.0497 0.843863C12.0497 0.375868 12.4255 0 12.8935 0C15.6487 0 18.2683 1.1834 20.0928 3.24729C21.6329 4.99507 22.4867 7.24004 22.4958 9.57049L22.4958 9.57153V9.60158C22.4958 10.0696 22.1199 10.4461 21.6519 10.4461H12.8935C12.4255 10.4461 12.0497 10.0702 12.0497 9.60225V0.843863ZM12.8935 0.5C12.7017 0.5 12.5497 0.652011 12.5497 0.843863V9.60225C12.5497 9.7941 12.7017 9.94611 12.8935 9.94611H21.6519C21.8438 9.94611 21.9958 9.7941 21.9958 9.60225V9.57343L21.9958 9.57242C21.9871 7.36329 21.1779 5.23506 19.7179 3.57815C17.9881 1.62156 15.505 0.5 12.8935 0.5ZM13.2374 1.19531L13.5055 1.21478C15.691 1.37347 17.7402 2.38452 19.2 4.0393C20.4243 5.4224 21.1494 7.16336 21.2854 8.99427L21.3053 9.26278H13.2374V1.19531ZM13.7374 1.73755V8.76278H20.7623C20.5864 7.13834 19.9164 5.60292 18.8253 4.3704C17.5121 2.8818 15.6915 1.94678 13.7374 1.73755ZM0 12.8978C0 7.60407 4.30856 3.2955 9.60225 3.2955C10.0702 3.2955 10.4461 3.67137 10.4461 4.13937V12.0539H18.3606C18.8242 12.0539 19.2045 12.4342 19.2045 12.8978C19.2045 18.1914 14.8959 22.5 9.60225 22.5C4.30856 22.5 0 18.1914 0 12.8978ZM9.60225 3.7955C4.58471 3.7955 0.5 7.88021 0.5 12.8978C0.5 17.9153 4.58471 22 9.60225 22C14.6198 22 18.7045 17.9153 18.7045 12.8978C18.7045 12.7103 18.5481 12.5539 18.3606 12.5539H9.94611V4.13937C9.94611 3.94751 9.7941 3.7955 9.60225 3.7955ZM9.25838 4.48663V12.8978C9.25838 13.0896 9.4104 13.2416 9.60225 13.2416H18.0134L17.9941 13.5095C17.6813 17.8668 14.0365 21.3123 9.60225 21.3123C4.96401 21.3123 1.18773 17.536 1.18773 12.8978C1.18773 8.46352 4.63316 4.81872 8.99048 4.50587L9.25838 4.48663ZM8.75838 5.02839C4.78837 5.4493 1.68773 8.81887 1.68773 12.8978C1.68773 17.2598 5.24015 20.8123 9.60225 20.8123C13.6811 20.8123 17.0507 17.7116 17.4716 13.7416H9.60225C9.13425 13.7416 8.75838 13.3657 8.75838 12.8978V5.02839Z" fill="currentFill"/>
  </g>
 </symbol>

       <symbol id="menu__icon9" viewBox="0 0 18 23" >
  <g>
<path d="M17.127 5.96864H3.72762C2.48602 5.96864 1.47098 4.95814 1.47098 3.712C1.47098 2.47039 2.48149 1.45536 3.72762 1.45536H17.1315C17.4669 1.45536 17.7342 1.18347 17.7342 0.852678C17.7342 0.517353 17.4623 0.25 17.1315 0.25H3.72762C1.8199 0.25 0.265625 1.80427 0.265625 3.712V18.788C0.265625 20.6957 1.8199 22.25 3.72762 22.25H17.1315C17.4669 22.25 17.7342 21.9781 17.7342 21.6473V6.57132C17.7297 6.24053 17.4623 5.96864 17.127 5.96864ZM16.5243 21.0446H3.72762C2.48602 21.0446 1.47098 20.0341 1.47098 18.788V6.34022C2.07819 6.86133 2.86666 7.17853 3.72762 7.17853H16.5243V21.0446Z" fill="currentFill"/>
<path d="M3.91811 3.1637C3.58278 3.1637 3.31543 3.43558 3.31543 3.76637C3.31543 4.09717 3.58731 4.36905 3.91811 4.36905H15.2376C15.5729 4.36905 15.8403 4.09717 15.8403 3.76637C15.8403 3.43558 15.5684 3.1637 15.2376 3.1637H3.91811Z" fill="currentFill"/>
<path d="M6.03853 18.4074C6.1065 18.43 6.17447 18.4436 6.24244 18.4436C6.49167 18.4436 6.72277 18.2896 6.80887 18.0449L7.54296 15.9921H10.3706C10.3932 15.9921 10.4204 15.9921 10.4431 15.9876L11.1772 18.0449C11.2632 18.2896 11.4989 18.4436 11.7436 18.4436C11.8115 18.4436 11.8795 18.43 11.9475 18.4074C12.2602 18.2941 12.4233 17.9497 12.31 17.637L9.56397 9.93816C9.55944 9.92004 9.55037 9.90191 9.54131 9.88379C9.53678 9.87472 9.53225 9.86566 9.52772 9.8566C9.52319 9.84753 9.51866 9.83847 9.51412 9.82941C9.50959 9.82034 9.50053 9.81128 9.496 9.79769C9.49147 9.79316 9.48693 9.78409 9.4824 9.77956C9.47787 9.7705 9.46881 9.76144 9.45975 9.75237C9.45521 9.74784 9.45068 9.73878 9.44162 9.73425C9.43709 9.72519 9.42803 9.72065 9.41896 9.71159C9.4099 9.70253 9.40537 9.698 9.39631 9.68893C9.39178 9.6844 9.38271 9.67987 9.37818 9.67081C9.36912 9.66175 9.36006 9.65721 9.35099 9.64815C9.34646 9.64362 9.3374 9.63909 9.33287 9.63456C9.3238 9.63003 9.31474 9.62096 9.30568 9.61643C9.29662 9.6119 9.28755 9.60737 9.27849 9.60284C9.26943 9.59831 9.26036 9.59377 9.2513 9.58924C9.23318 9.58018 9.21505 9.57112 9.19692 9.56659H9.19239C9.17427 9.56205 9.15614 9.55752 9.13802 9.55299C9.12895 9.55299 9.12442 9.54846 9.11536 9.54846C9.10177 9.54393 9.0927 9.54393 9.07911 9.5394C9.07005 9.5394 9.06098 9.5394 9.05192 9.53487C9.04286 9.53487 9.02926 9.53033 9.0202 9.53033C9.01114 9.53033 9.00207 9.53033 8.99301 9.53033C8.98395 9.53033 8.97489 9.53033 8.96129 9.53033C8.95223 9.53033 8.93863 9.53033 8.92957 9.53487C8.92051 9.53487 8.91145 9.53487 8.90238 9.5394C8.88879 9.5394 8.87973 9.54393 8.86613 9.54846C8.85707 9.54846 8.85254 9.55299 8.84347 9.55299C8.82535 9.55752 8.80722 9.56205 8.79363 9.56659H8.7891C8.77097 9.57112 8.75285 9.58018 8.73472 9.58924C8.72566 9.59377 8.7166 9.59831 8.70753 9.60284C8.69847 9.60737 8.68941 9.6119 8.68034 9.61643C8.67128 9.62096 8.66222 9.63003 8.64862 9.63456C8.64409 9.63909 8.63503 9.64362 8.6305 9.64815C8.62144 9.65721 8.61237 9.66175 8.60331 9.67081C8.59878 9.67534 8.58972 9.67987 8.58518 9.68893C8.57612 9.698 8.57159 9.70253 8.56253 9.71159C8.55346 9.72065 8.54893 9.72519 8.53987 9.73425C8.53534 9.73878 8.53081 9.74784 8.52174 9.75237C8.51268 9.76144 8.50815 9.7705 8.49909 9.77956C8.49456 9.78409 8.49002 9.79316 8.48549 9.79769C8.48096 9.80675 8.4719 9.81581 8.46737 9.82488C8.46284 9.83394 8.4583 9.843 8.45377 9.85206C8.44924 9.86113 8.44471 9.87019 8.44018 9.87925C8.43112 9.89738 8.42205 9.9155 8.41752 9.93363L5.66242 17.6325C5.56273 17.9497 5.72586 18.2941 6.03853 18.4074ZM8.99754 11.932L10.0171 14.7868H7.97344L8.99754 11.932Z" fill="currentFill"/>
  </g>
 </symbol>

<symbol id="menu__icon10" viewBox="0 0 22 22" >
  <g>
<path d="M11.0365 20.0997H19.2592C19.7635 20.0997 20.1728 19.6904 20.1728 19.1861V2.74089C20.1728 2.23657 19.7634 1.82729 19.2592 1.82729H11.0365C10.5313 1.82729 10.1229 1.41891 10.1229 0.913687C10.1229 0.408461 10.5313 0 11.0365 0H19.2592C20.7703 0 22 1.22977 22 2.74089V19.1861C22 20.6972 20.7703 21.9269 19.2592 21.9269H11.0365C10.5313 21.9269 10.1229 21.5185 10.1229 21.0133C10.1229 20.5081 10.5313 20.0997 11.0365 20.0997Z" fill="currentFill"/>
<path d="M0.27225 10.313L5.82708 4.83124C6.18522 4.47675 6.76444 4.48135 7.11893 4.84039C7.47343 5.19944 7.46977 5.77776 7.10978 6.13225L3.14011 10.0498H13.7774C14.2826 10.0498 14.691 10.4582 14.691 10.9634C14.691 11.4687 14.2826 11.8771 13.7774 11.8771H3.14011L7.10978 15.7947C7.46973 16.1492 7.47248 16.7275 7.11893 17.0865C6.93988 17.2674 6.70416 17.3588 6.46843 17.3588C6.23636 17.3588 6.00432 17.2711 5.82708 17.0956L0.27225 11.6139C0.0986562 11.4422 0 11.2082 0 10.9634C0 10.7186 0.0977539 10.4857 0.27225 10.313Z" fill="currentFill"/>
  </g>
 </symbol>

<symbol id="controls__search" viewBox="0 0 16 16" >
  <g>
<path d="M15.2124 14.5735L11.4044 10.6129C12.3835 9.44901 12.92 7.98455 12.92 6.45999C12.92 2.89801 10.022 0 6.45999 0C2.89801 0 0 2.89801 0 6.45999C0 10.022 2.89801 12.92 6.45999 12.92C7.79721 12.92 9.07152 12.5167 10.161 11.751L13.998 15.7416C14.1583 15.9082 14.374 16 14.6052 16C14.824 16 15.0316 15.9166 15.1891 15.7649C15.5239 15.4428 15.5346 14.9085 15.2124 14.5735ZM6.45999 1.68522C9.09286 1.68522 11.2348 3.82713 11.2348 6.45999C11.2348 9.09286 9.09286 11.2348 6.45999 11.2348C3.82713 11.2348 1.68522 9.09286 1.68522 6.45999C1.68522 3.82713 3.82713 1.68522 6.45999 1.68522Z" fill="#B4B3BB"/>
  </g>
 </symbol>

 <symbol id="controls__filtr" viewBox="0 0 22 21" >
  <g>
<path d="M11.2519 11.2978H20.4378C20.7502 11.2978 21 11.048 21 10.7357C21 10.4234 20.7502 10.1735 20.4378 10.1735H11.2519C10.9896 8.87018 9.83614 7.8833 8.45367 7.8833C7.0712 7.8833 5.91776 8.87018 5.65542 10.1735L1.56631 10.1735C1.25401 10.1735 1.00416 10.4234 1.00416 10.7357C1.00416 11.048 1.25401 11.2978 1.56631 11.2978H5.65542C5.91776 12.6012 7.0712 13.5881 8.45367 13.5881C9.83198 13.5881 10.9896 12.6053 11.2519 11.2978ZM6.72559 10.7357C6.72559 9.78211 7.5001 9.0076 8.45367 9.0076C9.40724 9.0076 10.1818 9.78211 10.1818 10.7357C10.1818 11.6893 9.40724 12.4638 8.45367 12.4638C7.5001 12.4638 6.72559 11.6893 6.72559 10.7357Z" fill="currentFill"/>
<path d="M15.9656 4.41453L20.4378 4.41453C20.7502 4.41453 21 4.16469 21 3.85238C21 3.54008 20.7502 3.29024 20.4378 3.29024L15.9656 3.29023C15.7033 1.98688 14.5499 1 13.1674 1C11.7849 1 10.6315 1.98688 10.3691 3.29023L1.56631 3.29023C1.25401 3.29023 1.00416 3.54008 1.00416 3.85238C1.00416 4.16469 1.25401 4.41453 1.56631 4.41453L10.3733 4.41453C10.6356 5.71788 11.7891 6.70477 13.1716 6.70477C14.554 6.70477 15.7033 5.71788 15.9656 4.41453ZM11.4393 3.85238C11.4393 2.89881 12.2138 2.1243 13.1674 2.1243C14.121 2.1243 14.8955 2.89881 14.8955 3.85238C14.8955 4.80595 14.121 5.58047 13.1674 5.58047C12.2138 5.58047 11.4393 4.80179 11.4393 3.85238Z" fill="currentFill"/>
<path d="M15.9656 18.1391L20.4378 18.1391C20.7502 18.1391 21 17.8893 21 17.577C21 17.2647 20.7502 17.0148 20.4378 17.0148H15.9656C15.7033 15.7115 14.5499 14.7246 13.1674 14.7246C11.7849 14.7246 10.6315 15.7115 10.3691 17.0148H1.56215C1.24984 17.0148 1 17.2647 1 17.577C1 17.8893 1.24984 18.1391 1.56215 18.1391H10.3733C10.6356 19.4425 11.7891 20.4294 13.1716 20.4294C14.554 20.4294 15.7033 19.4467 15.9656 18.1391ZM11.4393 17.577C11.4393 16.6234 12.2138 15.8489 13.1674 15.8489C14.121 15.8489 14.8955 16.6234 14.8955 17.577C14.8955 18.5306 14.121 19.3051 13.1674 19.3051C12.2138 19.3051 11.4393 18.5306 11.4393 17.577Z" fill="currentFill"/>
<path d="M11.2519 11.2978H20.4378C20.7502 11.2978 21 11.048 21 10.7357C21 10.4234 20.7502 10.1735 20.4378 10.1735H11.2519C10.9896 8.87018 9.83614 7.8833 8.45367 7.8833C7.0712 7.8833 5.91776 8.87018 5.65542 10.1735L1.56631 10.1735C1.25401 10.1735 1.00416 10.4234 1.00416 10.7357C1.00416 11.048 1.25401 11.2978 1.56631 11.2978H5.65542C5.91776 12.6012 7.0712 13.5881 8.45367 13.5881C9.83198 13.5881 10.9896 12.6053 11.2519 11.2978ZM6.72559 10.7357C6.72559 9.78211 7.5001 9.0076 8.45367 9.0076C9.40724 9.0076 10.1818 9.78211 10.1818 10.7357C10.1818 11.6893 9.40724 12.4638 8.45367 12.4638C7.5001 12.4638 6.72559 11.6893 6.72559 10.7357Z" fill="currentFill"/>
<path d="M15.9656 4.41453L20.4378 4.41453C20.7502 4.41453 21 4.16469 21 3.85238C21 3.54008 20.7502 3.29024 20.4378 3.29024L15.9656 3.29023C15.7033 1.98688 14.5499 1 13.1674 1C11.7849 1 10.6315 1.98688 10.3691 3.29023L1.56631 3.29023C1.25401 3.29023 1.00416 3.54008 1.00416 3.85238C1.00416 4.16469 1.25401 4.41453 1.56631 4.41453L10.3733 4.41453C10.6356 5.71788 11.7891 6.70477 13.1716 6.70477C14.554 6.70477 15.7033 5.71788 15.9656 4.41453ZM11.4393 3.85238C11.4393 2.89881 12.2138 2.1243 13.1674 2.1243C14.121 2.1243 14.8955 2.89881 14.8955 3.85238C14.8955 4.80595 14.121 5.58047 13.1674 5.58047C12.2138 5.58047 11.4393 4.80179 11.4393 3.85238Z" fill="currentFill"/>
<path d="M15.9656 18.1391L20.4378 18.1391C20.7502 18.1391 21 17.8893 21 17.577C21 17.2647 20.7502 17.0148 20.4378 17.0148H15.9656C15.7033 15.7115 14.5499 14.7246 13.1674 14.7246C11.7849 14.7246 10.6315 15.7115 10.3691 17.0148H1.56215C1.24984 17.0148 1 17.2647 1 17.577C1 17.8893 1.24984 18.1391 1.56215 18.1391H10.3733C10.6356 19.4425 11.7891 20.4294 13.1716 20.4294C14.554 20.4294 15.7033 19.4467 15.9656 18.1391ZM11.4393 17.577C11.4393 16.6234 12.2138 15.8489 13.1674 15.8489C14.121 15.8489 14.8955 16.6234 14.8955 17.577C14.8955 18.5306 14.121 19.3051 13.1674 19.3051C12.2138 19.3051 11.4393 18.5306 11.4393 17.577Z" fill="currentFill"/>
  </g>
 </symbol>

 <symbol id="user_icon1" viewBox="0 0 16 9" >
  <g>
<path d="M15.9151 8.12799C15.8958 8.08682 15.8777 8.05268 15.8609 8.02532C15.5833 7.5324 15.0528 6.92739 14.2698 6.21009L14.2533 6.19367L14.245 6.18561L14.2366 6.17736H14.2282C13.8728 5.84335 13.6478 5.61877 13.5535 5.50379C13.3811 5.28476 13.3424 5.06305 13.4367 4.83841C13.5033 4.66869 13.7534 4.31026 14.1864 3.76263C14.4142 3.4724 14.5946 3.2398 14.7279 3.06455C15.6887 1.80515 16.1053 1.00038 15.9775 0.649913L15.9279 0.568014C15.8945 0.518708 15.8084 0.473602 15.6698 0.432466C15.5308 0.391416 15.3531 0.384627 15.1364 0.411984L12.7373 0.428324C12.6985 0.414746 12.643 0.416011 12.5707 0.432466C12.4984 0.44892 12.4623 0.457177 12.4623 0.457177L12.4206 0.477745L12.3874 0.502455C12.3596 0.518794 12.3291 0.547533 12.2957 0.588611C12.2626 0.629546 12.2348 0.677586 12.2126 0.732329C11.9514 1.39485 11.6545 2.01083 11.3212 2.58024C11.1157 2.91977 10.9269 3.21402 10.7546 3.46317C10.5825 3.71223 10.4381 3.89573 10.3215 4.01336C10.2048 4.1311 10.0995 4.22543 10.0049 4.29668C9.91044 4.36797 9.83834 4.39808 9.78842 4.38707C9.73838 4.37605 9.69125 4.36512 9.64664 4.35419C9.56894 4.30488 9.50644 4.23782 9.45932 4.15296C9.41199 4.0681 9.38013 3.96129 9.36347 3.83262C9.3469 3.70386 9.33709 3.59311 9.33429 3.49999C9.33169 3.40699 9.33289 3.27544 9.33852 3.10572C9.3443 2.93591 9.3469 2.82101 9.3469 2.76078C9.3469 2.55268 9.35101 2.32683 9.35927 2.08318C9.36767 1.83953 9.37447 1.64647 9.38016 1.50425C9.38582 1.36189 9.38844 1.21126 9.38844 1.05247C9.38844 0.893681 9.37864 0.76915 9.35927 0.678765C9.34013 0.588496 9.31074 0.500873 9.27203 0.415925C9.23307 0.331064 9.17606 0.265419 9.10125 0.218817C9.02629 0.172272 8.93309 0.135336 8.82219 0.107893C8.52781 0.0422185 8.15296 0.00669179 7.69747 0.00116861C6.66454 -0.0097627 6.00083 0.0559976 5.70648 0.198363C5.58985 0.258514 5.48432 0.3407 5.38996 0.444663C5.28996 0.565166 5.27602 0.630927 5.3482 0.641743C5.68147 0.690963 5.91741 0.808704 6.05626 0.994853L6.1063 1.09349C6.14523 1.16466 6.18409 1.29066 6.22299 1.47131C6.26182 1.65197 6.28689 1.85181 6.29792 2.07072C6.32563 2.47049 6.32563 2.8127 6.29792 3.09737C6.27011 3.38216 6.24385 3.60387 6.21878 3.76266C6.19372 3.92145 6.15626 4.05012 6.1063 4.14865C6.05626 4.2472 6.02297 4.30744 6.00628 4.3293C5.98962 4.35117 5.97573 4.36494 5.9647 4.37035C5.89252 4.39762 5.81744 4.41152 5.73974 4.41152C5.66192 4.41152 5.56756 4.37314 5.45651 4.29645C5.34549 4.21976 5.23027 4.11442 5.11084 3.98025C4.99141 3.84605 4.85673 3.65852 4.70673 3.41763C4.55684 3.17674 4.40132 2.89204 4.24026 2.56352L4.107 2.32528C4.0237 2.17201 3.9099 1.94884 3.7655 1.65597C3.62101 1.36298 3.4933 1.07957 3.38228 0.805799C3.3379 0.690819 3.27123 0.603282 3.18238 0.543045L3.14069 0.518334C3.11297 0.496472 3.06847 0.473257 3.00743 0.448518C2.9463 0.423807 2.88252 0.406087 2.81582 0.395184L0.533256 0.411524C0.300008 0.411524 0.141747 0.46362 0.0584143 0.567669L0.0250639 0.616888C0.00840325 0.644303 0 0.688086 0 0.748352C0 0.808589 0.0166606 0.882519 0.050011 0.970056C0.383223 1.74215 0.745584 2.48677 1.13709 3.20404C1.5286 3.92131 1.86882 4.49908 2.15753 4.93685C2.44631 5.37494 2.74066 5.7884 3.04058 6.17704C3.3405 6.56582 3.53902 6.81497 3.63616 6.92442C3.73341 7.03408 3.80979 7.11607 3.86532 7.17081L4.07362 7.36789C4.20691 7.49932 4.40263 7.65673 4.66089 7.84012C4.9192 8.02362 5.20517 8.20428 5.51895 8.38237C5.83279 8.56018 6.19789 8.70528 6.61447 8.81749C7.03098 8.92983 7.43638 8.97491 7.83072 8.95316H8.78875C8.98305 8.93662 9.13025 8.87638 9.2303 8.77242L9.26345 8.73125C9.28574 8.69857 9.3066 8.6478 9.32586 8.57948C9.34535 8.51104 9.35504 8.43565 9.35504 8.35363C9.34935 8.11824 9.36752 7.90608 9.40907 7.7172C9.45059 7.52838 9.49792 7.38601 9.55085 7.29013C9.60375 7.19434 9.66345 7.11351 9.72989 7.04798C9.79647 6.9823 9.84391 6.94252 9.87175 6.92882C9.89941 6.91505 9.9215 6.9057 9.93816 6.90009C10.0714 6.8563 10.2283 6.89871 10.409 7.02749C10.5895 7.15617 10.7588 7.31504 10.9172 7.50387C11.0755 7.69286 11.2657 7.9049 11.4878 8.1403C11.71 8.37578 11.9043 8.55083 12.0709 8.66598L12.2374 8.76453C12.3487 8.8303 12.4931 8.89053 12.6708 8.94528C12.8482 8.99999 13.0037 9.01368 13.1372 8.98633L15.2697 8.95353C15.4807 8.95353 15.6448 8.9191 15.7612 8.85078C15.8779 8.78234 15.9472 8.70694 15.9695 8.62493C15.9918 8.54283 15.993 8.44969 15.9737 8.34555C15.954 8.24167 15.9345 8.16904 15.9151 8.12799Z" fill="currentFill"/>
  </g>
 </symbol>

  <symbol id="user_icon2" viewBox="0 0 10 10" >
  <g>
<path d="M9.99523 7.89194C10.0164 8.05438 9.96695 8.19562 9.84703 8.31566L8.43905 9.71391C8.37553 9.78454 8.29262 9.84462 8.19029 9.894C8.08795 9.94345 7.9874 9.97523 7.88863 9.98934C7.88157 9.98934 7.86035 9.99115 7.82504 9.99469C7.78981 9.9982 7.74393 10 7.68747 10C7.55334 10 7.33631 9.97705 7.03636 9.93113C6.73642 9.88521 6.36944 9.77219 5.93544 9.59214C5.50133 9.41206 5.00909 9.1419 4.45861 8.78176C3.90814 8.42165 3.32235 7.92726 2.70129 7.29872C2.20726 6.81143 1.79792 6.34533 1.47328 5.90043C1.14863 5.4555 0.887502 5.04413 0.689891 4.66631C0.492263 4.28848 0.344055 3.94597 0.245249 3.63876C0.146444 3.33156 0.0793973 3.06673 0.0441096 2.84427C0.00882192 2.62182 -0.00529315 2.44703 0.00176438 2.31991C0.00882192 2.19279 0.0123507 2.12217 0.0123507 2.10805C0.0264658 2.00918 0.0582247 1.90854 0.107627 1.80614C0.15703 1.70374 0.217019 1.62076 0.287595 1.5572L1.69557 0.148305C1.79438 0.0494349 1.9073 0 2.03433 0C2.12608 0 2.20724 0.026483 2.27782 0.079449C2.34839 0.132415 2.40838 0.19774 2.45779 0.275423L3.59052 2.42584C3.65404 2.53884 3.67168 2.66242 3.64345 2.79661C3.61522 2.93079 3.55523 3.04378 3.46349 3.13559L2.94476 3.65465C2.93064 3.66878 2.91829 3.69173 2.9077 3.72351C2.89712 3.75529 2.89182 3.78177 2.89182 3.80296C2.92005 3.95126 2.98357 4.12076 3.08238 4.31143C3.16707 4.48092 3.29763 4.68749 3.47407 4.93114C3.65051 5.17478 3.90105 5.45548 4.2257 5.77328C4.54329 6.09817 4.82559 6.35061 5.0726 6.53073C5.31956 6.71074 5.52607 6.84321 5.69192 6.92795C5.85777 7.0127 5.98481 7.0639 6.07301 7.0815L6.2053 7.108C6.21942 7.108 6.24241 7.10269 6.27413 7.09211C6.30589 7.0815 6.32883 7.06916 6.34296 7.05502L6.94636 6.44062C7.07347 6.32764 7.22161 6.27114 7.391 6.27114C7.51102 6.27114 7.60624 6.29231 7.67682 6.3347H7.68738L9.73052 7.54233C9.87878 7.6342 9.96699 7.75069 9.99523 7.89194Z" fill="currentFill"/>
  </g>
 </symbol>

  <symbol id="user_icon3" viewBox="0 0 12 12" >
  <g>
<path d="M9.99523 7.89194C10.0164 8.05438 9.96695 8.19562 9.84703 8.31566L8.43905 9.71391C8.37553 9.78454 8.29262 9.84462 8.19029 9.894C8.08795 9.94345 7.9874 9.97523 7.88863 9.98934C7.88157 9.98934 7.86035 9.99115 7.82504 9.99469C7.78981 9.9982 7.74393 10 7.68747 10C7.55334 10 7.33631 9.97705 7.03636 9.93113C6.73642 9.88521 6.36944 9.77219 5.93544 9.59214C5.50133 9.41206 5.00909 9.1419 4.45861 8.78176C3.90814 8.42165 3.32235 7.92726 2.70129 7.29872C2.20726 6.81143 1.79792 6.34533 1.47328 5.90043C1.14863 5.4555 0.887502 5.04413 0.689891 4.66631C0.492263 4.28848 0.344055 3.94597 0.245249 3.63876C0.146444 3.33156 0.0793973 3.06673 0.0441096 2.84427C0.00882192 2.62182 -0.00529315 2.44703 0.00176438 2.31991C0.00882192 2.19279 0.0123507 2.12217 0.0123507 2.10805C0.0264658 2.00918 0.0582247 1.90854 0.107627 1.80614C0.15703 1.70374 0.217019 1.62076 0.287595 1.5572L1.69557 0.148305C1.79438 0.0494349 1.9073 0 2.03433 0C2.12608 0 2.20724 0.026483 2.27782 0.079449C2.34839 0.132415 2.40838 0.19774 2.45779 0.275423L3.59052 2.42584C3.65404 2.53884 3.67168 2.66242 3.64345 2.79661C3.61522 2.93079 3.55523 3.04378 3.46349 3.13559L2.94476 3.65465C2.93064 3.66878 2.91829 3.69173 2.9077 3.72351C2.89712 3.75529 2.89182 3.78177 2.89182 3.80296C2.92005 3.95126 2.98357 4.12076 3.08238 4.31143C3.16707 4.48092 3.29763 4.68749 3.47407 4.93114C3.65051 5.17478 3.90105 5.45548 4.2257 5.77328C4.54329 6.09817 4.82559 6.35061 5.0726 6.53073C5.31956 6.71074 5.52607 6.84321 5.69192 6.92795C5.85777 7.0127 5.98481 7.0639 6.07301 7.0815L6.2053 7.108C6.21942 7.108 6.24241 7.10269 6.27413 7.09211C6.30589 7.0815 6.32883 7.06916 6.34296 7.05502L6.94636 6.44062C7.07347 6.32764 7.22161 6.27114 7.391 6.27114C7.51102 6.27114 7.60624 6.29231 7.67682 6.3347H7.68738L9.73052 7.54233C9.87878 7.6342 9.96699 7.75069 9.99523 7.89194Z" fill="currentFill"/>
  </g>
 </symbol>

  <symbol id="user_icon4" viewBox="0 0 14 14" >
  <g>
<path fill-rule="evenodd" clip-rule="evenodd" d="M7 1C8.91261 1 10.4688 2.55612 10.4688 4.46875C10.4688 6.38138 8.91261 7.9375 7 7.9375C4.36644 7.9375 2.19606 9.95892 1.95898 12.5317C1.93522 12.7895 1.72763 13 1.46875 13C1.20987 13 0.998091 12.7898 1.01789 12.5317C1.12727 11.1055 1.73523 9.77949 2.75734 8.75735C3.41087 8.10385 4.1887 7.62009 5.03737 7.3273C4.12844 6.70117 3.53125 5.65344 3.53125 4.46875C3.53125 2.55612 5.08739 1 7 1ZM4.46875 4.46875C4.46875 5.86447 5.60427 7 7 7C8.39573 7 9.53125 5.86447 9.53125 4.46875C9.53125 3.07303 8.39573 1.9375 7 1.9375C5.60427 1.9375 4.46875 3.07303 4.46875 4.46875Z" fill="#BFC0C4"/>
<path d="M9.01562 10.187C8.75674 10.187 8.54688 10.3969 8.54688 10.6558C8.54688 10.9147 8.75674 11.1245 9.01562 11.1245H10.3047V12.5145C10.3047 12.7734 10.5146 12.9833 10.7734 12.9833C11.0323 12.9833 11.2422 12.7734 11.2422 12.5145V11.1245H12.5312C12.7901 11.1245 13 10.9147 13 10.6558C13 10.3969 12.7901 10.187 12.5312 10.187H11.2422V8.73772C11.2422 8.47884 11.0323 8.26897 10.7734 8.26897C10.5146 8.26897 10.3047 8.47884 10.3047 8.73772V10.187H9.01562Z" fill="#BFC0C4"/>
<path fill-rule="evenodd" clip-rule="evenodd" d="M7 1C8.91261 1 10.4688 2.55612 10.4688 4.46875C10.4688 6.38138 8.91261 7.9375 7 7.9375C4.36644 7.9375 2.19606 9.95892 1.95898 12.5317C1.93522 12.7895 1.72763 13 1.46875 13C1.20987 13 0.998091 12.7898 1.01789 12.5317C1.12727 11.1055 1.73523 9.77949 2.75734 8.75735C3.41087 8.10385 4.1887 7.62009 5.03737 7.3273C4.12844 6.70117 3.53125 5.65344 3.53125 4.46875C3.53125 2.55612 5.08739 1 7 1ZM4.46875 4.46875C4.46875 5.86447 5.60427 7 7 7C8.39573 7 9.53125 5.86447 9.53125 4.46875C9.53125 3.07303 8.39573 1.9375 7 1.9375C5.60427 1.9375 4.46875 3.07303 4.46875 4.46875Z" stroke="#BFC0C4" stroke-width="0.5"/>
<path d="M9.01562 10.187C8.75674 10.187 8.54688 10.3969 8.54688 10.6558C8.54688 10.9147 8.75674 11.1245 9.01562 11.1245H10.3047V12.5145C10.3047 12.7734 10.5146 12.9833 10.7734 12.9833C11.0323 12.9833 11.2422 12.7734 11.2422 12.5145V11.1245H12.5312C12.7901 11.1245 13 10.9147 13 10.6558C13 10.3969 12.7901 10.187 12.5312 10.187H11.2422V8.73772C11.2422 8.47884 11.0323 8.26897 10.7734 8.26897C10.5146 8.26897 10.3047 8.47884 10.3047 8.73772V10.187H9.01562Z" stroke="#BFC0C4" stroke-width="0.5"/>
   </g>
 </symbol>


  <symbol id="user_icon5" viewBox="0 0 10 10" >
  <g>
<path d="M9.25595 1.20988H8.4375V0.691047C8.4375 0.309395 8.10438 0 7.69345 0H7.66369C7.25277 0 6.91964 0.309395 6.91964 0.691047V1.20988H3.08036V0.691047C3.08036 0.309395 2.74723 0 2.33631 0H2.30655C1.89563 0 1.5625 0.309395 1.5625 0.691047V1.20988H0.744048C0.333125 1.20988 0 1.51928 0 1.90093V9.30895C0 9.69066 0.333125 10 0.744048 10H9.25595C9.66688 10 10 9.69066 10 9.30895V1.90093C10 1.51928 9.66685 1.20988 9.25595 1.20988ZM8.75 8.90815H1.25V3.29685H8.75V8.90815Z" fill="#BFC0C4"/>
<path d="M2.26929 5.83618H3.56387C3.62962 5.83618 3.68292 5.78668 3.68292 5.72562V4.52326C3.68292 4.4622 3.62962 4.41269 3.56387 4.41269H2.26929C2.20354 4.41269 2.15024 4.4622 2.15024 4.52326V5.72562C2.15024 5.78668 2.20354 5.83618 2.26929 5.83618Z" fill="#BFC0C4"/>
<path d="M4.35283 5.83618H5.64741C5.71315 5.83618 5.76646 5.78668 5.76646 5.72562V4.52326C5.76646 4.4622 5.71315 4.41269 5.64741 4.41269H4.35283C4.28708 4.41269 4.23378 4.4622 4.23378 4.52326V5.72562C4.23378 5.78668 4.28708 5.83618 4.35283 5.83618Z" fill="#BFC0C4"/>
<path d="M6.43636 5.83618H7.73096C7.7967 5.83618 7.85 5.78668 7.85 5.72562V4.52326C7.85 4.4622 7.7967 4.41269 7.73096 4.41269H6.43636C6.37062 4.41269 6.31732 4.4622 6.31732 4.52326V5.72562C6.31732 5.78668 6.37062 5.83618 6.43636 5.83618Z" fill="#BFC0C4"/>
<path d="M2.26929 7.77101H3.56387C3.62962 7.77101 3.68292 7.72151 3.68292 7.66044V6.45807C3.68292 6.39701 3.62962 6.3475 3.56387 6.3475H2.26929C2.20354 6.3475 2.15024 6.39701 2.15024 6.45807V7.66044C2.15024 7.72151 2.20354 7.77101 2.26929 7.77101Z" fill="#BFC0C4"/>
<path d="M4.35283 7.77101H5.64741C5.71315 7.77101 5.76646 7.72151 5.76646 7.66044V6.45807C5.76646 6.39701 5.71315 6.3475 5.64741 6.3475H4.35283C4.28708 6.3475 4.23378 6.39701 4.23378 6.45807V7.66044C4.23378 7.72151 4.28708 7.77101 4.35283 7.77101Z" fill="#BFC0C4"/>
<path d="M6.43636 7.77101H7.73096C7.7967 7.77101 7.85 7.72151 7.85 7.66044V6.45807C7.85 6.39701 7.7967 6.3475 7.73096 6.3475H6.43636C6.37062 6.3475 6.31732 6.39701 6.31732 6.45807V7.66044C6.31732 7.72151 6.37062 7.77101 6.43636 7.77101Z" fill="#BFC0C4"/>
   </g>
 </symbol>

   <symbol id="user_icon6" viewBox="0 0 20 20" >
  <g>
<circle cx="10" cy="10" r="10" fill="currentFill"/>
<path d="M14.6666 9.87982C14.6666 12.3908 12.6155 14.4263 10.0848 14.4263C9.28142 14.4263 8.52666 14.221 7.87001 13.8606L5.33331 14.6667L6.16035 12.2274C5.74315 11.5423 5.50287 10.7388 5.50287 9.87982C5.50287 7.36884 7.55423 5.33334 10.0848 5.33334C12.6157 5.33334 14.6666 7.36884 14.6666 9.87982ZM10.0848 6.0574C7.96054 6.0574 6.23263 7.77214 6.23263 9.87982C6.23263 10.7162 6.50527 11.4908 6.96644 12.1209L6.48515 13.5405L7.96552 13.07C8.57374 13.4693 9.30236 13.7022 10.0849 13.7022C12.2089 13.7022 13.9371 11.9877 13.9371 9.88002C13.9371 7.77235 12.209 6.0574 10.0848 6.0574ZM12.3985 10.9269C12.3702 10.8806 12.2955 10.8526 12.1833 10.7969C12.0708 10.7412 11.5185 10.4714 11.4158 10.4344C11.3129 10.3973 11.2378 10.3786 11.163 10.4901C11.0882 10.6017 10.873 10.8526 10.8073 10.9269C10.7418 11.0015 10.6763 11.0108 10.5639 10.955C10.4517 10.8993 10.0899 10.7815 9.66087 10.402C9.32705 10.1066 9.10159 9.742 9.03605 9.63031C8.97062 9.51883 9.02921 9.45857 9.08531 9.40309C9.13592 9.35311 9.19773 9.27294 9.25383 9.20792C9.31014 9.1428 9.32881 9.09644 9.36604 9.02198C9.40368 8.94762 9.38491 8.8826 9.35671 8.82671C9.32871 8.77102 9.10388 8.22263 9.01034 7.99946C8.91679 7.7765 8.82336 7.81362 8.75771 7.81362C8.69228 7.81362 8.6173 7.80429 8.54242 7.80429C8.46755 7.80429 8.3458 7.83219 8.24282 7.94367C8.13995 8.05525 7.84989 8.32488 7.84989 8.87317C7.84989 9.42155 8.25216 9.95137 8.30847 10.0256C8.36457 10.0999 9.08521 11.2618 10.227 11.708C11.3689 12.154 11.3689 12.0052 11.5748 11.9866C11.7806 11.968 12.2392 11.717 12.3331 11.4569C12.4264 11.1964 12.4264 10.9734 12.3985 10.9269Z" fill="currentColor"/>
   </g>
 </symbol>

    <symbol id="user_icon7" viewBox="0 0 20 20" >
  <g>
<circle cx="10" cy="10" r="10" fill="currentFill"/>
<path d="M14.4605 12.4187C14.4478 12.3912 14.4359 12.3685 14.4249 12.3502C14.2424 12.0216 13.8938 11.6183 13.3791 11.1401L13.3682 11.1291L13.3628 11.1237L13.3573 11.1182H13.3517C13.1181 10.8956 12.9702 10.7458 12.9083 10.6692C12.7949 10.5232 12.7696 10.3754 12.8315 10.2256C12.8753 10.1125 13.0397 9.87351 13.3243 9.50842C13.474 9.31494 13.5926 9.15986 13.6802 9.04303C14.3117 8.20343 14.5855 7.66692 14.5015 7.43328L14.4689 7.37868C14.447 7.34581 14.3904 7.31573 14.2992 7.28831C14.2079 7.26094 14.0911 7.25642 13.9487 7.27466L12.3718 7.28555C12.3463 7.2765 12.3098 7.27734 12.2623 7.28831C12.2148 7.29928 12.1911 7.30478 12.1911 7.30478L12.1636 7.3185L12.1418 7.33497C12.1236 7.34586 12.1035 7.36502 12.0816 7.39241C12.0598 7.4197 12.0415 7.45172 12.027 7.48822C11.8553 7.9299 11.6601 8.34055 11.441 8.72016C11.306 8.94651 11.1819 9.14268 11.0686 9.30878C10.9555 9.47482 10.8606 9.59716 10.784 9.67557C10.7073 9.75407 10.6381 9.81695 10.5759 9.86445C10.5138 9.91198 10.4664 9.93206 10.4336 9.92471C10.4007 9.91737 10.3697 9.91008 10.3404 9.90279C10.2894 9.86992 10.2483 9.82522 10.2173 9.76864C10.1862 9.71207 10.1653 9.64086 10.1543 9.55508C10.1434 9.46924 10.137 9.39541 10.1351 9.33333C10.1334 9.27133 10.1342 9.18363 10.1379 9.07048C10.1417 8.95727 10.1434 8.88068 10.1434 8.84052C10.1434 8.70179 10.1461 8.55122 10.1515 8.38879C10.1571 8.22635 10.1615 8.09765 10.1653 8.00283C10.169 7.90792 10.1707 7.80751 10.1707 7.70165C10.1707 7.59579 10.1643 7.51277 10.1515 7.45251C10.139 7.39233 10.1197 7.33392 10.0942 7.27728C10.0686 7.22071 10.0311 7.17695 9.98196 7.14588C9.93269 7.11485 9.87143 7.09022 9.79854 7.07193C9.60506 7.02815 9.35868 7.00446 9.0593 7.00078C8.38038 6.99349 7.94415 7.03733 7.75068 7.13224C7.67403 7.17234 7.60466 7.22713 7.54264 7.29644C7.47692 7.37678 7.46776 7.42062 7.5152 7.42783C7.73425 7.46064 7.88932 7.53914 7.98059 7.66324L8.01348 7.729C8.03906 7.77644 8.0646 7.86044 8.09017 7.98088C8.11569 8.10131 8.13217 8.23454 8.13942 8.38048C8.15764 8.64699 8.15764 8.87513 8.13942 9.06492C8.12114 9.25478 8.10388 9.40258 8.08741 9.50844C8.07093 9.6143 8.04631 9.70008 8.01348 9.76577C7.98059 9.83147 7.9587 9.87163 7.94774 9.8862C7.93678 9.90078 7.92766 9.90996 7.92041 9.91357C7.87296 9.93175 7.82362 9.94101 7.77255 9.94101C7.7214 9.94101 7.65938 9.91543 7.58639 9.8643C7.51342 9.81317 7.43768 9.74294 7.35919 9.6535C7.2807 9.56404 7.19217 9.43902 7.09358 9.27842C6.99506 9.11783 6.89285 8.92803 6.78698 8.70902L6.6994 8.55019C6.64465 8.44801 6.56985 8.29923 6.47494 8.10398C6.37998 7.90865 6.29603 7.71971 6.22306 7.5372C6.19389 7.46055 6.15007 7.40219 6.09168 7.36203L6.06427 7.34556C6.04605 7.33098 6.01681 7.3155 5.97669 7.29901C5.93651 7.28254 5.89459 7.27072 5.85075 7.26346L4.35049 7.27435C4.19719 7.27435 4.09317 7.30908 4.03839 7.37845L4.01647 7.41126C4.00552 7.42954 4 7.45872 4 7.4989C4 7.53906 4.01095 7.58835 4.03287 7.6467C4.25188 8.16143 4.49005 8.65785 4.74738 9.13603C5.0047 9.6142 5.22831 9.99939 5.41808 10.2912C5.60788 10.5833 5.80134 10.8589 5.99847 11.118C6.1956 11.3772 6.32609 11.5433 6.38993 11.6163C6.45385 11.6894 6.50406 11.744 6.54055 11.7805L6.67746 11.9119C6.76506 11.9995 6.89371 12.1045 7.06345 12.2267C7.23323 12.3491 7.42119 12.4695 7.62743 12.5882C7.8337 12.7068 8.07368 12.8035 8.34748 12.8783C8.62124 12.9532 8.88769 12.9833 9.14688 12.9688H9.77656C9.90427 12.9577 10.001 12.9176 10.0668 12.8483L10.0886 12.8208C10.1032 12.799 10.1169 12.7652 10.1296 12.7197C10.1424 12.674 10.1488 12.6238 10.1488 12.5691C10.145 12.4122 10.157 12.2707 10.1843 12.1448C10.2116 12.0189 10.2427 11.924 10.2775 11.8601C10.3122 11.7962 10.3515 11.7423 10.3951 11.6987C10.4389 11.6549 10.4701 11.6283 10.4884 11.6192C10.5066 11.61 10.5211 11.6038 10.532 11.6001C10.6196 11.5709 10.7227 11.5991 10.8415 11.685C10.9601 11.7708 11.0714 11.8767 11.1755 12.0026C11.2796 12.1286 11.4046 12.2699 11.5505 12.4269C11.6966 12.5839 11.8243 12.7006 11.9338 12.7773L12.0433 12.843C12.1164 12.8869 12.2113 12.927 12.3281 12.9635C12.4447 13 12.5469 13.0091 12.6347 12.9909L14.0363 12.969C14.1749 12.969 14.2828 12.9461 14.3593 12.9005C14.436 12.8549 14.4815 12.8046 14.4962 12.75C14.5109 12.6952 14.5117 12.6331 14.499 12.5637C14.486 12.4944 14.4732 12.446 14.4605 12.4187Z" fill="currentColor"/>
   </g>
 </symbol>

     <symbol id="user_icon8" viewBox="0 0 12 12" >
  <g>
<path d="M10.2521 1.51285C9.1579 0.504284 7.79682 0 6.17136 0C4.46267 0 3.00612 0.572827 1.80416 1.72093C0.602203 2.86903 0 4.29621 0 6.0049C0 7.64259 0.572827 9.05018 1.71603 10.2301C2.86414 11.41 4.40636 12 6.34761 12C7.51775 12 8.66585 11.7601 9.79192 11.2778C10.1591 11.1212 10.3378 10.7001 10.1885 10.3305C10.0343 9.94859 9.59853 9.77234 9.21909 9.9339C8.2399 10.355 7.28029 10.5655 6.34517 10.5655C4.85679 10.5655 3.70379 10.1126 2.88617 9.20441C2.07099 8.29865 1.66218 7.23378 1.66218 6.01224C1.66218 4.68543 2.10037 3.57895 2.9743 2.69033C3.84578 1.80416 4.92044 1.35863 6.19339 1.35863C7.36597 1.35863 8.3574 1.72338 9.16524 2.45288C9.97307 3.18237 10.377 4.10037 10.377 5.20685C10.377 5.96328 10.1909 6.59486 9.8213 7.09669C9.45165 7.60098 9.06732 7.85067 8.6683 7.85067C8.45288 7.85067 8.34516 7.73562 8.34516 7.50306C8.34516 7.31457 8.35985 7.09425 8.38678 6.83966L8.8421 3.11628H7.2754L7.17503 3.48103C6.77601 3.15545 6.33782 2.99143 5.86291 2.99143C5.10893 2.99143 4.46267 3.29253 3.92656 3.89229C3.38801 4.49204 3.12117 5.26561 3.12117 6.21053C3.12117 7.13341 3.35863 7.88005 3.83599 8.44553C4.31334 9.01346 4.88617 9.29498 5.55692 9.29498C6.15667 9.29498 6.6683 9.04284 7.09425 8.541C7.41493 9.02326 7.88739 9.26316 8.51163 9.26316C9.42962 9.26316 10.2228 8.86414 10.8911 8.06365C11.5594 7.26561 11.8947 6.3011 11.8947 5.17258C11.8947 3.74296 11.3488 2.52142 10.2521 1.51285ZM6.64382 7.14565C6.3672 7.51775 6.03672 7.70624 5.65239 7.70624C5.39045 7.70624 5.17993 7.56916 5.02081 7.29498C4.85924 7.02081 4.77846 6.68054 4.77846 6.27173C4.77846 5.76744 4.89106 5.36108 5.11628 5.05263C5.34149 4.74419 5.62056 4.58751 5.95349 4.58751C6.24235 4.58751 6.49939 4.70257 6.7246 4.93513C6.94982 5.16769 7.06242 5.47613 7.06242 5.86291C7.05998 6.34516 6.92044 6.77111 6.64382 7.14565Z" fill="currentFill"/>
</svg>
   </g>
 </symbol>

</svg>