<svg width="23" height="23" fill="none" xmlns="http://www.w3.org/2000/svg"><path fill-rule="evenodd" clip-rule="evenodd" d="M4.246 0a.795.795 0 00-.794.795c0 .265.004.53.011.793H.795A.794.794 0 000 2.382c0 2.913.761 5.668 2.15 7.756 1.36 2.044 3.18 3.243 5.165 3.38.416.447.856.818 1.315 1.11v2.631h-.932c-1.39 0-2.52 1.13-2.52 2.52v.939a.795.795 0 00.104 1.582h11.736a.795.795 0 00.104-1.582v-.938c0-1.39-1.13-2.52-2.52-2.52h-.931v-2.632a6.786 6.786 0 001.315-1.11c1.984-.137 3.804-1.336 5.164-3.38 1.39-2.088 2.15-4.843 2.15-7.756a.795.795 0 00-.794-.794h-2.669c.007-.263.011-.528.011-.793A.795.795 0 0018.054 0H4.246zM6.98 10.203C5.825 7.894 5.147 4.86 5.052 1.588h12.196c-.095 3.272-.773 6.305-1.927 8.614-.389.777-.813 1.435-1.26 1.968a.784.784 0 00-.091.106c-.45.515-.922.902-1.404 1.158a2.965 2.965 0 01-1.416.372 2.969 2.969 0 01-1.416-.372c-.482-.256-.954-.643-1.404-1.158a.797.797 0 00-.09-.105c-.448-.534-.872-1.192-1.26-1.97zm-3.506-.945C2.385 7.622 1.732 5.488 1.61 3.177h1.941c.245 2.903.934 5.59 2.007 7.736.1.202.204.397.31.585-.88-.438-1.699-1.194-2.395-2.24zm13.27 1.655c1.072-2.145 1.761-4.833 2.006-7.736h1.941c-.122 2.31-.775 4.445-1.863 6.08-.696 1.047-1.516 1.803-2.395 2.242.106-.19.21-.384.31-.586zm-6.524 6.346v-1.964a4.357 4.357 0 001.863 0v1.964H10.22zm-3.452 2.52c0-.513.418-.93.931-.93h6.904c.513 0 .931.417.931.93v.932H6.767v-.931z" fill="#BFC0C4"/></svg>