<svg width="10" height="12" viewBox="0 0 10 12" fill="none" xmlns="http://www.w3.org/2000/svg">
<path d="M2.15621 11.7619C2.05483 11.7619 1.96865 11.729 1.89769 11.6631C1.83686 11.5863 1.80644 11.493 1.80644 11.3833V9.27606H0.635475C0.534093 9.27606 0.447918 9.24313 0.37695 9.17728C0.31612 9.10046 0.285706 9.00717 0.285706 8.89742V8.51878C0.285706 8.40903 0.31612 8.32123 0.37695 8.25538C0.447918 8.17855 0.534093 8.14014 0.635475 8.14014H1.80644V7.20177H0.635475C0.534093 7.20177 0.447918 7.16885 0.37695 7.103C0.31612 7.02617 0.285706 6.93288 0.285706 6.82313V6.2634C0.285706 6.15365 0.31612 6.06585 0.37695 6C0.447918 5.92318 0.534093 5.88476 0.635475 5.88476H1.80644V0.6332C1.80644 0.512475 1.83686 0.419187 1.89769 0.353337C1.96865 0.276511 2.05483 0.238098 2.15621 0.238098H6.01889C7.16451 0.238098 8.06681 0.539912 8.7258 1.14354C9.38478 1.74717 9.71428 2.61969 9.71428 3.76109C9.71428 4.88055 9.38478 5.7366 8.7258 6.32925C8.07695 6.91093 7.17465 7.20177 6.01889 7.20177H3.32718V8.14014H6.2622C6.36359 8.14014 6.44469 8.17855 6.50552 8.25538C6.57649 8.32123 6.61197 8.40903 6.61197 8.51878V8.89742C6.61197 9.00717 6.57649 9.10046 6.50552 9.17728C6.44469 9.24313 6.36359 9.27606 6.2622 9.27606H3.32718V11.3833C3.32718 11.493 3.2917 11.5863 3.22073 11.6631C3.14976 11.729 3.06359 11.7619 2.9622 11.7619H2.15621ZM5.94285 5.88476C6.68294 5.88476 7.24054 5.70368 7.61566 5.3415C8.00091 4.97932 8.19354 4.45252 8.19354 3.76109C8.19354 3.06966 8.00598 2.54286 7.63087 2.18068C7.25575 1.80753 6.69308 1.62096 5.94285 1.62096H3.31197V5.88476H5.94285Z" fill="#BFC0C4"/>
</svg>
