<svg width="12" height="12" viewBox="0 0 12 12" fill="none" xmlns="http://www.w3.org/2000/svg">
<path d="M10.2521 1.51285C9.1579 0.504284 7.79682 0 6.17136 0C4.46267 0 3.00612 0.572827 1.80416 1.72093C0.602203 2.86903 0 4.29621 0 6.0049C0 7.64259 0.572827 9.05018 1.71603 10.2301C2.86414 11.41 4.40636 12 6.34761 12C7.51775 12 8.66585 11.7601 9.79192 11.2778C10.1591 11.1212 10.3378 10.7001 10.1885 10.3305C10.0343 9.94859 9.59853 9.77234 9.21909 9.9339C8.2399 10.355 7.28029 10.5655 6.34517 10.5655C4.85679 10.5655 3.70379 10.1126 2.88617 9.20441C2.07099 8.29865 1.66218 7.23378 1.66218 6.01224C1.66218 4.68543 2.10037 3.57895 2.9743 2.69033C3.84578 1.80416 4.92044 1.35863 6.19339 1.35863C7.36597 1.35863 8.3574 1.72338 9.16524 2.45288C9.97307 3.18237 10.377 4.10037 10.377 5.20685C10.377 5.96328 10.1909 6.59486 9.8213 7.09669C9.45165 7.60098 9.06732 7.85067 8.6683 7.85067C8.45288 7.85067 8.34516 7.73562 8.34516 7.50306C8.34516 7.31457 8.35985 7.09425 8.38678 6.83966L8.8421 3.11628H7.2754L7.17503 3.48103C6.77601 3.15545 6.33782 2.99143 5.86291 2.99143C5.10893 2.99143 4.46267 3.29253 3.92656 3.89229C3.38801 4.49204 3.12117 5.26561 3.12117 6.21053C3.12117 7.13341 3.35863 7.88005 3.83599 8.44553C4.31334 9.01346 4.88617 9.29498 5.55692 9.29498C6.15667 9.29498 6.6683 9.04284 7.09425 8.541C7.41493 9.02326 7.88739 9.26316 8.51163 9.26316C9.42962 9.26316 10.2228 8.86414 10.8911 8.06365C11.5594 7.26561 11.8947 6.3011 11.8947 5.17258C11.8947 3.74296 11.3488 2.52142 10.2521 1.51285ZM6.64382 7.14565C6.3672 7.51775 6.03672 7.70624 5.65239 7.70624C5.39045 7.70624 5.17993 7.56916 5.02081 7.29498C4.85924 7.02081 4.77846 6.68054 4.77846 6.27173C4.77846 5.76744 4.89106 5.36108 5.11628 5.05263C5.34149 4.74419 5.62056 4.58751 5.95349 4.58751C6.24235 4.58751 6.49939 4.70257 6.7246 4.93513C6.94982 5.16769 7.06242 5.47613 7.06242 5.86291C7.05998 6.34516 6.92044 6.77111 6.64382 7.14565Z" fill="currentFill"/>
</svg>
