<svg width="20" height="20" viewBox="0 0 20 20" fill="none" xmlns="http://www.w3.org/2000/svg">
<circle cx="10" cy="10" r="10" fill="#4A76A8"/>
<path d="M14.4605 12.4187C14.4478 12.3912 14.4359 12.3685 14.4249 12.3502C14.2424 12.0216 13.8938 11.6183 13.3791 11.1401L13.3682 11.1291L13.3628 11.1237L13.3573 11.1182H13.3517C13.1181 10.8956 12.9702 10.7458 12.9083 10.6692C12.7949 10.5232 12.7696 10.3754 12.8315 10.2256C12.8753 10.1125 13.0397 9.87351 13.3243 9.50842C13.474 9.31494 13.5926 9.15986 13.6802 9.04303C14.3117 8.20343 14.5855 7.66692 14.5015 7.43328L14.4689 7.37868C14.447 7.34581 14.3904 7.31573 14.2992 7.28831C14.2079 7.26094 14.0911 7.25642 13.9487 7.27466L12.3718 7.28555C12.3463 7.2765 12.3098 7.27734 12.2623 7.28831C12.2148 7.29928 12.1911 7.30478 12.1911 7.30478L12.1636 7.3185L12.1418 7.33497C12.1236 7.34586 12.1035 7.36502 12.0816 7.39241C12.0598 7.4197 12.0415 7.45172 12.027 7.48822C11.8553 7.9299 11.6601 8.34055 11.441 8.72016C11.306 8.94651 11.1819 9.14268 11.0686 9.30878C10.9555 9.47482 10.8606 9.59716 10.784 9.67557C10.7073 9.75407 10.6381 9.81695 10.5759 9.86445C10.5138 9.91198 10.4664 9.93206 10.4336 9.92471C10.4007 9.91737 10.3697 9.91008 10.3404 9.90279C10.2894 9.86992 10.2483 9.82522 10.2173 9.76864C10.1862 9.71207 10.1653 9.64086 10.1543 9.55508C10.1434 9.46924 10.137 9.39541 10.1351 9.33333C10.1334 9.27133 10.1342 9.18363 10.1379 9.07048C10.1417 8.95727 10.1434 8.88068 10.1434 8.84052C10.1434 8.70179 10.1461 8.55122 10.1515 8.38879C10.1571 8.22635 10.1615 8.09765 10.1653 8.00283C10.169 7.90792 10.1707 7.80751 10.1707 7.70165C10.1707 7.59579 10.1643 7.51277 10.1515 7.45251C10.139 7.39233 10.1197 7.33392 10.0942 7.27728C10.0686 7.22071 10.0311 7.17695 9.98196 7.14588C9.93269 7.11485 9.87143 7.09022 9.79854 7.07193C9.60506 7.02815 9.35868 7.00446 9.0593 7.00078C8.38038 6.99349 7.94415 7.03733 7.75068 7.13224C7.67403 7.17234 7.60466 7.22713 7.54264 7.29644C7.47692 7.37678 7.46776 7.42062 7.5152 7.42783C7.73425 7.46064 7.88932 7.53914 7.98059 7.66324L8.01348 7.729C8.03906 7.77644 8.0646 7.86044 8.09017 7.98088C8.11569 8.10131 8.13217 8.23454 8.13942 8.38048C8.15764 8.64699 8.15764 8.87513 8.13942 9.06492C8.12114 9.25478 8.10388 9.40258 8.08741 9.50844C8.07093 9.6143 8.04631 9.70008 8.01348 9.76577C7.98059 9.83147 7.9587 9.87163 7.94774 9.8862C7.93678 9.90078 7.92766 9.90996 7.92041 9.91357C7.87296 9.93175 7.82362 9.94101 7.77255 9.94101C7.7214 9.94101 7.65938 9.91543 7.58639 9.8643C7.51342 9.81317 7.43768 9.74294 7.35919 9.6535C7.2807 9.56404 7.19217 9.43902 7.09358 9.27842C6.99506 9.11783 6.89285 8.92803 6.78698 8.70902L6.6994 8.55019C6.64465 8.44801 6.56985 8.29923 6.47494 8.10398C6.37998 7.90865 6.29603 7.71971 6.22306 7.5372C6.19389 7.46055 6.15007 7.40219 6.09168 7.36203L6.06427 7.34556C6.04605 7.33098 6.01681 7.3155 5.97669 7.29901C5.93651 7.28254 5.89459 7.27072 5.85075 7.26346L4.35049 7.27435C4.19719 7.27435 4.09317 7.30908 4.03839 7.37845L4.01647 7.41126C4.00552 7.42954 4 7.45872 4 7.4989C4 7.53906 4.01095 7.58835 4.03287 7.6467C4.25188 8.16143 4.49005 8.65785 4.74738 9.13603C5.0047 9.6142 5.22831 9.99939 5.41808 10.2912C5.60788 10.5833 5.80134 10.8589 5.99847 11.118C6.1956 11.3772 6.32609 11.5433 6.38993 11.6163C6.45385 11.6894 6.50406 11.744 6.54055 11.7805L6.67746 11.9119C6.76506 11.9995 6.89371 12.1045 7.06345 12.2267C7.23323 12.3491 7.42119 12.4695 7.62743 12.5882C7.8337 12.7068 8.07368 12.8035 8.34748 12.8783C8.62124 12.9532 8.88769 12.9833 9.14688 12.9688H9.77656C9.90427 12.9577 10.001 12.9176 10.0668 12.8483L10.0886 12.8208C10.1032 12.799 10.1169 12.7652 10.1296 12.7197C10.1424 12.674 10.1488 12.6238 10.1488 12.5691C10.145 12.4122 10.157 12.2707 10.1843 12.1448C10.2116 12.0189 10.2427 11.924 10.2775 11.8601C10.3122 11.7962 10.3515 11.7423 10.3951 11.6987C10.4389 11.6549 10.4701 11.6283 10.4884 11.6192C10.5066 11.61 10.5211 11.6038 10.532 11.6001C10.6196 11.5709 10.7227 11.5991 10.8415 11.685C10.9601 11.7708 11.0714 11.8767 11.1755 12.0026C11.2796 12.1286 11.4046 12.2699 11.5505 12.4269C11.6966 12.5839 11.8243 12.7006 11.9338 12.7773L12.0433 12.843C12.1164 12.8869 12.2113 12.927 12.3281 12.9635C12.4447 13 12.5469 13.0091 12.6347 12.9909L14.0363 12.969C14.1749 12.969 14.2828 12.9461 14.3593 12.9005C14.436 12.8549 14.4815 12.8046 14.4962 12.75C14.5109 12.6952 14.5117 12.6331 14.499 12.5637C14.486 12.4944 14.4732 12.446 14.4605 12.4187Z" fill="white"/>
</svg>
