<svg width="20" height="20" viewBox="0 0 20 20" fill="none" xmlns="http://www.w3.org/2000/svg">
<circle cx="10" cy="10" r="10" fill="#4A76A8"/>
<path d="M14.4605 12.752C14.4478 12.7246 14.4359 12.7018 14.4249 12.6836C14.2424 12.3549 13.8938 11.9516 13.3791 11.4734L13.3682 11.4625L13.3628 11.4571L13.3573 11.4516H13.3517C13.1181 11.2289 12.9702 11.0792 12.9083 11.0025C12.7949 10.8565 12.7696 10.7087 12.8315 10.559C12.8753 10.4458 13.0397 10.2068 13.3243 9.84176C13.474 9.64828 13.5926 9.49321 13.6801 9.37638C14.3117 8.53678 14.5855 8.00026 14.5015 7.76662L14.4689 7.71202C14.447 7.67915 14.3904 7.64908 14.2992 7.62165C14.2079 7.59429 14.0911 7.58976 13.9487 7.608L12.3718 7.61889C12.3463 7.60984 12.3098 7.61068 12.2623 7.62165C12.2148 7.63262 12.1911 7.63813 12.1911 7.63813L12.1636 7.65184L12.1418 7.66831C12.1236 7.67921 12.1035 7.69837 12.0816 7.72575C12.0598 7.75304 12.0415 7.78507 12.027 7.82156C11.8553 8.26324 11.6601 8.6739 11.441 9.0535C11.306 9.27986 11.1819 9.47603 11.0686 9.64212C10.9555 9.80816 10.8606 9.9305 10.784 10.0089C10.7073 10.0874 10.6381 10.1503 10.5759 10.1978C10.5138 10.2453 10.4664 10.2654 10.4336 10.2581C10.4007 10.2507 10.3697 10.2434 10.3404 10.2361C10.2894 10.2033 10.2483 10.1586 10.2173 10.102C10.1862 10.0454 10.1653 9.9742 10.1543 9.88842C10.1434 9.80258 10.137 9.72875 10.1351 9.66667C10.1334 9.60467 10.1342 9.51697 10.1379 9.40382C10.1417 9.29061 10.1434 9.21402 10.1434 9.17386C10.1434 9.03513 10.1461 8.88456 10.1515 8.72213C10.1571 8.55969 10.1615 8.43099 10.1653 8.33618C10.169 8.24127 10.1707 8.14085 10.1707 8.03499C10.1707 7.92913 10.1643 7.84611 10.1515 7.78585C10.139 7.72567 10.1197 7.66726 10.0942 7.61063C10.0686 7.55405 10.0311 7.51029 9.98195 7.47922C9.93269 7.44819 9.87143 7.42357 9.79854 7.40527C9.60505 7.36149 9.35868 7.3378 9.0593 7.33412C8.38038 7.32684 7.94415 7.37068 7.75068 7.46559C7.67403 7.50569 7.60466 7.56048 7.54264 7.62979C7.47692 7.71012 7.46775 7.75396 7.5152 7.76117C7.73425 7.79399 7.88932 7.87248 7.98059 7.99658L8.01348 8.06234C8.03906 8.10978 8.0646 8.19378 8.09017 8.31422C8.11569 8.43466 8.13217 8.56788 8.13942 8.71383C8.15764 8.98034 8.15764 9.20848 8.13942 9.39826C8.12114 9.58812 8.10388 9.73592 8.08741 9.84178C8.07093 9.94764 8.04631 10.0334 8.01348 10.0991C7.98059 10.1648 7.9587 10.205 7.94773 10.2195C7.93678 10.2341 7.92766 10.2433 7.92041 10.2469C7.87296 10.2651 7.82362 10.2744 7.77255 10.2744C7.7214 10.2744 7.65938 10.2488 7.58639 10.1976C7.51342 10.1465 7.43768 10.0763 7.35919 9.98684C7.28069 9.89738 7.19217 9.77236 7.09358 9.61177C6.99506 9.45117 6.89284 9.26137 6.78698 9.04236L6.6994 8.88353C6.64465 8.78135 6.56985 8.63257 6.47494 8.43732C6.37997 8.242 6.29603 8.05306 6.22306 7.87054C6.19389 7.79389 6.15007 7.73553 6.09168 7.69537L6.06427 7.6789C6.04605 7.66432 6.01681 7.64885 5.97669 7.63236C5.93651 7.61588 5.89459 7.60407 5.85075 7.5968L4.35049 7.60769C4.19719 7.60769 4.09317 7.64242 4.03839 7.71179L4.01647 7.7446C4.00552 7.76288 4 7.79207 4 7.83224C4 7.8724 4.01095 7.92169 4.03287 7.98005C4.25188 8.49478 4.49005 8.99119 4.74738 9.46937C5.0047 9.94755 5.22831 10.3327 5.41808 10.6246C5.60788 10.9166 5.80134 11.1923 5.99847 11.4514C6.1956 11.7106 6.32609 11.8767 6.38993 11.9496C6.45385 12.0227 6.50405 12.0774 6.54055 12.1139L6.67746 12.2453C6.76506 12.3329 6.89371 12.4378 7.06345 12.5601C7.23323 12.6824 7.42119 12.8029 7.62743 12.9216C7.8337 13.0401 8.07368 13.1369 8.34748 13.2117C8.62124 13.2866 8.88769 13.3166 9.14688 13.3021H9.77656C9.90427 13.2911 10.001 13.2509 10.0668 13.1816L10.0886 13.1542C10.1032 13.1324 10.1169 13.0985 10.1296 13.053C10.1424 13.0074 10.1488 12.9571 10.1488 12.9024C10.145 12.7455 10.157 12.6041 10.1843 12.4781C10.2116 12.3523 10.2427 12.2574 10.2775 12.1934C10.3122 12.1296 10.3515 12.0757 10.3951 12.032C10.4389 11.9882 10.4701 11.9617 10.4884 11.9526C10.5066 11.9434 10.5211 11.9371 10.532 11.9334C10.6196 11.9042 10.7227 11.9325 10.8415 12.0183C10.9601 12.1041 11.0714 12.21 11.1755 12.3359C11.2796 12.4619 11.4046 12.6033 11.5505 12.7602C11.6966 12.9172 11.8243 13.0339 11.9338 13.1107L12.0433 13.1764C12.1164 13.2202 12.2113 13.2604 12.3281 13.2969C12.4447 13.3333 12.5469 13.3425 12.6347 13.3242L14.0363 13.3024C14.1749 13.3024 14.2828 13.2794 14.3593 13.2339C14.436 13.1882 14.4815 13.138 14.4962 13.0833C14.5109 13.0286 14.5117 12.9665 14.499 12.897C14.486 12.8278 14.4732 12.7794 14.4605 12.752Z" fill="white"/>
<circle cx="10" cy="10" r="10" fill="#26D367"/>
<path d="M14.6666 9.87982C14.6666 12.3908 12.6155 14.4263 10.0848 14.4263C9.28142 14.4263 8.52666 14.221 7.87001 13.8606L5.33331 14.6667L6.16035 12.2274C5.74315 11.5423 5.50287 10.7388 5.50287 9.87982C5.50287 7.36884 7.55423 5.33334 10.0848 5.33334C12.6157 5.33334 14.6666 7.36884 14.6666 9.87982ZM10.0848 6.0574C7.96054 6.0574 6.23263 7.77214 6.23263 9.87982C6.23263 10.7162 6.50527 11.4908 6.96644 12.1209L6.48515 13.5405L7.96552 13.07C8.57374 13.4693 9.30236 13.7022 10.0849 13.7022C12.2089 13.7022 13.9371 11.9877 13.9371 9.88002C13.9371 7.77235 12.209 6.0574 10.0848 6.0574ZM12.3985 10.9269C12.3702 10.8806 12.2955 10.8526 12.1833 10.7969C12.0708 10.7412 11.5185 10.4714 11.4158 10.4344C11.3129 10.3973 11.2378 10.3786 11.163 10.4901C11.0882 10.6017 10.873 10.8526 10.8073 10.9269C10.7418 11.0015 10.6763 11.0108 10.5639 10.955C10.4517 10.8993 10.0899 10.7815 9.66087 10.402C9.32705 10.1066 9.10159 9.742 9.03605 9.63031C8.97062 9.51883 9.02921 9.45857 9.08531 9.40309C9.13592 9.35311 9.19773 9.27294 9.25383 9.20792C9.31014 9.1428 9.32881 9.09644 9.36604 9.02198C9.40368 8.94762 9.38491 8.8826 9.35671 8.82671C9.32871 8.77102 9.10388 8.22263 9.01034 7.99946C8.91679 7.7765 8.82336 7.81362 8.75771 7.81362C8.69228 7.81362 8.6173 7.80429 8.54242 7.80429C8.46755 7.80429 8.3458 7.83219 8.24282 7.94367C8.13995 8.05525 7.84989 8.32488 7.84989 8.87317C7.84989 9.42155 8.25216 9.95137 8.30847 10.0256C8.36457 10.0999 9.08521 11.2618 10.227 11.708C11.3689 12.154 11.3689 12.0052 11.5748 11.9866C11.7806 11.968 12.2392 11.717 12.3331 11.4569C12.4264 11.1964 12.4264 10.9734 12.3985 10.9269Z" fill="white"/>
</svg>
